<svg width="74" height="24" viewBox="0 0 74 24" fill="none" xmlns="http://www.w3.org/2000/svg">
<rect width="74" height="24" fill="#E5E5E5"/>
<g clip-path="url(#clip0_0_1)">
<rect width="1440" height="5657" transform="translate(-850 -707)" fill="white"/>
<path d="M9.44922 16.4224C9.44922 15.6737 9.18473 15.043 8.65576 14.5303C8.13493 14.0176 7.25195 13.5537 6.00684 13.1387C4.27344 12.6097 3.00798 11.922 2.21045 11.0757C1.42106 10.2212 1.02637 9.13883 1.02637 7.82861C1.02637 6.49398 1.41292 5.39941 2.18604 4.54492C2.96729 3.69043 4.03743 3.1818 5.39648 3.01904V0.345703H7.21533V3.03125C8.58252 3.21842 9.64453 3.79215 10.4014 4.75244C11.1663 5.71273 11.5488 7.02702 11.5488 8.69531H9.30273C9.30273 7.54785 9.03011 6.63639 8.48486 5.96094C7.93962 5.28548 7.20312 4.94775 6.27539 4.94775C5.30697 4.94775 4.56641 5.20003 4.05371 5.70459C3.54102 6.20101 3.28467 6.89681 3.28467 7.79199C3.28467 8.62207 3.55322 9.28532 4.09033 9.78174C4.63558 10.27 5.52669 10.7176 6.76367 11.1245C8.00879 11.5233 8.97721 11.9668 9.66895 12.4551C10.3688 12.9352 10.8815 13.4967 11.207 14.1396C11.5407 14.7826 11.7075 15.5353 11.7075 16.3979C11.7075 17.7733 11.2925 18.88 10.4624 19.7183C9.64046 20.5565 8.48486 21.0529 6.99561 21.2075V23.5391H5.18896V21.2075C3.67529 21.0692 2.48714 20.5321 1.62451 19.5962C0.77002 18.6522 0.342773 17.3745 0.342773 15.7632H2.60107C2.60107 16.8944 2.89811 17.7651 3.49219 18.3755C4.08626 18.9858 4.92855 19.291 6.01904 19.291C7.08512 19.291 7.92334 19.0347 8.53369 18.522C9.14404 18.0093 9.44922 17.3094 9.44922 16.4224ZM27.1101 21H15.4646V19.3765L21.617 12.5405C22.5284 11.507 23.1551 10.6688 23.4969 10.0259C23.8468 9.37484 24.0218 8.70345 24.0218 8.01172C24.0218 7.08398 23.741 6.32308 23.1795 5.729C22.618 5.13493 21.8693 4.83789 20.9334 4.83789C19.8103 4.83789 18.9355 5.15934 18.3089 5.80225C17.6904 6.43701 17.3811 7.32406 17.3811 8.46338H15.1228C15.1228 6.82764 15.6477 5.50521 16.6975 4.49609C17.7555 3.48698 19.1674 2.98242 20.9334 2.98242C22.5854 2.98242 23.8916 3.41781 24.8518 4.28857C25.8121 5.1512 26.2923 6.30273 26.2923 7.74316C26.2923 9.49284 25.1774 11.5762 22.9475 13.9932L18.1868 19.1567H27.1101V21ZM39.3145 3.21436V5.13086H38.8995C37.1417 5.16341 35.7419 5.68424 34.7003 6.69336C33.6586 7.70247 33.0564 9.12256 32.8936 10.9536C33.8295 9.87939 35.1072 9.34229 36.7266 9.34229C38.2729 9.34229 39.5058 9.88753 40.4254 10.978C41.3531 12.0685 41.817 13.4764 41.817 15.2017C41.817 17.0327 41.3165 18.4976 40.3155 19.5962C39.3227 20.6948 37.988 21.2441 36.3116 21.2441C34.6108 21.2441 33.2314 20.5931 32.1734 19.291C31.1155 17.9808 30.5865 16.2962 30.5865 14.2373V13.3706C30.5865 10.0991 31.2823 7.60075 32.6739 5.87549C34.0736 4.14209 36.1529 3.25505 38.9117 3.21436H39.3145ZM36.3482 11.2222C35.5751 11.2222 34.863 11.4541 34.212 11.918C33.5609 12.3818 33.1093 12.9637 32.857 13.6636V14.4937C32.857 15.9585 33.1866 17.1385 33.8458 18.0337C34.505 18.9289 35.3269 19.3765 36.3116 19.3765C37.3289 19.3765 38.1264 19.0021 38.7042 18.2534C39.2901 17.5047 39.5831 16.5241 39.5831 15.3115C39.5831 14.0908 39.286 13.1061 38.692 12.3574C38.106 11.6006 37.3248 11.2222 36.3482 11.2222ZM46.0257 21V3.22656H51.8363C53.765 3.22656 55.2136 3.62533 56.182 4.42285C57.1586 5.22038 57.6468 6.40039 57.6468 7.96289C57.6468 8.79297 57.4108 9.52946 56.9388 10.1724C56.4668 10.8071 55.8239 11.2995 55.0101 11.6494C55.9704 11.918 56.7272 12.4307 57.2806 13.1875C57.8422 13.9362 58.1229 14.8314 58.1229 15.873C58.1229 17.4681 57.6061 18.7214 56.5726 19.6328C55.5391 20.5443 54.0783 21 52.1903 21H46.0257ZM48.3695 12.687V19.0835H52.2391C53.3296 19.0835 54.1882 18.8027 54.8148 18.2412C55.4496 17.6715 55.767 16.8903 55.767 15.8975C55.767 13.7572 54.6032 12.687 52.2757 12.687H48.3695ZM48.3695 10.8071H51.9095C52.9349 10.8071 53.7528 10.5508 54.3631 10.0381C54.9816 9.52539 55.2909 8.82959 55.2909 7.95068C55.2909 6.97412 55.0061 6.26611 54.4364 5.82666C53.8667 5.37907 53 5.15527 51.8363 5.15527H48.3695V10.8071ZM68.6671 11.4663H73.6232V13.6025H68.6671V19.2178H66.3966V13.6025H61.4406V11.4663H66.3966V6.27832H68.6671V11.4663Z" fill="#230B59"/>
</g>
<defs>
<clipPath id="clip0_0_1">
<rect width="1440" height="5657" fill="white" transform="translate(-850 -707)"/>
</clipPath>
</defs>
</svg>
