<svg width="128" height="11" viewBox="0 0 128 11" fill="none" xmlns="http://www.w3.org/2000/svg">
<path d="M-0.00976562 9V0.46875H2.7793C3.70508 0.46875 4.40039 0.660156 4.86523 1.04297C5.33398 1.42578 5.56836 1.99219 5.56836 2.74219C5.56836 3.14062 5.45508 3.49414 5.22852 3.80273C5.00195 4.10742 4.69336 4.34375 4.30273 4.51172C4.76367 4.64062 5.12695 4.88672 5.39258 5.25C5.66211 5.60938 5.79688 6.03906 5.79688 6.53906C5.79688 7.30469 5.54883 7.90625 5.05273 8.34375C4.55664 8.78125 3.85547 9 2.94922 9H-0.00976562ZM1.11523 5.00977V8.08008H2.97266C3.49609 8.08008 3.9082 7.94531 4.20898 7.67578C4.51367 7.40234 4.66602 7.02734 4.66602 6.55078C4.66602 5.52344 4.10742 5.00977 2.99023 5.00977H1.11523ZM1.11523 4.10742H2.81445C3.30664 4.10742 3.69922 3.98438 3.99219 3.73828C4.28906 3.49219 4.4375 3.1582 4.4375 2.73633C4.4375 2.26758 4.30078 1.92773 4.02734 1.7168C3.75391 1.50195 3.33789 1.39453 2.7793 1.39453H1.11523V4.10742ZM9.92773 9.11719C9.06836 9.11719 8.36914 8.83594 7.83008 8.27344C7.29102 7.70703 7.02148 6.95117 7.02148 6.00586V5.80664C7.02148 5.17773 7.14062 4.61719 7.37891 4.125C7.62109 3.62891 7.95703 3.24219 8.38672 2.96484C8.82031 2.68359 9.28906 2.54297 9.79297 2.54297C10.6172 2.54297 11.2578 2.81445 11.7148 3.35742C12.1719 3.90039 12.4004 4.67773 12.4004 5.68945V6.14062H8.10547C8.12109 6.76562 8.30273 7.27148 8.65039 7.6582C9.00195 8.04102 9.44727 8.23242 9.98633 8.23242C10.3691 8.23242 10.6934 8.1543 10.959 7.99805C11.2246 7.8418 11.457 7.63477 11.6562 7.37695L12.3184 7.89258C11.7871 8.70898 10.9902 9.11719 9.92773 9.11719ZM9.79297 3.43359C9.35547 3.43359 8.98828 3.59375 8.69141 3.91406C8.39453 4.23047 8.21094 4.67578 8.14062 5.25H11.3164V5.16797C11.2852 4.61719 11.1367 4.19141 10.8711 3.89062C10.6055 3.58594 10.2461 3.43359 9.79297 3.43359ZM17.3516 7.31836C17.3516 7.02539 17.2402 6.79883 17.0176 6.63867C16.7988 6.47461 16.4141 6.33398 15.8633 6.2168C15.3164 6.09961 14.8809 5.95898 14.5566 5.79492C14.2363 5.63086 13.998 5.43555 13.8418 5.20898C13.6895 4.98242 13.6133 4.71289 13.6133 4.40039C13.6133 3.88086 13.832 3.44141 14.2695 3.08203C14.7109 2.72266 15.2734 2.54297 15.957 2.54297C16.6758 2.54297 17.2578 2.72852 17.7031 3.09961C18.1523 3.4707 18.377 3.94531 18.377 4.52344H17.2871C17.2871 4.22656 17.1602 3.9707 16.9062 3.75586C16.6562 3.54102 16.3398 3.43359 15.957 3.43359C15.5625 3.43359 15.2539 3.51953 15.0312 3.69141C14.8086 3.86328 14.6973 4.08789 14.6973 4.36523C14.6973 4.62695 14.8008 4.82422 15.0078 4.95703C15.2148 5.08984 15.5879 5.2168 16.127 5.33789C16.6699 5.45898 17.1094 5.60352 17.4453 5.77148C17.7812 5.93945 18.0293 6.14258 18.1895 6.38086C18.3535 6.61523 18.4355 6.90234 18.4355 7.24219C18.4355 7.80859 18.209 8.26367 17.7559 8.60742C17.3027 8.94727 16.7148 9.11719 15.9922 9.11719C15.4844 9.11719 15.0352 9.02734 14.6445 8.84766C14.2539 8.66797 13.9473 8.41797 13.7246 8.09766C13.5059 7.77344 13.3965 7.42383 13.3965 7.04883H14.4805C14.5 7.41211 14.6445 7.70117 14.9141 7.91602C15.1875 8.12695 15.5469 8.23242 15.9922 8.23242C16.4023 8.23242 16.7305 8.15039 16.9766 7.98633C17.2266 7.81836 17.3516 7.5957 17.3516 7.31836ZM21.3184 1.125V2.66016H22.502V3.49805H21.3184V7.42969C21.3184 7.68359 21.3711 7.875 21.4766 8.00391C21.582 8.12891 21.7617 8.19141 22.0156 8.19141C22.1406 8.19141 22.3125 8.16797 22.5312 8.12109V9C22.2461 9.07812 21.9688 9.11719 21.6992 9.11719C21.2148 9.11719 20.8496 8.9707 20.6035 8.67773C20.3574 8.38477 20.2344 7.96875 20.2344 7.42969V3.49805H19.0801V2.66016H20.2344V1.125H21.3184ZM30.0488 5.54883H28.0449V9H26.9141V0.46875H29.7383C30.6992 0.46875 31.4375 0.6875 31.9531 1.125C32.4727 1.5625 32.7324 2.19922 32.7324 3.03516C32.7324 3.56641 32.5879 4.0293 32.2988 4.42383C32.0137 4.81836 31.6152 5.11328 31.1035 5.30859L33.1074 8.92969V9H31.9004L30.0488 5.54883ZM28.0449 4.62891H29.7734C30.332 4.62891 30.7754 4.48438 31.1035 4.19531C31.4355 3.90625 31.6016 3.51953 31.6016 3.03516C31.6016 2.50781 31.4434 2.10352 31.127 1.82227C30.8145 1.54102 30.3613 1.39844 29.7676 1.39453H28.0449V4.62891ZM33.8574 5.77148C33.8574 5.15039 33.9785 4.5918 34.2207 4.0957C34.4668 3.59961 34.8066 3.2168 35.2402 2.94727C35.6777 2.67773 36.1758 2.54297 36.7344 2.54297C37.5977 2.54297 38.2949 2.8418 38.8262 3.43945C39.3613 4.03711 39.6289 4.83203 39.6289 5.82422V5.90039C39.6289 6.51758 39.5098 7.07227 39.2715 7.56445C39.0371 8.05273 38.6992 8.43359 38.2578 8.70703C37.8203 8.98047 37.3164 9.11719 36.7461 9.11719C35.8867 9.11719 35.1895 8.81836 34.6543 8.2207C34.123 7.62305 33.8574 6.83203 33.8574 5.84766V5.77148ZM34.9473 5.90039C34.9473 6.60352 35.1094 7.16797 35.4336 7.59375C35.7617 8.01953 36.1992 8.23242 36.7461 8.23242C37.2969 8.23242 37.7344 8.01758 38.0586 7.58789C38.3828 7.1543 38.5449 6.54883 38.5449 5.77148C38.5449 5.07617 38.3789 4.51367 38.0469 4.08398C37.7188 3.65039 37.2812 3.43359 36.7344 3.43359C36.1992 3.43359 35.7676 3.64648 35.4395 4.07227C35.1113 4.49805 34.9473 5.10742 34.9473 5.90039ZM46.3555 5.90039C46.3555 6.86914 46.1328 7.64844 45.6875 8.23828C45.2422 8.82422 44.6445 9.11719 43.8945 9.11719C43.0938 9.11719 42.4746 8.83398 42.0371 8.26758L41.9844 9H40.9883V0H42.0723V3.35742C42.5098 2.81445 43.1133 2.54297 43.8828 2.54297C44.6523 2.54297 45.2559 2.83398 45.6934 3.41602C46.1348 3.99805 46.3555 4.79492 46.3555 5.80664V5.90039ZM45.2715 5.77734C45.2715 5.03906 45.1289 4.46875 44.8438 4.06641C44.5586 3.66406 44.1484 3.46289 43.6133 3.46289C42.8984 3.46289 42.3848 3.79492 42.0723 4.45898V7.20117C42.4043 7.86523 42.9219 8.19727 43.625 8.19727C44.1445 8.19727 44.5488 7.99609 44.8379 7.59375C45.127 7.19141 45.2715 6.58594 45.2715 5.77734ZM47.4395 5.77148C47.4395 5.15039 47.5605 4.5918 47.8027 4.0957C48.0488 3.59961 48.3887 3.2168 48.8223 2.94727C49.2598 2.67773 49.7578 2.54297 50.3164 2.54297C51.1797 2.54297 51.877 2.8418 52.4082 3.43945C52.9434 4.03711 53.2109 4.83203 53.2109 5.82422V5.90039C53.2109 6.51758 53.0918 7.07227 52.8535 7.56445C52.6191 8.05273 52.2812 8.43359 51.8398 8.70703C51.4023 8.98047 50.8984 9.11719 50.3281 9.11719C49.4688 9.11719 48.7715 8.81836 48.2363 8.2207C47.7051 7.62305 47.4395 6.83203 47.4395 5.84766V5.77148ZM48.5293 5.90039C48.5293 6.60352 48.6914 7.16797 49.0156 7.59375C49.3438 8.01953 49.7812 8.23242 50.3281 8.23242C50.8789 8.23242 51.3164 8.01758 51.6406 7.58789C51.9648 7.1543 52.127 6.54883 52.127 5.77148C52.127 5.07617 51.9609 4.51367 51.6289 4.08398C51.3008 3.65039 50.8633 3.43359 50.3164 3.43359C49.7812 3.43359 49.3496 3.64648 49.0215 4.07227C48.6934 4.49805 48.5293 5.10742 48.5293 5.90039ZM56.8262 5.81836H53.9668V4.93359H56.8262V5.81836ZM61.8008 9C61.7383 8.875 61.6875 8.65234 61.6484 8.33203C61.1445 8.85547 60.543 9.11719 59.8438 9.11719C59.2188 9.11719 58.7051 8.94141 58.3027 8.58984C57.9043 8.23438 57.7051 7.78516 57.7051 7.24219C57.7051 6.58203 57.9551 6.07031 58.4551 5.70703C58.959 5.33984 59.666 5.15625 60.5762 5.15625H61.6309V4.6582C61.6309 4.2793 61.5176 3.97852 61.291 3.75586C61.0645 3.5293 60.7305 3.41602 60.2891 3.41602C59.9023 3.41602 59.5781 3.51367 59.3164 3.70898C59.0547 3.9043 58.9238 4.14062 58.9238 4.41797H57.834C57.834 4.10156 57.9453 3.79688 58.168 3.50391C58.3945 3.20703 58.6992 2.97266 59.082 2.80078C59.4688 2.62891 59.8926 2.54297 60.3535 2.54297C61.084 2.54297 61.6562 2.72656 62.0703 3.09375C62.4844 3.45703 62.6992 3.95898 62.7148 4.59961V7.51758C62.7148 8.09961 62.7891 8.5625 62.9375 8.90625V9H61.8008ZM60.002 8.17383C60.3418 8.17383 60.6641 8.08594 60.9688 7.91016C61.2734 7.73438 61.4941 7.50586 61.6309 7.22461V5.92383H60.7812C59.4531 5.92383 58.7891 6.3125 58.7891 7.08984C58.7891 7.42969 58.9023 7.69531 59.1289 7.88672C59.3555 8.07812 59.6465 8.17383 60.002 8.17383ZM64.1504 5.77734C64.1504 4.80469 64.3809 4.02344 64.8418 3.43359C65.3027 2.83984 65.9062 2.54297 66.6523 2.54297C67.3945 2.54297 67.9824 2.79688 68.416 3.30469V0H69.5V9H68.5039L68.4512 8.32031C68.0176 8.85156 67.4141 9.11719 66.6406 9.11719C65.9062 9.11719 65.3066 8.81641 64.8418 8.21484C64.3809 7.61328 64.1504 6.82812 64.1504 5.85938V5.77734ZM65.2344 5.90039C65.2344 6.61914 65.3828 7.18164 65.6797 7.58789C65.9766 7.99414 66.3867 8.19727 66.9102 8.19727C67.5977 8.19727 68.0996 7.88867 68.416 7.27148V4.35938C68.0918 3.76172 67.5938 3.46289 66.9219 3.46289C66.3906 3.46289 65.9766 3.66797 65.6797 4.07812C65.3828 4.48828 65.2344 5.0957 65.2344 5.90039ZM73.2793 7.5293L74.8496 2.66016H75.957L73.6836 9H72.8574L70.5605 2.66016H71.668L73.2793 7.5293ZM78.1777 9H77.0938V2.66016H78.1777V9ZM77.0059 0.978516C77.0059 0.802734 77.0586 0.654297 77.1641 0.533203C77.2734 0.412109 77.4336 0.351562 77.6445 0.351562C77.8555 0.351562 78.0156 0.412109 78.125 0.533203C78.2344 0.654297 78.2891 0.802734 78.2891 0.978516C78.2891 1.1543 78.2344 1.30078 78.125 1.41797C78.0156 1.53516 77.8555 1.59375 77.6445 1.59375C77.4336 1.59375 77.2734 1.53516 77.1641 1.41797C77.0586 1.30078 77.0059 1.1543 77.0059 0.978516ZM83.6094 7.31836C83.6094 7.02539 83.498 6.79883 83.2754 6.63867C83.0566 6.47461 82.6719 6.33398 82.1211 6.2168C81.5742 6.09961 81.1387 5.95898 80.8145 5.79492C80.4941 5.63086 80.2559 5.43555 80.0996 5.20898C79.9473 4.98242 79.8711 4.71289 79.8711 4.40039C79.8711 3.88086 80.0898 3.44141 80.5273 3.08203C80.9688 2.72266 81.5312 2.54297 82.2148 2.54297C82.9336 2.54297 83.5156 2.72852 83.9609 3.09961C84.4102 3.4707 84.6348 3.94531 84.6348 4.52344H83.5449C83.5449 4.22656 83.418 3.9707 83.1641 3.75586C82.9141 3.54102 82.5977 3.43359 82.2148 3.43359C81.8203 3.43359 81.5117 3.51953 81.2891 3.69141C81.0664 3.86328 80.9551 4.08789 80.9551 4.36523C80.9551 4.62695 81.0586 4.82422 81.2656 4.95703C81.4727 5.08984 81.8457 5.2168 82.3848 5.33789C82.9277 5.45898 83.3672 5.60352 83.7031 5.77148C84.0391 5.93945 84.2871 6.14258 84.4473 6.38086C84.6113 6.61523 84.6934 6.90234 84.6934 7.24219C84.6934 7.80859 84.4668 8.26367 84.0137 8.60742C83.5605 8.94727 82.9727 9.11719 82.25 9.11719C81.7422 9.11719 81.293 9.02734 80.9023 8.84766C80.5117 8.66797 80.2051 8.41797 79.9824 8.09766C79.7637 7.77344 79.6543 7.42383 79.6543 7.04883H80.7383C80.7578 7.41211 80.9023 7.70117 81.1719 7.91602C81.4453 8.12695 81.8047 8.23242 82.25 8.23242C82.6602 8.23242 82.9883 8.15039 83.2344 7.98633C83.4844 7.81836 83.6094 7.5957 83.6094 7.31836ZM85.8184 5.77148C85.8184 5.15039 85.9395 4.5918 86.1816 4.0957C86.4277 3.59961 86.7676 3.2168 87.2012 2.94727C87.6387 2.67773 88.1367 2.54297 88.6953 2.54297C89.5586 2.54297 90.2559 2.8418 90.7871 3.43945C91.3223 4.03711 91.5898 4.83203 91.5898 5.82422V5.90039C91.5898 6.51758 91.4707 7.07227 91.2324 7.56445C90.998 8.05273 90.6602 8.43359 90.2188 8.70703C89.7812 8.98047 89.2773 9.11719 88.707 9.11719C87.8477 9.11719 87.1504 8.81836 86.6152 8.2207C86.084 7.62305 85.8184 6.83203 85.8184 5.84766V5.77148ZM86.9082 5.90039C86.9082 6.60352 87.0703 7.16797 87.3945 7.59375C87.7227 8.01953 88.1602 8.23242 88.707 8.23242C89.2578 8.23242 89.6953 8.01758 90.0195 7.58789C90.3438 7.1543 90.5059 6.54883 90.5059 5.77148C90.5059 5.07617 90.3398 4.51367 90.0078 4.08398C89.6797 3.65039 89.2422 3.43359 88.6953 3.43359C88.1602 3.43359 87.7285 3.64648 87.4004 4.07227C87.0723 4.49805 86.9082 5.10742 86.9082 5.90039ZM96.0137 3.63281C95.8496 3.60547 95.6719 3.5918 95.4805 3.5918C94.7695 3.5918 94.2871 3.89453 94.0332 4.5V9H92.9492V2.66016H94.0039L94.0215 3.39258C94.377 2.82617 94.8809 2.54297 95.5332 2.54297C95.7441 2.54297 95.9043 2.57031 96.0137 2.625V3.63281ZM96.2539 10.6992L95.6387 10.2773C96.0059 9.76562 96.1973 9.23828 96.2129 8.69531V7.7168H97.2734V8.56641C97.2734 8.96094 97.1758 9.35547 96.9805 9.75C96.7891 10.1445 96.5469 10.4609 96.2539 10.6992ZM107.1 9H101.51V8.2207L104.463 4.93945C104.9 4.44336 105.201 4.04102 105.365 3.73242C105.533 3.41992 105.617 3.09766 105.617 2.76562C105.617 2.32031 105.482 1.95508 105.213 1.66992C104.943 1.38477 104.584 1.24219 104.135 1.24219C103.596 1.24219 103.176 1.39648 102.875 1.70508C102.578 2.00977 102.43 2.43555 102.43 2.98242H101.346C101.346 2.19727 101.598 1.5625 102.102 1.07812C102.609 0.59375 103.287 0.351562 104.135 0.351562C104.928 0.351562 105.555 0.560547 106.016 0.978516C106.477 1.39258 106.707 1.94531 106.707 2.63672C106.707 3.47656 106.172 4.47656 105.102 5.63672L102.816 8.11523H107.1V9ZM113.598 5.36133C113.598 6.63086 113.381 7.57422 112.947 8.19141C112.514 8.80859 111.836 9.11719 110.914 9.11719C110.004 9.11719 109.33 8.81641 108.893 8.21484C108.455 7.60938 108.229 6.70703 108.213 5.50781V4.06055C108.213 2.80664 108.43 1.875 108.863 1.26562C109.297 0.65625 109.977 0.351562 110.902 0.351562C111.82 0.351562 112.496 0.646484 112.93 1.23633C113.363 1.82227 113.586 2.72852 113.598 3.95508V5.36133ZM112.514 3.87891C112.514 2.96094 112.385 2.29297 112.127 1.875C111.869 1.45312 111.461 1.24219 110.902 1.24219C110.348 1.24219 109.943 1.45117 109.689 1.86914C109.436 2.28711 109.305 2.92969 109.297 3.79688V5.53125C109.297 6.45312 109.43 7.13477 109.695 7.57617C109.965 8.01367 110.371 8.23242 110.914 8.23242C111.449 8.23242 111.846 8.02539 112.104 7.61133C112.365 7.19727 112.502 6.54492 112.514 5.6543V3.87891ZM120.576 9H114.986V8.2207L117.939 4.93945C118.377 4.44336 118.678 4.04102 118.842 3.73242C119.01 3.41992 119.094 3.09766 119.094 2.76562C119.094 2.32031 118.959 1.95508 118.689 1.66992C118.42 1.38477 118.061 1.24219 117.611 1.24219C117.072 1.24219 116.652 1.39648 116.352 1.70508C116.055 2.00977 115.906 2.43555 115.906 2.98242H114.822C114.822 2.19727 115.074 1.5625 115.578 1.07812C116.086 0.59375 116.764 0.351562 117.611 0.351562C118.404 0.351562 119.031 0.560547 119.492 0.978516C119.953 1.39258 120.184 1.94531 120.184 2.63672C120.184 3.47656 119.648 4.47656 118.578 5.63672L116.293 8.11523H120.576V9ZM127.074 5.36133C127.074 6.63086 126.857 7.57422 126.424 8.19141C125.99 8.80859 125.312 9.11719 124.391 9.11719C123.48 9.11719 122.807 8.81641 122.369 8.21484C121.932 7.60938 121.705 6.70703 121.689 5.50781V4.06055C121.689 2.80664 121.906 1.875 122.34 1.26562C122.773 0.65625 123.453 0.351562 124.379 0.351562C125.297 0.351562 125.973 0.646484 126.406 1.23633C126.84 1.82227 127.062 2.72852 127.074 3.95508V5.36133ZM125.99 3.87891C125.99 2.96094 125.861 2.29297 125.604 1.875C125.346 1.45312 124.938 1.24219 124.379 1.24219C123.824 1.24219 123.42 1.45117 123.166 1.86914C122.912 2.28711 122.781 2.92969 122.773 3.79688V5.53125C122.773 6.45312 122.906 7.13477 123.172 7.57617C123.441 8.01367 123.848 8.23242 124.391 8.23242C124.926 8.23242 125.322 8.02539 125.58 7.61133C125.842 7.19727 125.979 6.54492 125.99 5.6543V3.87891Z" fill="#230B59"/>
</svg>
