<svg width="240" height="97" viewBox="0 0 240 97" fill="none" xmlns="http://www.w3.org/2000/svg">
<path d="M0 12C0 5.37258 5.37258 0 12 0H228C234.627 0 240 5.37258 240 12V85C240 91.6274 234.627 97 228 97H12C5.37259 97 0 91.6274 0 85V12Z" fill="white" fill-opacity="0.85"/>
<path d="M16.2451 49.9658L16.4912 51.6533L16.8516 50.1328L19.3828 41.2031H20.8066L23.2764 50.1328L23.6279 51.6797L23.9004 49.957L25.8867 41.2031H27.583L24.4805 54H22.9424L20.3057 44.6748L20.1035 43.6992L19.9014 44.6748L17.168 54H15.6299L12.5361 41.2031H14.2236L16.2451 49.9658ZM32.874 54.1758C31.585 54.1758 30.5361 53.7539 29.7275 52.9102C28.9189 52.0605 28.5146 50.9268 28.5146 49.5088V49.21C28.5146 48.2666 28.6934 47.4258 29.0508 46.6875C29.4141 45.9434 29.918 45.3633 30.5625 44.9473C31.2129 44.5254 31.916 44.3145 32.6719 44.3145C33.9082 44.3145 34.8691 44.7217 35.5547 45.5361C36.2402 46.3506 36.583 47.5166 36.583 49.0342V49.7109H30.1406C30.1641 50.6484 30.4365 51.4072 30.958 51.9873C31.4854 52.5615 32.1533 52.8486 32.9619 52.8486C33.5361 52.8486 34.0225 52.7314 34.4209 52.4971C34.8193 52.2627 35.168 51.9521 35.4668 51.5654L36.46 52.3389C35.6631 53.5635 34.4678 54.1758 32.874 54.1758ZM32.6719 45.6504C32.0156 45.6504 31.4648 45.8906 31.0195 46.3711C30.5742 46.8457 30.2988 47.5137 30.1934 48.375H34.957V48.252C34.9102 47.4258 34.6875 46.7871 34.2891 46.3359C33.8906 45.8789 33.3516 45.6504 32.6719 45.6504ZM48.4746 51.4775C48.4746 51.0381 48.3076 50.6982 47.9736 50.458C47.6455 50.2119 47.0684 50.001 46.2422 49.8252C45.4219 49.6494 44.7686 49.4385 44.2822 49.1924C43.8018 48.9463 43.4443 48.6533 43.21 48.3135C42.9814 47.9736 42.8672 47.5693 42.8672 47.1006C42.8672 46.3213 43.1953 45.6621 43.8516 45.123C44.5137 44.584 45.3574 44.3145 46.3828 44.3145C47.4609 44.3145 48.334 44.5928 49.002 45.1494C49.6758 45.7061 50.0127 46.418 50.0127 47.2852H48.3779C48.3779 46.8398 48.1875 46.4561 47.8066 46.1338C47.4316 45.8115 46.957 45.6504 46.3828 45.6504C45.791 45.6504 45.3281 45.7793 44.9941 46.0371C44.6602 46.2949 44.4932 46.6318 44.4932 47.0479C44.4932 47.4404 44.6484 47.7363 44.959 47.9355C45.2695 48.1348 45.8291 48.3252 46.6377 48.5068C47.4521 48.6885 48.1113 48.9053 48.6152 49.1572C49.1191 49.4092 49.4912 49.7139 49.7314 50.0713C49.9775 50.4229 50.1006 50.8535 50.1006 51.3633C50.1006 52.2129 49.7607 52.8955 49.0811 53.4111C48.4014 53.9209 47.5195 54.1758 46.4355 54.1758C45.6738 54.1758 45 54.041 44.4141 53.7715C43.8281 53.502 43.3682 53.127 43.0342 52.6465C42.7061 52.1602 42.542 51.6357 42.542 51.0732H44.168C44.1973 51.6182 44.4141 52.0518 44.8184 52.374C45.2285 52.6904 45.7676 52.8486 46.4355 52.8486C47.0508 52.8486 47.543 52.7256 47.9121 52.4795C48.2871 52.2275 48.4746 51.8936 48.4746 51.4775ZM58.0898 54C57.9961 53.8125 57.9199 53.4785 57.8613 52.998C57.1055 53.7832 56.2031 54.1758 55.1543 54.1758C54.2168 54.1758 53.4463 53.9121 52.8428 53.3848C52.2451 52.8516 51.9463 52.1777 51.9463 51.3633C51.9463 50.373 52.3213 49.6055 53.0713 49.0605C53.8271 48.5098 54.8877 48.2344 56.2529 48.2344H57.835V47.4873C57.835 46.9189 57.665 46.4678 57.3252 46.1338C56.9854 45.7939 56.4844 45.624 55.8223 45.624C55.2422 45.624 54.7559 45.7705 54.3633 46.0635C53.9707 46.3564 53.7744 46.7109 53.7744 47.127H52.1396C52.1396 46.6523 52.3066 46.1953 52.6406 45.7559C52.9805 45.3105 53.4375 44.959 54.0117 44.7012C54.5918 44.4434 55.2275 44.3145 55.9189 44.3145C57.0146 44.3145 57.873 44.5898 58.4941 45.1406C59.1152 45.6855 59.4375 46.4385 59.4609 47.3994V51.7764C59.4609 52.6494 59.5723 53.3438 59.7949 53.8594V54H58.0898ZM55.3916 52.7607C55.9014 52.7607 56.3848 52.6289 56.8418 52.3652C57.2988 52.1016 57.6299 51.7588 57.835 51.3369V49.3857H56.5605C54.5684 49.3857 53.5723 49.9688 53.5723 51.1348C53.5723 51.6445 53.7422 52.043 54.082 52.3301C54.4219 52.6172 54.8584 52.7607 55.3916 52.7607ZM65.0068 51.7939L67.3623 44.4902H69.0234L65.6133 54H64.374L60.9287 44.4902H62.5898L65.0068 51.7939ZM74.4111 54.1758C73.1221 54.1758 72.0732 53.7539 71.2646 52.9102C70.4561 52.0605 70.0518 50.9268 70.0518 49.5088V49.21C70.0518 48.2666 70.2305 47.4258 70.5879 46.6875C70.9512 45.9434 71.4551 45.3633 72.0996 44.9473C72.75 44.5254 73.4531 44.3145 74.209 44.3145C75.4453 44.3145 76.4062 44.7217 77.0918 45.5361C77.7773 46.3506 78.1201 47.5166 78.1201 49.0342V49.7109H71.6777C71.7012 50.6484 71.9736 51.4072 72.4951 51.9873C73.0225 52.5615 73.6904 52.8486 74.499 52.8486C75.0732 52.8486 75.5596 52.7314 75.958 52.4971C76.3564 52.2627 76.7051 51.9521 77.0039 51.5654L77.9971 52.3389C77.2002 53.5635 76.0049 54.1758 74.4111 54.1758ZM74.209 45.6504C73.5527 45.6504 73.002 45.8906 72.5566 46.3711C72.1113 46.8457 71.8359 47.5137 71.7305 48.375H76.4941V48.252C76.4473 47.4258 76.2246 46.7871 75.8262 46.3359C75.4277 45.8789 74.8887 45.6504 74.209 45.6504ZM79.6143 49.166C79.6143 47.707 79.96 46.5352 80.6514 45.6504C81.3428 44.7598 82.248 44.3145 83.3672 44.3145C84.4805 44.3145 85.3623 44.6953 86.0127 45.457V40.5H87.6387V54H86.1445L86.0654 52.9805C85.415 53.7773 84.5098 54.1758 83.3496 54.1758C82.248 54.1758 81.3486 53.7246 80.6514 52.8223C79.96 51.9199 79.6143 50.7422 79.6143 49.2891V49.166ZM81.2402 49.3506C81.2402 50.4287 81.4629 51.2725 81.9082 51.8818C82.3535 52.4912 82.9688 52.7959 83.7539 52.7959C84.7852 52.7959 85.5381 52.333 86.0127 51.4072V47.0391C85.5264 46.1426 84.7793 45.6943 83.7715 45.6943C82.9746 45.6943 82.3535 46.002 81.9082 46.6172C81.4629 47.2324 81.2402 48.1436 81.2402 49.3506ZM97.7461 51.6182L99.9609 44.4902H101.701L97.8779 55.4678C97.2861 57.0498 96.3457 57.8408 95.0566 57.8408L94.749 57.8145L94.1426 57.7002V56.3818L94.582 56.417C95.1328 56.417 95.5605 56.3057 95.8652 56.083C96.1758 55.8604 96.4307 55.4531 96.6299 54.8613L96.9902 53.8945L93.5977 44.4902H95.373L97.7461 51.6182ZM102.589 49.1572C102.589 48.2256 102.771 47.3877 103.134 46.6436C103.503 45.8994 104.013 45.3252 104.663 44.9209C105.319 44.5166 106.066 44.3145 106.904 44.3145C108.199 44.3145 109.245 44.7627 110.042 45.6592C110.845 46.5557 111.246 47.748 111.246 49.2363V49.3506C111.246 50.2764 111.067 51.1084 110.71 51.8467C110.358 52.5791 109.852 53.1504 109.189 53.5605C108.533 53.9707 107.777 54.1758 106.922 54.1758C105.633 54.1758 104.587 53.7275 103.784 52.8311C102.987 51.9346 102.589 50.748 102.589 49.2715V49.1572ZM104.224 49.3506C104.224 50.4053 104.467 51.252 104.953 51.8906C105.445 52.5293 106.102 52.8486 106.922 52.8486C107.748 52.8486 108.404 52.5264 108.891 51.8818C109.377 51.2314 109.62 50.3232 109.62 49.1572C109.62 48.1143 109.371 47.2705 108.873 46.626C108.381 45.9756 107.725 45.6504 106.904 45.6504C106.102 45.6504 105.454 45.9697 104.962 46.6084C104.47 47.2471 104.224 48.1611 104.224 49.3506ZM119.156 53.0596C118.523 53.8037 117.595 54.1758 116.37 54.1758C115.356 54.1758 114.583 53.8828 114.05 53.2969C113.522 52.7051 113.256 51.832 113.25 50.6777V44.4902H114.876V50.6338C114.876 52.0752 115.462 52.7959 116.634 52.7959C117.876 52.7959 118.702 52.333 119.112 51.4072V44.4902H120.738V54H119.191L119.156 53.0596ZM133.975 50.7041C133.975 50.165 133.784 49.7109 133.403 49.3418C133.028 48.9727 132.393 48.6387 131.496 48.3398C130.248 47.959 129.337 47.4639 128.763 46.8545C128.194 46.2393 127.91 45.46 127.91 44.5166C127.91 43.5557 128.188 42.7676 128.745 42.1523C129.308 41.5371 130.078 41.1709 131.057 41.0537V39.1289H132.366V41.0625C133.351 41.1973 134.115 41.6104 134.66 42.3018C135.211 42.9932 135.486 43.9395 135.486 45.1406H133.869C133.869 44.3145 133.673 43.6582 133.28 43.1719C132.888 42.6855 132.357 42.4424 131.689 42.4424C130.992 42.4424 130.459 42.624 130.09 42.9873C129.721 43.3447 129.536 43.8457 129.536 44.4902C129.536 45.0879 129.729 45.5654 130.116 45.9229C130.509 46.2744 131.15 46.5967 132.041 46.8896C132.938 47.1768 133.635 47.4961 134.133 47.8477C134.637 48.1934 135.006 48.5977 135.24 49.0605C135.48 49.5234 135.601 50.0654 135.601 50.6865C135.601 51.6768 135.302 52.4736 134.704 53.0771C134.112 53.6807 133.28 54.0381 132.208 54.1494V55.8281H130.907V54.1494C129.817 54.0498 128.962 53.6631 128.341 52.9893C127.726 52.3096 127.418 51.3896 127.418 50.2295H129.044C129.044 51.0439 129.258 51.6709 129.686 52.1104C130.113 52.5498 130.72 52.7695 131.505 52.7695C132.272 52.7695 132.876 52.585 133.315 52.2158C133.755 51.8467 133.975 51.3428 133.975 50.7041ZM145.884 42.1172L140.584 54H138.879L144.161 42.5391H137.235V41.2031H145.884V42.1172ZM155.49 44.543C155.49 45.1816 155.32 45.75 154.98 46.248C154.646 46.7461 154.192 47.1357 153.618 47.417C154.286 47.7041 154.813 48.123 155.2 48.6738C155.593 49.2246 155.789 49.8486 155.789 50.5459C155.789 51.6533 155.414 52.5352 154.664 53.1914C153.92 53.8477 152.938 54.1758 151.72 54.1758C150.489 54.1758 149.502 53.8477 148.758 53.1914C148.02 52.5293 147.65 51.6475 147.65 50.5459C147.65 49.8545 147.838 49.2305 148.213 48.6738C148.594 48.1172 149.118 47.6953 149.786 47.4082C149.218 47.127 148.77 46.7373 148.441 46.2393C148.113 45.7412 147.949 45.1758 147.949 44.543C147.949 43.4648 148.295 42.6094 148.986 41.9766C149.678 41.3438 150.589 41.0273 151.72 41.0273C152.845 41.0273 153.753 41.3438 154.444 41.9766C155.142 42.6094 155.49 43.4648 155.49 44.543ZM154.163 50.5107C154.163 49.7959 153.935 49.2129 153.478 48.7617C153.026 48.3105 152.435 48.085 151.702 48.085C150.97 48.085 150.381 48.3076 149.936 48.7529C149.496 49.1982 149.276 49.7842 149.276 50.5107C149.276 51.2373 149.49 51.8086 149.918 52.2246C150.352 52.6406 150.952 52.8486 151.72 52.8486C152.481 52.8486 153.079 52.6406 153.513 52.2246C153.946 51.8027 154.163 51.2314 154.163 50.5107ZM151.72 42.3633C151.081 42.3633 150.562 42.5625 150.164 42.9609C149.771 43.3535 149.575 43.8896 149.575 44.5693C149.575 45.2197 149.769 45.7471 150.155 46.1514C150.548 46.5498 151.069 46.749 151.72 46.749C152.37 46.749 152.889 46.5498 153.275 46.1514C153.668 45.7471 153.864 45.2197 153.864 44.5693C153.864 43.9189 153.662 43.3887 153.258 42.9785C152.854 42.5684 152.341 42.3633 151.72 42.3633ZM158.039 53.1475C158.039 52.8662 158.121 52.6318 158.285 52.4443C158.455 52.2568 158.707 52.1631 159.041 52.1631C159.375 52.1631 159.627 52.2568 159.797 52.4443C159.973 52.6318 160.061 52.8662 160.061 53.1475C160.061 53.417 159.973 53.6426 159.797 53.8242C159.627 54.0059 159.375 54.0967 159.041 54.0967C158.707 54.0967 158.455 54.0059 158.285 53.8242C158.121 53.6426 158.039 53.417 158.039 53.1475ZM167.927 54H166.292V43.1631L163.014 44.3672V42.8906L167.672 41.1416H167.927V54ZM178.034 54H176.399V43.1631L173.121 44.3672V42.8906L177.779 41.1416H178.034V54ZM186.999 49.1572C186.999 48.2256 187.181 47.3877 187.544 46.6436C187.913 45.8994 188.423 45.3252 189.073 44.9209C189.729 44.5166 190.477 44.3145 191.314 44.3145C192.609 44.3145 193.655 44.7627 194.452 45.6592C195.255 46.5557 195.656 47.748 195.656 49.2363V49.3506C195.656 50.2764 195.478 51.1084 195.12 51.8467C194.769 52.5791 194.262 53.1504 193.6 53.5605C192.943 53.9707 192.188 54.1758 191.332 54.1758C190.043 54.1758 188.997 53.7275 188.194 52.8311C187.397 51.9346 186.999 50.748 186.999 49.2715V49.1572ZM188.634 49.3506C188.634 50.4053 188.877 51.252 189.363 51.8906C189.855 52.5293 190.512 52.8486 191.332 52.8486C192.158 52.8486 192.814 52.5264 193.301 51.8818C193.787 51.2314 194.03 50.3232 194.03 49.1572C194.03 48.1143 193.781 47.2705 193.283 46.626C192.791 45.9756 192.135 45.6504 191.314 45.6504C190.512 45.6504 189.864 45.9697 189.372 46.6084C188.88 47.2471 188.634 48.1611 188.634 49.3506ZM199.233 44.4902L199.286 45.6855C200.013 44.7715 200.962 44.3145 202.134 44.3145C204.144 44.3145 205.157 45.4482 205.175 47.7158V54H203.549V47.707C203.543 47.0215 203.385 46.5146 203.074 46.1865C202.77 45.8584 202.292 45.6943 201.642 45.6943C201.114 45.6943 200.651 45.835 200.253 46.1162C199.854 46.3975 199.544 46.7666 199.321 47.2236V54H197.695V44.4902H199.233ZM16.3418 69.6182L18.5566 62.4902H20.2969L16.4736 73.4678C15.8818 75.0498 14.9414 75.8408 13.6523 75.8408L13.3447 75.8145L12.7383 75.7002V74.3818L13.1777 74.417C13.7285 74.417 14.1562 74.3057 14.4609 74.083C14.7715 73.8604 15.0264 73.4531 15.2256 72.8613L15.5859 71.8945L12.1934 62.4902H13.9688L16.3418 69.6182ZM21.1846 67.1572C21.1846 66.2256 21.3662 65.3877 21.7295 64.6436C22.0986 63.8994 22.6084 63.3252 23.2588 62.9209C23.915 62.5166 24.6621 62.3145 25.5 62.3145C26.7949 62.3145 27.8408 62.7627 28.6377 63.6592C29.4404 64.5557 29.8418 65.748 29.8418 67.2363V67.3506C29.8418 68.2764 29.6631 69.1084 29.3057 69.8467C28.9541 70.5791 28.4473 71.1504 27.7852 71.5605C27.1289 71.9707 26.373 72.1758 25.5176 72.1758C24.2285 72.1758 23.1826 71.7275 22.3799 70.8311C21.583 69.9346 21.1846 68.748 21.1846 67.2715V67.1572ZM22.8193 67.3506C22.8193 68.4053 23.0625 69.252 23.5488 69.8906C24.041 70.5293 24.6973 70.8486 25.5176 70.8486C26.3438 70.8486 27 70.5264 27.4863 69.8818C27.9727 69.2314 28.2158 68.3232 28.2158 67.1572C28.2158 66.1143 27.9668 65.2705 27.4688 64.626C26.9766 63.9756 26.3203 63.6504 25.5 63.6504C24.6973 63.6504 24.0498 63.9697 23.5576 64.6084C23.0654 65.2471 22.8193 66.1611 22.8193 67.3506ZM37.752 71.0596C37.1191 71.8037 36.1904 72.1758 34.9658 72.1758C33.9521 72.1758 33.1787 71.8828 32.6455 71.2969C32.1182 70.7051 31.8516 69.832 31.8457 68.6777V62.4902H33.4717V68.6338C33.4717 70.0752 34.0576 70.7959 35.2295 70.7959C36.4717 70.7959 37.2979 70.333 37.708 69.4072V62.4902H39.334V72H37.7871L37.752 71.0596ZM46.4092 63.9492C46.1631 63.9082 45.8965 63.8877 45.6094 63.8877C44.543 63.8877 43.8193 64.3418 43.4385 65.25V72H41.8125V62.4902H43.3945L43.4209 63.5889C43.9541 62.7393 44.71 62.3145 45.6885 62.3145C46.0049 62.3145 46.2451 62.3555 46.4092 62.4375V63.9492ZM54.583 60.1875V62.4902H56.3584V63.7471H54.583V69.6445C54.583 70.0254 54.6621 70.3125 54.8203 70.5059C54.9785 70.6934 55.248 70.7871 55.6289 70.7871C55.8164 70.7871 56.0742 70.752 56.4023 70.6816V72C55.9746 72.1172 55.5586 72.1758 55.1543 72.1758C54.4277 72.1758 53.8799 71.9561 53.5107 71.5166C53.1416 71.0771 52.957 70.4531 52.957 69.6445V63.7471H51.2256V62.4902H52.957V60.1875H54.583ZM64.1367 72C64.043 71.8125 63.9668 71.4785 63.9082 70.998C63.1523 71.7832 62.25 72.1758 61.2012 72.1758C60.2637 72.1758 59.4932 71.9121 58.8896 71.3848C58.292 70.8516 57.9932 70.1777 57.9932 69.3633C57.9932 68.373 58.3682 67.6055 59.1182 67.0605C59.874 66.5098 60.9346 66.2344 62.2998 66.2344H63.8818V65.4873C63.8818 64.9189 63.7119 64.4678 63.3721 64.1338C63.0322 63.7939 62.5312 63.624 61.8691 63.624C61.2891 63.624 60.8027 63.7705 60.4102 64.0635C60.0176 64.3564 59.8213 64.7109 59.8213 65.127H58.1865C58.1865 64.6523 58.3535 64.1953 58.6875 63.7559C59.0273 63.3105 59.4844 62.959 60.0586 62.7012C60.6387 62.4434 61.2744 62.3145 61.9658 62.3145C63.0615 62.3145 63.9199 62.5898 64.541 63.1406C65.1621 63.6855 65.4844 64.4385 65.5078 65.3994V69.7764C65.5078 70.6494 65.6191 71.3438 65.8418 71.8594V72H64.1367ZM61.4385 70.7607C61.9482 70.7607 62.4316 70.6289 62.8887 70.3652C63.3457 70.1016 63.6768 69.7588 63.8818 69.3369V67.3857H62.6074C60.6152 67.3857 59.6191 67.9688 59.6191 69.1348C59.6191 69.6445 59.7891 70.043 60.1289 70.3301C60.4688 70.6172 60.9053 70.7607 61.4385 70.7607ZM71.2471 65.9619L73.3564 62.4902H75.2549L72.1436 67.1924L75.3516 72H73.4707L71.2734 68.4404L69.0762 72H67.1865L70.3945 67.1924L67.2832 62.4902H69.1641L71.2471 65.9619ZM80.7568 72.1758C79.4678 72.1758 78.4189 71.7539 77.6104 70.9102C76.8018 70.0605 76.3975 68.9268 76.3975 67.5088V67.21C76.3975 66.2666 76.5762 65.4258 76.9336 64.6875C77.2969 63.9434 77.8008 63.3633 78.4453 62.9473C79.0957 62.5254 79.7988 62.3145 80.5547 62.3145C81.791 62.3145 82.752 62.7217 83.4375 63.5361C84.123 64.3506 84.4658 65.5166 84.4658 67.0342V67.7109H78.0234C78.0469 68.6484 78.3193 69.4072 78.8408 69.9873C79.3682 70.5615 80.0361 70.8486 80.8447 70.8486C81.4189 70.8486 81.9053 70.7314 82.3037 70.4971C82.7021 70.2627 83.0508 69.9521 83.3496 69.5654L84.3428 70.3389C83.5459 71.5635 82.3506 72.1758 80.7568 72.1758ZM80.5547 63.6504C79.8984 63.6504 79.3477 63.8906 78.9023 64.3711C78.457 64.8457 78.1816 65.5137 78.0762 66.375H82.8398V66.252C82.793 65.4258 82.5703 64.7871 82.1719 64.3359C81.7734 63.8789 81.2344 63.6504 80.5547 63.6504ZM91.8926 69.4775C91.8926 69.0381 91.7256 68.6982 91.3916 68.458C91.0635 68.2119 90.4863 68.001 89.6602 67.8252C88.8398 67.6494 88.1865 67.4385 87.7002 67.1924C87.2197 66.9463 86.8623 66.6533 86.6279 66.3135C86.3994 65.9736 86.2852 65.5693 86.2852 65.1006C86.2852 64.3213 86.6133 63.6621 87.2695 63.123C87.9316 62.584 88.7754 62.3145 89.8008 62.3145C90.8789 62.3145 91.752 62.5928 92.4199 63.1494C93.0938 63.7061 93.4307 64.418 93.4307 65.2852H91.7959C91.7959 64.8398 91.6055 64.4561 91.2246 64.1338C90.8496 63.8115 90.375 63.6504 89.8008 63.6504C89.209 63.6504 88.7461 63.7793 88.4121 64.0371C88.0781 64.2949 87.9111 64.6318 87.9111 65.0479C87.9111 65.4404 88.0664 65.7363 88.377 65.9355C88.6875 66.1348 89.2471 66.3252 90.0557 66.5068C90.8701 66.6885 91.5293 66.9053 92.0332 67.1572C92.5371 67.4092 92.9092 67.7139 93.1494 68.0713C93.3955 68.4229 93.5186 68.8535 93.5186 69.3633C93.5186 70.2129 93.1787 70.8955 92.499 71.4111C91.8193 71.9209 90.9375 72.1758 89.8535 72.1758C89.0918 72.1758 88.418 72.041 87.832 71.7715C87.2461 71.502 86.7861 71.127 86.4521 70.6465C86.124 70.1602 85.96 69.6357 85.96 69.0732H87.5859C87.6152 69.6182 87.832 70.0518 88.2363 70.374C88.6465 70.6904 89.1855 70.8486 89.8535 70.8486C90.4688 70.8486 90.9609 70.7256 91.3301 70.4795C91.7051 70.2275 91.8926 69.8936 91.8926 69.4775ZM95.6719 71.1475C95.6719 70.8662 95.7539 70.6318 95.918 70.4443C96.0879 70.2568 96.3398 70.1631 96.6738 70.1631C97.0078 70.1631 97.2598 70.2568 97.4297 70.4443C97.6055 70.6318 97.6934 70.8662 97.6934 71.1475C97.6934 71.417 97.6055 71.6426 97.4297 71.8242C97.2598 72.0059 97.0078 72.0967 96.6738 72.0967C96.3398 72.0967 96.0879 72.0059 95.918 71.8242C95.7539 71.6426 95.6719 71.417 95.6719 71.1475Z" fill="black"/>
<g clip-path="url(#clip0_1_195)">
<path d="M22.492 12.247H22.491C16.8318 12.247 12.244 16.8347 12.244 22.494V22.495C12.244 28.1543 16.8318 32.742 22.491 32.742H22.492C28.1513 32.742 32.739 28.1543 32.739 22.495V22.494C32.739 16.8347 28.1513 12.247 22.492 12.247Z" fill="#371B1B"/>
<mask id="mask0_1_195" style="mask-type:alpha" maskUnits="userSpaceOnUse" x="12" y="12" width="21" height="21">
<path d="M28.299 12.247H16.684C14.2319 12.247 12.244 14.2349 12.244 16.687V28.302C12.244 30.7542 14.2319 32.742 16.684 32.742H28.299C30.7512 32.742 32.739 30.7542 32.739 28.302V16.687C32.739 14.2349 30.7512 12.247 28.299 12.247Z" fill="white"/>
</mask>
<g mask="url(#mask0_1_195)">
<path d="M28.302 12.247H16.681C14.2305 12.247 12.244 14.2335 12.244 16.684V28.305C12.244 30.7555 14.2305 32.742 16.681 32.742H28.302C30.7525 32.742 32.739 30.7555 32.739 28.305V16.684C32.739 14.2335 30.7525 12.247 28.302 12.247Z" fill="#4840BB"/>
<path fill-rule="evenodd" clip-rule="evenodd" d="M28.132 27.567V27.535C28.1183 27.5151 28.1014 27.4975 28.082 27.483C25.621 25.53 25.931 21.444 26.63 17.652C26.658 17.499 26.677 17.397 26.552 17.382C25.757 17.292 23.107 17.713 22.346 17.915C22.148 17.968 22.131 18.024 22.127 18.145C21.919 25.737 26.715 27.326 28.017 27.573C28.047 27.579 28.113 27.586 28.132 27.567ZM21.208 20.277C20.232 20.462 19.328 20.823 18.546 21.147C18.477 21.167 18.367 21.281 18.396 21.422C18.704 22.956 20.208 27.28 25.959 27.617C26.092 27.623 26.225 27.599 26.121 27.537C25.345 26.957 22.587 26.36 21.46 20.495C21.448 20.435 21.45 20.207 21.208 20.277ZM18.448 23.877C18.106 24.078 17.222 24.642 16.905 24.933C16.843 24.99 16.855 25.031 16.882 25.129C17.138 26.037 18.648 27.629 22.398 27.505C22.575 27.499 22.576 27.446 22.483 27.38C22.423 27.336 21.238 26.966 20.154 25.996C19.612 25.51 19.061 24.773 18.691 24.072C18.599 23.88 18.552 23.816 18.448 23.877Z" fill="white"/>
</g>
<mask id="mask1_1_195" style="mask-type:alpha" maskUnits="userSpaceOnUse" x="16" y="17" width="13" height="11">
<path fill-rule="evenodd" clip-rule="evenodd" d="M28.132 27.567V27.535C28.1183 27.5151 28.1014 27.4975 28.082 27.483C25.621 25.53 25.931 21.444 26.63 17.652C26.658 17.499 26.677 17.397 26.552 17.382C25.757 17.292 23.107 17.713 22.346 17.915C22.148 17.968 22.131 18.024 22.127 18.145C21.919 25.737 26.715 27.326 28.017 27.573C28.047 27.579 28.113 27.586 28.132 27.567ZM21.208 20.277C20.232 20.462 19.328 20.823 18.546 21.147C18.477 21.167 18.367 21.281 18.396 21.422C18.704 22.956 20.208 27.28 25.959 27.617C26.092 27.623 26.225 27.599 26.121 27.537C25.345 26.957 22.587 26.36 21.46 20.495C21.448 20.435 21.45 20.207 21.208 20.277ZM18.448 23.877C18.106 24.078 17.222 24.642 16.905 24.933C16.843 24.99 16.855 25.031 16.882 25.129C17.138 26.037 18.648 27.629 22.398 27.505C22.575 27.499 22.576 27.446 22.483 27.38C22.423 27.336 21.238 26.966 20.154 25.996C19.612 25.51 19.061 24.773 18.691 24.072C18.599 23.88 18.552 23.816 18.448 23.877Z" fill="white"/>
</mask>
<g mask="url(#mask1_1_195)">
</g>
</g>
<path d="M39.5942 23.5347L39.7446 24.5659L39.9648 23.6367L41.5117 18.1797H42.3818L43.8911 23.6367L44.106 24.582L44.2725 23.5293L45.4863 18.1797H46.5229L44.627 26H43.687L42.0757 20.3013L41.9521 19.7051L41.8286 20.3013L40.1582 26H39.2183L37.3276 18.1797H38.3589L39.5942 23.5347ZM52.0928 22.3853H48.7036V25.1567H52.6406V26H47.6724V18.1797H52.5869V19.0283H48.7036V21.542H52.0928V22.3853ZM58.2427 23.959H54.9663L54.2305 26H53.167L56.1533 18.1797H57.0557L60.0474 26H58.9893L58.2427 23.959ZM55.2778 23.1104H57.9365L56.6045 19.4526L55.2778 23.1104ZM62.1367 25.1567H65.8428V26H61.1001V18.1797H62.1367V25.1567ZM70.9399 19.0283H68.4263V26H67.4004V19.0283H64.8921V18.1797H70.9399V19.0283ZM78.1104 26H77.0737V22.3853H73.1313V26H72.1001V18.1797H73.1313V21.542H77.0737V18.1797H78.1104V26ZM84.2549 22.5464H80.9731V26H79.9419V18.1797H84.7866V19.0283H80.9731V21.7031H84.2549V22.5464ZM88.8901 22.8364H87.0532V26H86.0166V18.1797H88.6055C89.4863 18.1797 90.1631 18.3802 90.6357 18.7812C91.112 19.1823 91.3501 19.766 91.3501 20.5322C91.3501 21.0192 91.2176 21.4435 90.9526 21.8052C90.6912 22.1668 90.326 22.4372 89.8569 22.6162L91.6938 25.9355V26H90.5874L88.8901 22.8364ZM87.0532 21.9932H88.6377C89.1497 21.9932 89.5562 21.8607 89.8569 21.5957C90.1613 21.3307 90.3135 20.9762 90.3135 20.5322C90.3135 20.0488 90.1685 19.6782 89.8784 19.4204C89.592 19.1626 89.1766 19.0319 88.6323 19.0283H87.0532V21.9932ZM98.8159 22.3423C98.8159 23.1086 98.687 23.7782 98.4292 24.3511C98.1714 24.9204 97.8062 25.3555 97.3335 25.6562C96.8608 25.957 96.3094 26.1074 95.6792 26.1074C95.0633 26.1074 94.5173 25.957 94.041 25.6562C93.5648 25.3519 93.1942 24.9204 92.9292 24.3618C92.6678 23.7996 92.5335 23.1497 92.5264 22.4121V21.8481C92.5264 21.0962 92.6571 20.432 92.9185 19.8555C93.1799 19.279 93.5487 18.8385 94.0249 18.5342C94.5047 18.2262 95.0526 18.0723 95.6685 18.0723C96.2951 18.0723 96.8465 18.2244 97.3228 18.5288C97.8026 18.8296 98.1714 19.2682 98.4292 19.8447C98.687 20.4176 98.8159 21.0854 98.8159 21.8481V22.3423ZM97.79 21.8374C97.79 20.91 97.6038 20.1992 97.2314 19.7051C96.859 19.2074 96.3381 18.9585 95.6685 18.9585C95.0168 18.9585 94.5029 19.2074 94.127 19.7051C93.7546 20.1992 93.563 20.8867 93.5522 21.7676V22.3423C93.5522 23.241 93.7402 23.9482 94.1162 24.4639C94.4958 24.9759 95.0168 25.2319 95.6792 25.2319C96.3452 25.2319 96.8608 24.9902 97.2261 24.5068C97.5913 24.0199 97.7793 23.3234 97.79 22.4175V21.8374ZM106.373 26H105.336L101.399 19.9736V26H100.363V18.1797H101.399L105.347 24.2329V18.1797H106.373V26ZM113.447 19.0283H110.933V26H109.907V19.0283H107.399V18.1797H113.447V19.0283Z" fill="black"/>
<path d="M209.538 16.7168L209.567 17.3809C209.971 16.873 210.498 16.6191 211.149 16.6191C212.266 16.6191 212.829 17.249 212.839 18.5088V22H211.936V18.5039C211.932 18.123 211.844 17.8415 211.672 17.6592C211.503 17.4769 211.237 17.3857 210.876 17.3857C210.583 17.3857 210.326 17.4639 210.104 17.6201C209.883 17.7764 209.711 17.9814 209.587 18.2354V22H208.684V16.7168H209.538ZM213.962 19.3096C213.962 18.792 214.063 18.3265 214.265 17.9131C214.47 17.4997 214.753 17.1807 215.114 16.9561C215.479 16.7314 215.894 16.6191 216.359 16.6191C217.079 16.6191 217.66 16.8682 218.103 17.3662C218.549 17.8643 218.771 18.5267 218.771 19.3535V19.417C218.771 19.9313 218.672 20.3936 218.474 20.8037C218.278 21.2106 217.997 21.528 217.629 21.7559C217.264 21.9837 216.844 22.0977 216.369 22.0977C215.653 22.0977 215.072 21.8486 214.626 21.3506C214.183 20.8525 213.962 20.1934 213.962 19.373V19.3096ZM214.87 19.417C214.87 20.0029 215.005 20.4733 215.275 20.8281C215.549 21.1829 215.913 21.3604 216.369 21.3604C216.828 21.3604 217.193 21.1813 217.463 20.8232C217.733 20.4619 217.868 19.9574 217.868 19.3096C217.868 18.7301 217.73 18.2614 217.453 17.9033C217.18 17.542 216.815 17.3613 216.359 17.3613C215.913 17.3613 215.554 17.5387 215.28 17.8936C215.007 18.2484 214.87 18.7562 214.87 19.417ZM224.582 20.7549L225.598 16.7168H226.501L224.963 22H224.23L222.946 17.9961L221.696 22H220.964L219.431 16.7168H220.329L221.369 20.6719L222.6 16.7168H223.327L224.582 20.7549Z" fill="black"/>
<defs>
<clipPath id="clip0_1_195">
<rect width="21" height="21" fill="white" transform="translate(12 12)"/>
</clipPath>
</defs>
</svg>
