<svg width="83" height="31" viewBox="0 0 83 31" fill="none" xmlns="http://www.w3.org/2000/svg">
<path d="M11.8916 14.5532H14.5547V16.5439H11.8916V21H9.43945V16.5439H0.69873V15.1069L9.29443 1.80469H11.8916V14.5532ZM3.46729 14.5532H9.43945V5.14014L9.14941 5.66748L3.46729 14.5532ZM18.8265 11.376L19.802 1.80469H29.637V4.05908H21.8719L21.2918 9.29297C22.2322 8.73926 23.3001 8.4624 24.4954 8.4624C26.2444 8.4624 27.6331 9.04248 28.6614 10.2026C29.6897 11.354 30.2039 12.9141 30.2039 14.8828C30.2039 16.8604 29.6678 18.4204 28.5955 19.563C27.532 20.6968 26.0423 21.2637 24.1263 21.2637C22.43 21.2637 21.0457 20.7935 19.9734 19.853C18.9012 18.9126 18.2903 17.6118 18.1409 15.9507H20.448C20.5974 17.0493 20.9886 17.8799 21.6214 18.4424C22.2542 18.9961 23.0891 19.2729 24.1263 19.2729C25.26 19.2729 26.1477 18.8862 26.7893 18.1128C27.4397 17.3394 27.7649 16.2715 27.7649 14.9092C27.7649 13.626 27.4134 12.5977 26.7102 11.8242C26.0159 11.042 25.0887 10.6509 23.9285 10.6509C22.865 10.6509 22.0301 10.8838 21.4236 11.3496L20.7776 11.877L18.8265 11.376ZM45.8531 12.813C45.8531 15.6694 45.3653 17.792 44.3897 19.1807C43.4141 20.5693 41.8892 21.2637 39.815 21.2637C37.7672 21.2637 36.251 20.5869 35.2667 19.2334C34.2823 17.8711 33.7725 15.8408 33.7374 13.1426V9.88623C33.7374 7.06494 34.2252 4.96875 35.2008 3.59766C36.1763 2.22656 37.7056 1.54102 39.7886 1.54102C41.8541 1.54102 43.3746 2.20459 44.3502 3.53174C45.3258 4.8501 45.8267 6.88916 45.8531 9.64893V12.813ZM43.4141 9.47754C43.4141 7.41211 43.1241 5.90918 42.544 4.96875C41.9639 4.01953 41.0455 3.54492 39.7886 3.54492C38.5406 3.54492 37.6309 4.01514 37.0596 4.95557C36.4884 5.896 36.1939 7.3418 36.1763 9.29297V13.1953C36.1763 15.2695 36.4752 16.8032 37.0728 17.7964C37.6793 18.7808 38.5933 19.2729 39.815 19.2729C41.0191 19.2729 41.9112 18.8071 42.4913 17.8755C43.0802 16.9438 43.3878 15.4761 43.4141 13.4722V9.47754ZM55.4379 12.0747L53.0912 14.5137V21H50.5599V1.80469H53.0912V11.2969L61.621 1.80469H64.6796L57.1254 10.2817L65.2728 21H62.2406L55.4379 12.0747ZM75.0421 10.7036H80.3947V13.0107H75.0421V19.0752H72.59V13.0107H67.2374V10.7036H72.59V5.10059H75.0421V10.7036Z" fill="#230B59"/>
</svg>
