<svg width="145" height="45" viewBox="0 0 145 45" fill="none" xmlns="http://www.w3.org/2000/svg">
<g clip-path="url(#clip0_1_30)">
<path d="M0 6C0 2.68629 2.68629 0 6 0H139C142.314 0 145 2.68629 145 6V39C145 42.3137 142.314 45 139 45H6C2.68629 45 0 42.3137 0 39V6Z" fill="#4840BB"/>
<path d="M26.9141 24.0156C26.9141 23.5729 26.7578 23.2344 26.4453 23C26.1328 22.7604 25.5703 22.5104 24.7578 22.25C23.9453 21.9844 23.3021 21.724 22.8281 21.4688C21.5365 20.7708 20.8906 19.8307 20.8906 18.6484C20.8906 18.0339 21.0625 17.487 21.4062 17.0078C21.7552 16.5234 22.2526 16.1458 22.8984 15.875C23.5495 15.6042 24.2786 15.4688 25.0859 15.4688C25.8984 15.4688 26.6224 15.6172 27.2578 15.9141C27.8932 16.2057 28.3854 16.6198 28.7344 17.1562C29.0885 17.6927 29.2656 18.3021 29.2656 18.9844H26.9219C26.9219 18.4635 26.7578 18.0599 26.4297 17.7734C26.1016 17.4818 25.6406 17.3359 25.0469 17.3359C24.474 17.3359 24.0286 17.4583 23.7109 17.7031C23.3932 17.9427 23.2344 18.2604 23.2344 18.6562C23.2344 19.026 23.4193 19.3359 23.7891 19.5859C24.1641 19.8359 24.7135 20.0703 25.4375 20.2891C26.7708 20.6901 27.7422 21.1875 28.3516 21.7812C28.9609 22.375 29.2656 23.1146 29.2656 24C29.2656 24.9844 28.8932 25.7578 28.1484 26.3203C27.4036 26.8776 26.401 27.1562 25.1406 27.1562C24.2656 27.1562 23.4688 26.9974 22.75 26.6797C22.0312 26.3568 21.4818 25.9167 21.1016 25.3594C20.7266 24.8021 20.5391 24.1562 20.5391 23.4219H22.8906C22.8906 24.6771 23.6406 25.3047 25.1406 25.3047C25.6979 25.3047 26.1328 25.1927 26.4453 24.9688C26.7578 24.7396 26.9141 24.4219 26.9141 24.0156ZM33.4141 16.4688V18.5469H34.8594V20.2031H33.4141V24.4219C33.4141 24.7344 33.474 24.9583 33.5938 25.0938C33.7135 25.2292 33.9427 25.2969 34.2812 25.2969C34.5312 25.2969 34.7526 25.2786 34.9453 25.2422V26.9531C34.5026 27.0885 34.0469 27.1562 33.5781 27.1562C31.9948 27.1562 31.1875 26.3568 31.1562 24.7578V20.2031H29.9219V18.5469H31.1562V16.4688H33.4141ZM41.0156 27C40.9115 26.7969 40.8359 26.5443 40.7891 26.2422C40.2422 26.8516 39.5312 27.1562 38.6562 27.1562C37.8281 27.1562 37.1406 26.9167 36.5938 26.4375C36.0521 25.9583 35.7812 25.3542 35.7812 24.625C35.7812 23.7292 36.112 23.0417 36.7734 22.5625C37.4401 22.0833 38.401 21.8411 39.6562 21.8359H40.6953V21.3516C40.6953 20.9609 40.5938 20.6484 40.3906 20.4141C40.1927 20.1797 39.8776 20.0625 39.4453 20.0625C39.0651 20.0625 38.7656 20.1536 38.5469 20.3359C38.3333 20.5182 38.2266 20.7682 38.2266 21.0859H35.9688C35.9688 20.5964 36.1198 20.1432 36.4219 19.7266C36.724 19.3099 37.151 18.9844 37.7031 18.75C38.2552 18.5104 38.875 18.3906 39.5625 18.3906C40.6042 18.3906 41.4297 18.6536 42.0391 19.1797C42.6536 19.7005 42.9609 20.4349 42.9609 21.3828V25.0469C42.9661 25.849 43.0781 26.4557 43.2969 26.8672V27H41.0156ZM39.1484 25.4297C39.4818 25.4297 39.7891 25.3568 40.0703 25.2109C40.3516 25.0599 40.5599 24.8594 40.6953 24.6094V23.1562H39.8516C38.7214 23.1562 38.1198 23.5469 38.0469 24.3281L38.0391 24.4609C38.0391 24.7422 38.138 24.974 38.3359 25.1562C38.5339 25.3385 38.8047 25.4297 39.1484 25.4297ZM49.4453 20.6641C49.138 20.6224 48.8672 20.6016 48.6328 20.6016C47.7786 20.6016 47.2188 20.8906 46.9531 21.4688V27H44.6953V18.5469H46.8281L46.8906 19.5547C47.3438 18.7786 47.9714 18.3906 48.7734 18.3906C49.0234 18.3906 49.2578 18.4245 49.4766 18.4922L49.4453 20.6641ZM53.6328 16.4688V18.5469H55.0781V20.2031H53.6328V24.4219C53.6328 24.7344 53.6927 24.9583 53.8125 25.0938C53.9323 25.2292 54.1615 25.2969 54.5 25.2969C54.75 25.2969 54.9714 25.2786 55.1641 25.2422V26.9531C54.7214 27.0885 54.2656 27.1562 53.7969 27.1562C52.2135 27.1562 51.4062 26.3568 51.375 24.7578V20.2031H50.1406V18.5469H51.375V16.4688H53.6328ZM62.7031 27H60.4375V18.5469H62.7031V27ZM60.3047 16.3594C60.3047 16.0208 60.4167 15.7422 60.6406 15.5234C60.8698 15.3047 61.1797 15.1953 61.5703 15.1953C61.9557 15.1953 62.263 15.3047 62.4922 15.5234C62.7214 15.7422 62.8359 16.0208 62.8359 16.3594C62.8359 16.7031 62.7188 16.9844 62.4844 17.2031C62.2552 17.4219 61.9505 17.5312 61.5703 17.5312C61.1901 17.5312 60.8828 17.4219 60.6484 17.2031C60.4193 16.9844 60.3047 16.7031 60.3047 16.3594ZM66.6484 18.5469L66.7188 19.5234C67.3229 18.7682 68.1328 18.3906 69.1484 18.3906C70.0443 18.3906 70.7109 18.6536 71.1484 19.1797C71.5859 19.7057 71.8099 20.4922 71.8203 21.5391V27H69.5625V21.5938C69.5625 21.1146 69.4583 20.7682 69.25 20.5547C69.0417 20.3359 68.6953 20.2266 68.2109 20.2266C67.5755 20.2266 67.099 20.4974 66.7812 21.0391V27H64.5234V18.5469H66.6484ZM76.7031 24.2422L78.2734 18.5469H80.6328L77.7812 27H75.625L72.7734 18.5469H75.1328L76.7031 24.2422ZM85.4141 27.1562C84.1745 27.1562 83.1641 26.776 82.3828 26.0156C81.6068 25.2552 81.2188 24.2422 81.2188 22.9766V22.7578C81.2188 21.9089 81.3828 21.151 81.7109 20.4844C82.0391 19.8125 82.5026 19.2969 83.1016 18.9375C83.7057 18.5729 84.3932 18.3906 85.1641 18.3906C86.3203 18.3906 87.2292 18.7552 87.8906 19.4844C88.5573 20.2135 88.8906 21.2474 88.8906 22.5859V23.5078H83.5078C83.5807 24.0599 83.7995 24.5026 84.1641 24.8359C84.5339 25.1693 85 25.3359 85.5625 25.3359C86.4323 25.3359 87.112 25.0208 87.6016 24.3906L88.7109 25.6328C88.3724 26.112 87.9141 26.487 87.3359 26.7578C86.7578 27.0234 86.1172 27.1562 85.4141 27.1562ZM85.1562 20.2188C84.7083 20.2188 84.3438 20.3698 84.0625 20.6719C83.7865 20.974 83.6094 21.4062 83.5312 21.9688H86.6719V21.7891C86.6615 21.2891 86.526 20.9036 86.2656 20.6328C86.0052 20.3568 85.6354 20.2188 85.1562 20.2188ZM94.7578 24.6641C94.7578 24.388 94.6198 24.1719 94.3438 24.0156C94.0729 23.8542 93.6354 23.7109 93.0312 23.5859C91.0208 23.1641 90.0156 22.3099 90.0156 21.0234C90.0156 20.2734 90.3255 19.6484 90.9453 19.1484C91.5703 18.6432 92.3854 18.3906 93.3906 18.3906C94.4635 18.3906 95.3203 18.6432 95.9609 19.1484C96.6068 19.6536 96.9297 20.3099 96.9297 21.1172H94.6719C94.6719 20.7943 94.5677 20.5286 94.3594 20.3203C94.151 20.1068 93.8255 20 93.3828 20C93.0026 20 92.7083 20.0859 92.5 20.2578C92.2917 20.4297 92.1875 20.6484 92.1875 20.9141C92.1875 21.1641 92.3047 21.3672 92.5391 21.5234C92.7786 21.6745 93.1797 21.8073 93.7422 21.9219C94.3047 22.0312 94.7786 22.1562 95.1641 22.2969C96.3568 22.7344 96.9531 23.4922 96.9531 24.5703C96.9531 25.3411 96.6224 25.9661 95.9609 26.4453C95.2995 26.9193 94.4453 27.1562 93.3984 27.1562C92.6901 27.1562 92.0599 27.0312 91.5078 26.7812C90.9609 26.526 90.5312 26.1797 90.2188 25.7422C89.9062 25.2995 89.75 24.8229 89.75 24.3125H91.8906C91.9115 24.7135 92.0599 25.0208 92.3359 25.2344C92.612 25.4479 92.9818 25.5547 93.4453 25.5547C93.8776 25.5547 94.2031 25.474 94.4219 25.3125C94.6458 25.1458 94.7578 24.9297 94.7578 24.6641ZM101.117 16.4688V18.5469H102.562V20.2031H101.117V24.4219C101.117 24.7344 101.177 24.9583 101.297 25.0938C101.417 25.2292 101.646 25.2969 101.984 25.2969C102.234 25.2969 102.456 25.2786 102.648 25.2422V26.9531C102.206 27.0885 101.75 27.1562 101.281 27.1562C99.6979 27.1562 98.8906 26.3568 98.8594 24.7578V20.2031H97.625V18.5469H98.8594V16.4688H101.117ZM106.203 27H103.938V18.5469H106.203V27ZM103.805 16.3594C103.805 16.0208 103.917 15.7422 104.141 15.5234C104.37 15.3047 104.68 15.1953 105.07 15.1953C105.456 15.1953 105.763 15.3047 105.992 15.5234C106.221 15.7422 106.336 16.0208 106.336 16.3594C106.336 16.7031 106.219 16.9844 105.984 17.2031C105.755 17.4219 105.451 17.5312 105.07 17.5312C104.69 17.5312 104.383 17.4219 104.148 17.2031C103.919 16.9844 103.805 16.7031 103.805 16.3594ZM110.148 18.5469L110.219 19.5234C110.823 18.7682 111.633 18.3906 112.648 18.3906C113.544 18.3906 114.211 18.6536 114.648 19.1797C115.086 19.7057 115.31 20.4922 115.32 21.5391V27H113.062V21.5938C113.062 21.1146 112.958 20.7682 112.75 20.5547C112.542 20.3359 112.195 20.2266 111.711 20.2266C111.076 20.2266 110.599 20.4974 110.281 21.0391V27H108.023V18.5469H110.148ZM116.711 22.7109C116.711 21.4141 117.018 20.3698 117.633 19.5781C118.253 18.7865 119.086 18.3906 120.133 18.3906C121.06 18.3906 121.781 18.7083 122.297 19.3438L122.391 18.5469H124.438V26.7188C124.438 27.4583 124.268 28.1016 123.93 28.6484C123.596 29.1953 123.125 29.612 122.516 29.8984C121.906 30.1849 121.193 30.3281 120.375 30.3281C119.755 30.3281 119.151 30.2031 118.562 29.9531C117.974 29.7083 117.529 29.3906 117.227 29L118.227 27.625C118.789 28.2552 119.471 28.5703 120.273 28.5703C120.872 28.5703 121.339 28.4089 121.672 28.0859C122.005 27.7682 122.172 27.3151 122.172 26.7266V26.2734C121.651 26.862 120.966 27.1562 120.117 27.1562C119.102 27.1562 118.279 26.7604 117.648 25.9688C117.023 25.1719 116.711 24.1172 116.711 22.8047V22.7109ZM118.969 22.875C118.969 23.6406 119.122 24.2422 119.43 24.6797C119.737 25.112 120.159 25.3281 120.695 25.3281C121.383 25.3281 121.875 25.0703 122.172 24.5547V21C121.87 20.4844 121.383 20.2266 120.711 20.2266C120.169 20.2266 119.742 20.4479 119.43 20.8906C119.122 21.3333 118.969 21.9948 118.969 22.875Z" fill="white"/>
</g>
<defs>
<clipPath id="clip0_1_30">
<rect width="145" height="45" fill="white"/>
</clipPath>
</defs>
</svg>
