<svg width="240" height="97" viewBox="0 0 240 97" fill="none" xmlns="http://www.w3.org/2000/svg">
<path d="M0 12C0 5.37258 5.37258 0 12 0H228C234.627 0 240 5.37258 240 12V85C240 91.6274 234.627 97 228 97H12C5.37259 97 0 91.6274 0 85V12Z" fill="white" fill-opacity="0.85"/>
<path d="M39.5942 23.5347L39.7446 24.5659L39.9648 23.6367L41.5117 18.1797H42.3818L43.8911 23.6367L44.106 24.582L44.2725 23.5293L45.4863 18.1797H46.5229L44.627 26H43.687L42.0757 20.3013L41.9521 19.7051L41.8286 20.3013L40.1582 26H39.2183L37.3276 18.1797H38.3589L39.5942 23.5347ZM52.0928 22.3853H48.7036V25.1567H52.6406V26H47.6724V18.1797H52.5869V19.0283H48.7036V21.542H52.0928V22.3853ZM58.2427 23.959H54.9663L54.2305 26H53.167L56.1533 18.1797H57.0557L60.0474 26H58.9893L58.2427 23.959ZM55.2778 23.1104H57.9365L56.6045 19.4526L55.2778 23.1104ZM62.1367 25.1567H65.8428V26H61.1001V18.1797H62.1367V25.1567ZM70.9399 19.0283H68.4263V26H67.4004V19.0283H64.8921V18.1797H70.9399V19.0283ZM78.1104 26H77.0737V22.3853H73.1313V26H72.1001V18.1797H73.1313V21.542H77.0737V18.1797H78.1104V26ZM84.2549 22.5464H80.9731V26H79.9419V18.1797H84.7866V19.0283H80.9731V21.7031H84.2549V22.5464ZM88.8901 22.8364H87.0532V26H86.0166V18.1797H88.6055C89.4863 18.1797 90.1631 18.3802 90.6357 18.7812C91.112 19.1823 91.3501 19.766 91.3501 20.5322C91.3501 21.0192 91.2176 21.4435 90.9526 21.8052C90.6912 22.1668 90.326 22.4372 89.8569 22.6162L91.6938 25.9355V26H90.5874L88.8901 22.8364ZM87.0532 21.9932H88.6377C89.1497 21.9932 89.5562 21.8607 89.8569 21.5957C90.1613 21.3307 90.3135 20.9762 90.3135 20.5322C90.3135 20.0488 90.1685 19.6782 89.8784 19.4204C89.592 19.1626 89.1766 19.0319 88.6323 19.0283H87.0532V21.9932ZM98.8159 22.3423C98.8159 23.1086 98.687 23.7782 98.4292 24.3511C98.1714 24.9204 97.8062 25.3555 97.3335 25.6562C96.8608 25.957 96.3094 26.1074 95.6792 26.1074C95.0633 26.1074 94.5173 25.957 94.041 25.6562C93.5648 25.3519 93.1942 24.9204 92.9292 24.3618C92.6678 23.7996 92.5335 23.1497 92.5264 22.4121V21.8481C92.5264 21.0962 92.6571 20.432 92.9185 19.8555C93.1799 19.279 93.5487 18.8385 94.0249 18.5342C94.5047 18.2262 95.0526 18.0723 95.6685 18.0723C96.2951 18.0723 96.8465 18.2244 97.3228 18.5288C97.8026 18.8296 98.1714 19.2682 98.4292 19.8447C98.687 20.4176 98.8159 21.0854 98.8159 21.8481V22.3423ZM97.79 21.8374C97.79 20.91 97.6038 20.1992 97.2314 19.7051C96.859 19.2074 96.3381 18.9585 95.6685 18.9585C95.0168 18.9585 94.5029 19.2074 94.127 19.7051C93.7546 20.1992 93.563 20.8867 93.5522 21.7676V22.3423C93.5522 23.241 93.7402 23.9482 94.1162 24.4639C94.4958 24.9759 95.0168 25.2319 95.6792 25.2319C96.3452 25.2319 96.8608 24.9902 97.2261 24.5068C97.5913 24.0199 97.7793 23.3234 97.79 22.4175V21.8374ZM106.373 26H105.336L101.399 19.9736V26H100.363V18.1797H101.399L105.347 24.2329V18.1797H106.373V26ZM113.447 19.0283H110.933V26H109.907V19.0283H107.399V18.1797H113.447V19.0283Z" fill="black"/>
<g clip-path="url(#clip0_1_167)">
<path d="M22.492 12.2469H22.491C16.8318 12.2469 12.244 16.8347 12.244 22.4939V22.4949C12.244 28.1542 16.8318 32.7419 22.491 32.7419H22.492C28.1513 32.7419 32.739 28.1542 32.739 22.4949V22.4939C32.739 16.8347 28.1513 12.2469 22.492 12.2469Z" fill="#371B1B"/>
<mask id="mask0_1_167" style="mask-type:alpha" maskUnits="userSpaceOnUse" x="12" y="12" width="21" height="21">
<path d="M28.299 12.2469H16.684C14.2319 12.2469 12.244 14.2348 12.244 16.6869V28.3019C12.244 30.7541 14.2319 32.7419 16.684 32.7419H28.299C30.7512 32.7419 32.739 30.7541 32.739 28.3019V16.6869C32.739 14.2348 30.7512 12.2469 28.299 12.2469Z" fill="white"/>
</mask>
<g mask="url(#mask0_1_167)">
<path d="M28.302 12.2469H16.681C14.2305 12.2469 12.244 14.2335 12.244 16.6839V28.3049C12.244 30.7554 14.2305 32.7419 16.681 32.7419H28.302C30.7525 32.7419 32.739 30.7554 32.739 28.3049V16.6839C32.739 14.2335 30.7525 12.2469 28.302 12.2469Z" fill="#4840BB"/>
<path fill-rule="evenodd" clip-rule="evenodd" d="M28.132 27.5669V27.5349C28.1183 27.515 28.1014 27.4974 28.082 27.4829C25.621 25.5299 25.931 21.4439 26.63 17.6519C26.658 17.4989 26.677 17.3969 26.552 17.3819C25.757 17.2919 23.107 17.7129 22.346 17.9149C22.148 17.9679 22.131 18.0239 22.127 18.1449C21.919 25.7369 26.715 27.3259 28.017 27.5729C28.047 27.5789 28.113 27.5859 28.132 27.5669ZM21.208 20.2769C20.232 20.4619 19.328 20.8229 18.546 21.1469C18.477 21.1669 18.367 21.2809 18.396 21.4219C18.704 22.9559 20.208 27.2799 25.959 27.6169C26.092 27.6229 26.225 27.5989 26.121 27.5369C25.345 26.9569 22.587 26.3599 21.46 20.4949C21.448 20.4349 21.45 20.2069 21.208 20.2769ZM18.448 23.8769C18.106 24.0779 17.222 24.6419 16.905 24.9329C16.843 24.9899 16.855 25.0309 16.882 25.1289C17.138 26.0369 18.648 27.6289 22.398 27.5049C22.575 27.4989 22.576 27.4459 22.483 27.3799C22.423 27.3359 21.238 26.9659 20.154 25.9959C19.612 25.5099 19.061 24.7729 18.691 24.0719C18.599 23.8799 18.552 23.8159 18.448 23.8769Z" fill="white"/>
</g>
<mask id="mask1_1_167" style="mask-type:alpha" maskUnits="userSpaceOnUse" x="16" y="17" width="13" height="11">
<path fill-rule="evenodd" clip-rule="evenodd" d="M28.132 27.5669V27.5349C28.1183 27.515 28.1014 27.4974 28.082 27.4829C25.621 25.5299 25.931 21.4439 26.63 17.6519C26.658 17.4989 26.677 17.3969 26.552 17.3819C25.757 17.2919 23.107 17.7129 22.346 17.9149C22.148 17.9679 22.131 18.0239 22.127 18.1449C21.919 25.7369 26.715 27.3259 28.017 27.5729C28.047 27.5789 28.113 27.5859 28.132 27.5669ZM21.208 20.2769C20.232 20.4619 19.328 20.8229 18.546 21.1469C18.477 21.1669 18.367 21.2809 18.396 21.4219C18.704 22.9559 20.208 27.2799 25.959 27.6169C26.092 27.6229 26.225 27.5989 26.121 27.5369C25.345 26.9569 22.587 26.3599 21.46 20.4949C21.448 20.4349 21.45 20.2069 21.208 20.2769ZM18.448 23.8769C18.106 24.0779 17.222 24.6419 16.905 24.9329C16.843 24.9899 16.855 25.0309 16.882 25.1289C17.138 26.0369 18.648 27.6289 22.398 27.5049C22.575 27.4989 22.576 27.4459 22.483 27.3799C22.423 27.3359 21.238 26.9659 20.154 25.9959C19.612 25.5099 19.061 24.7729 18.691 24.0719C18.599 23.8799 18.552 23.8159 18.448 23.8769Z" fill="white"/>
</mask>
<g mask="url(#mask1_1_167)">
</g>
</g>
<path d="M209.538 16.7168L209.567 17.3809C209.971 16.873 210.498 16.6191 211.149 16.6191C212.266 16.6191 212.829 17.249 212.839 18.5088V22H211.936V18.5039C211.932 18.123 211.844 17.8415 211.672 17.6592C211.503 17.4769 211.237 17.3857 210.876 17.3857C210.583 17.3857 210.326 17.4639 210.104 17.6201C209.883 17.7764 209.711 17.9814 209.587 18.2354V22H208.684V16.7168H209.538ZM213.962 19.3096C213.962 18.792 214.063 18.3265 214.265 17.9131C214.47 17.4997 214.753 17.1807 215.114 16.9561C215.479 16.7314 215.894 16.6191 216.359 16.6191C217.079 16.6191 217.66 16.8682 218.103 17.3662C218.549 17.8643 218.771 18.5267 218.771 19.3535V19.417C218.771 19.9313 218.672 20.3936 218.474 20.8037C218.278 21.2106 217.997 21.528 217.629 21.7559C217.264 21.9837 216.844 22.0977 216.369 22.0977C215.653 22.0977 215.072 21.8486 214.626 21.3506C214.183 20.8525 213.962 20.1934 213.962 19.373V19.3096ZM214.87 19.417C214.87 20.0029 215.005 20.4733 215.275 20.8281C215.549 21.1829 215.913 21.3604 216.369 21.3604C216.828 21.3604 217.193 21.1813 217.463 20.8232C217.733 20.4619 217.868 19.9574 217.868 19.3096C217.868 18.7301 217.73 18.2614 217.453 17.9033C217.18 17.542 216.815 17.3613 216.359 17.3613C215.913 17.3613 215.554 17.5387 215.28 17.8936C215.007 18.2484 214.87 18.7562 214.87 19.417ZM224.582 20.7549L225.598 16.7168H226.501L224.963 22H224.23L222.946 17.9961L221.696 22H220.964L219.431 16.7168H220.329L221.369 20.6719L222.6 16.7168H223.327L224.582 20.7549Z" fill="black"/>
<path d="M15.5376 49.6382L15.7427 51.0444L16.043 49.7773L18.1523 42.3359H19.3389L21.397 49.7773L21.6899 51.0664L21.917 49.6309L23.5723 42.3359H24.9858L22.4004 53H21.1187L18.9214 45.229L18.7529 44.416L18.5845 45.229L16.3066 53H15.0249L12.4468 42.3359H13.853L15.5376 49.6382ZM29.395 53.1465C28.3208 53.1465 27.4468 52.7949 26.7729 52.0918C26.0991 51.3838 25.7622 50.439 25.7622 49.2573V49.0083C25.7622 48.2222 25.9111 47.5215 26.209 46.9062C26.5117 46.2861 26.9316 45.8027 27.4688 45.4561C28.0107 45.1045 28.5967 44.9287 29.2266 44.9287C30.2568 44.9287 31.0576 45.2681 31.6289 45.9468C32.2002 46.6255 32.4858 47.5972 32.4858 48.8618V49.4258H27.1172C27.1367 50.207 27.3638 50.8394 27.7983 51.3228C28.2378 51.8013 28.7944 52.0405 29.4683 52.0405C29.9468 52.0405 30.3521 51.9429 30.6841 51.7476C31.0161 51.5522 31.3066 51.2935 31.5557 50.9712L32.3833 51.6157C31.7192 52.6362 30.7231 53.1465 29.395 53.1465ZM29.2266 46.042C28.6797 46.042 28.2207 46.2422 27.8496 46.6426C27.4785 47.0381 27.249 47.5947 27.1611 48.3125H31.1309V48.21C31.0918 47.5215 30.9062 46.9893 30.5742 46.6133C30.2422 46.2324 29.793 46.042 29.2266 46.042ZM42.6738 53C42.5957 52.8438 42.5322 52.5654 42.4834 52.165C41.8535 52.8193 41.1016 53.1465 40.2275 53.1465C39.4463 53.1465 38.8042 52.9268 38.3013 52.4873C37.8032 52.043 37.5542 51.4814 37.5542 50.8027C37.5542 49.9775 37.8667 49.3379 38.4917 48.8838C39.1216 48.4248 40.0054 48.1953 41.1431 48.1953H42.4614V47.5728C42.4614 47.0991 42.3198 46.7231 42.0366 46.4448C41.7534 46.1616 41.3359 46.02 40.7842 46.02C40.3008 46.02 39.8955 46.1421 39.5684 46.3862C39.2412 46.6304 39.0776 46.9258 39.0776 47.2725H37.7153C37.7153 46.877 37.8545 46.4961 38.1328 46.1299C38.416 45.7588 38.7969 45.4658 39.2754 45.251C39.7588 45.0361 40.2886 44.9287 40.8647 44.9287C41.7778 44.9287 42.4932 45.1582 43.0107 45.6172C43.5283 46.0713 43.7969 46.6987 43.8164 47.4995V51.147C43.8164 51.8745 43.9092 52.4531 44.0947 52.8828V53H42.6738ZM40.4253 51.9673C40.8501 51.9673 41.2529 51.8574 41.6338 51.6377C42.0146 51.418 42.2905 51.1323 42.4614 50.7808V49.1548H41.3994C39.7393 49.1548 38.9092 49.6406 38.9092 50.6123C38.9092 51.0371 39.0508 51.3691 39.334 51.6084C39.6172 51.8477 39.981 51.9673 40.4253 51.9673ZM50.833 52.2163C50.3057 52.8364 49.5317 53.1465 48.5112 53.1465C47.6665 53.1465 47.022 52.9023 46.5776 52.4141C46.1382 51.9209 45.916 51.1934 45.9111 50.2314V45.0752H47.2661V50.1948C47.2661 51.396 47.7544 51.9966 48.731 51.9966C49.7661 51.9966 50.4546 51.6108 50.7964 50.8394V45.0752H52.1514V53H50.8623L50.833 52.2163ZM56.0552 43.1562V45.0752H57.5347V46.1226H56.0552V51.0371C56.0552 51.3545 56.1211 51.5938 56.2529 51.7549C56.3848 51.9111 56.6094 51.9893 56.9268 51.9893C57.083 51.9893 57.2979 51.96 57.5713 51.9014V53C57.2148 53.0977 56.8682 53.1465 56.5312 53.1465C55.9258 53.1465 55.4692 52.9634 55.1616 52.5972C54.854 52.231 54.7002 51.7109 54.7002 51.0371V46.1226H53.2573V45.0752H54.7002V43.1562H56.0552ZM58.6187 48.9644C58.6187 48.188 58.77 47.4897 59.0728 46.8696C59.3804 46.2495 59.8052 45.771 60.3472 45.4341C60.894 45.0972 61.5166 44.9287 62.2148 44.9287C63.2939 44.9287 64.1655 45.3022 64.8296 46.0493C65.4985 46.7964 65.833 47.79 65.833 49.0303V49.1255C65.833 49.897 65.6841 50.5903 65.3862 51.2056C65.0933 51.8159 64.6709 52.292 64.1191 52.6338C63.5723 52.9756 62.9424 53.1465 62.2295 53.1465C61.1553 53.1465 60.2837 52.7729 59.6147 52.0259C58.9507 51.2788 58.6187 50.29 58.6187 49.0596V48.9644ZM59.981 49.1255C59.981 50.0044 60.1836 50.71 60.5889 51.2422C60.999 51.7744 61.5459 52.0405 62.2295 52.0405C62.918 52.0405 63.4648 51.772 63.8701 51.2349C64.2754 50.6929 64.478 49.936 64.478 48.9644C64.478 48.0952 64.2705 47.3921 63.8555 46.855C63.4453 46.313 62.8984 46.042 62.2148 46.042C61.5459 46.042 61.0063 46.3081 60.5962 46.8403C60.186 47.3726 59.981 48.1343 59.981 49.1255ZM68.8066 45.0752L68.8433 45.9541C69.4243 45.2705 70.208 44.9287 71.1943 44.9287C72.3027 44.9287 73.0571 45.3535 73.4575 46.2031C73.7212 45.8223 74.063 45.5146 74.4829 45.2803C74.9077 45.0459 75.4082 44.9287 75.9844 44.9287C77.7227 44.9287 78.6064 45.8491 78.6357 47.6899V53H77.2808V47.7705C77.2808 47.2041 77.1514 46.7817 76.8926 46.5034C76.6338 46.2202 76.1992 46.0786 75.5889 46.0786C75.0859 46.0786 74.6685 46.23 74.3364 46.5327C74.0044 46.8306 73.8115 47.2334 73.7578 47.7412V53H72.3955V47.8071C72.3955 46.6548 71.8315 46.0786 70.7036 46.0786C69.8149 46.0786 69.207 46.457 68.8799 47.2139V53H67.5249V45.0752H68.8066ZM85.5791 53C85.501 52.8438 85.4375 52.5654 85.3887 52.165C84.7588 52.8193 84.0068 53.1465 83.1328 53.1465C82.3516 53.1465 81.7095 52.9268 81.2065 52.4873C80.7085 52.043 80.4595 51.4814 80.4595 50.8027C80.4595 49.9775 80.772 49.3379 81.397 48.8838C82.0269 48.4248 82.9106 48.1953 84.0483 48.1953H85.3667V47.5728C85.3667 47.0991 85.2251 46.7231 84.9419 46.4448C84.6587 46.1616 84.2412 46.02 83.6895 46.02C83.2061 46.02 82.8008 46.1421 82.4736 46.3862C82.1465 46.6304 81.9829 46.9258 81.9829 47.2725H80.6206C80.6206 46.877 80.7598 46.4961 81.0381 46.1299C81.3213 45.7588 81.7021 45.4658 82.1807 45.251C82.6641 45.0361 83.1938 44.9287 83.77 44.9287C84.6831 44.9287 85.3984 45.1582 85.916 45.6172C86.4336 46.0713 86.7021 46.6987 86.7217 47.4995V51.147C86.7217 51.8745 86.8145 52.4531 87 52.8828V53H85.5791ZM83.3306 51.9673C83.7554 51.9673 84.1582 51.8574 84.5391 51.6377C84.9199 51.418 85.1958 51.1323 85.3667 50.7808V49.1548H84.3047C82.6445 49.1548 81.8145 49.6406 81.8145 50.6123C81.8145 51.0371 81.9561 51.3691 82.2393 51.6084C82.5225 51.8477 82.8862 51.9673 83.3306 51.9673ZM90.6841 43.1562V45.0752H92.1636V46.1226H90.6841V51.0371C90.6841 51.3545 90.75 51.5938 90.8818 51.7549C91.0137 51.9111 91.2383 51.9893 91.5557 51.9893C91.7119 51.9893 91.9268 51.96 92.2002 51.9014V53C91.8438 53.0977 91.4971 53.1465 91.1602 53.1465C90.5547 53.1465 90.0981 52.9634 89.7905 52.5972C89.4829 52.231 89.3291 51.7109 89.3291 51.0371V46.1226H87.8862V45.0752H89.3291V43.1562H90.6841ZM95.2251 53H93.8701V45.0752H95.2251V53ZM93.7603 42.9731C93.7603 42.7534 93.8262 42.5679 93.958 42.4165C94.0947 42.2651 94.2949 42.1895 94.5586 42.1895C94.8223 42.1895 95.0225 42.2651 95.1592 42.4165C95.2959 42.5679 95.3643 42.7534 95.3643 42.9731C95.3643 43.1929 95.2959 43.376 95.1592 43.5225C95.0225 43.6689 94.8223 43.7422 94.5586 43.7422C94.2949 43.7422 94.0947 43.6689 93.958 43.5225C93.8262 43.376 93.7603 43.1929 93.7603 42.9731ZM100.579 52.0405C101.062 52.0405 101.485 51.894 101.846 51.6011C102.208 51.3081 102.408 50.9419 102.447 50.5024H103.729C103.704 50.9565 103.548 51.3887 103.26 51.7988C102.972 52.209 102.586 52.5361 102.103 52.7803C101.624 53.0244 101.116 53.1465 100.579 53.1465C99.5 53.1465 98.6406 52.7876 98.001 52.0698C97.3662 51.3472 97.0488 50.3608 97.0488 49.1108V48.8838C97.0488 48.1123 97.1904 47.4263 97.4736 46.8257C97.7568 46.2251 98.1621 45.7588 98.6895 45.4268C99.2217 45.0947 99.8491 44.9287 100.572 44.9287C101.46 44.9287 102.198 45.1948 102.784 45.7271C103.375 46.2593 103.689 46.9502 103.729 47.7998H102.447C102.408 47.2871 102.212 46.8672 101.861 46.54C101.514 46.208 101.084 46.042 100.572 46.042C99.8833 46.042 99.3486 46.291 98.9678 46.7891C98.5918 47.2822 98.4038 47.9976 98.4038 48.9351V49.1914C98.4038 50.1045 98.5918 50.8076 98.9678 51.3008C99.3438 51.7939 99.8809 52.0405 100.579 52.0405ZM110.145 53C110.066 52.8438 110.003 52.5654 109.954 52.165C109.324 52.8193 108.572 53.1465 107.698 53.1465C106.917 53.1465 106.275 52.9268 105.772 52.4873C105.274 52.043 105.025 51.4814 105.025 50.8027C105.025 49.9775 105.337 49.3379 105.962 48.8838C106.592 48.4248 107.476 48.1953 108.614 48.1953H109.932V47.5728C109.932 47.0991 109.791 46.7231 109.507 46.4448C109.224 46.1616 108.807 46.02 108.255 46.02C107.771 46.02 107.366 46.1421 107.039 46.3862C106.712 46.6304 106.548 46.9258 106.548 47.2725H105.186C105.186 46.877 105.325 46.4961 105.604 46.1299C105.887 45.7588 106.268 45.4658 106.746 45.251C107.229 45.0361 107.759 44.9287 108.335 44.9287C109.249 44.9287 109.964 45.1582 110.481 45.6172C110.999 46.0713 111.268 46.6987 111.287 47.4995V51.147C111.287 51.8745 111.38 52.4531 111.565 52.8828V53H110.145ZM107.896 51.9673C108.321 51.9673 108.724 51.8574 109.104 51.6377C109.485 51.418 109.761 51.1323 109.932 50.7808V49.1548H108.87C107.21 49.1548 106.38 49.6406 106.38 50.6123C106.38 51.0371 106.521 51.3691 106.805 51.6084C107.088 51.8477 107.452 51.9673 107.896 51.9673ZM114.883 53H113.528V41.75H114.883V53ZM118.531 53H117.176V41.75H118.531V53ZM123.299 51.0151L125.145 45.0752H126.595L123.409 54.2231C122.916 55.5415 122.132 56.2007 121.058 56.2007L120.801 56.1787L120.296 56.0835V54.9849L120.662 55.0142C121.121 55.0142 121.478 54.9214 121.731 54.7358C121.99 54.5503 122.203 54.2109 122.369 53.7178L122.669 52.9121L119.842 45.0752H121.321L123.299 51.0151ZM133.003 53H131.648V45.0752H133.003V53ZM131.539 42.9731C131.539 42.7534 131.604 42.5679 131.736 42.4165C131.873 42.2651 132.073 42.1895 132.337 42.1895C132.601 42.1895 132.801 42.2651 132.938 42.4165C133.074 42.5679 133.143 42.7534 133.143 42.9731C133.143 43.1929 133.074 43.376 132.938 43.5225C132.801 43.6689 132.601 43.7422 132.337 43.7422C132.073 43.7422 131.873 43.6689 131.736 43.5225C131.604 43.376 131.539 43.1929 131.539 42.9731ZM136.46 45.0752L136.504 46.0713C137.11 45.3096 137.901 44.9287 138.877 44.9287C140.552 44.9287 141.397 45.8735 141.412 47.7632V53H140.057V47.7559C140.052 47.1846 139.92 46.7622 139.661 46.4888C139.407 46.2153 139.009 46.0786 138.467 46.0786C138.028 46.0786 137.642 46.1958 137.31 46.4302C136.978 46.6646 136.719 46.9722 136.534 47.353V53H135.179V45.0752H136.46ZM146.07 51.1616L148.033 45.0752H149.417L146.575 53H145.542L142.671 45.0752H144.056L146.07 51.1616ZM153.907 53.1465C152.833 53.1465 151.958 52.7949 151.285 52.0918C150.611 51.3838 150.274 50.439 150.274 49.2573V49.0083C150.274 48.2222 150.423 47.5215 150.721 46.9062C151.023 46.2861 151.443 45.8027 151.98 45.4561C152.522 45.1045 153.108 44.9287 153.738 44.9287C154.769 44.9287 155.569 45.2681 156.141 45.9468C156.712 46.6255 156.998 47.5972 156.998 48.8618V49.4258H151.629C151.648 50.207 151.875 50.8394 152.31 51.3228C152.75 51.8013 153.306 52.0405 153.98 52.0405C154.458 52.0405 154.864 51.9429 155.196 51.7476C155.528 51.5522 155.818 51.2935 156.067 50.9712L156.895 51.6157C156.231 52.6362 155.235 53.1465 153.907 53.1465ZM153.738 46.042C153.191 46.042 152.732 46.2422 152.361 46.6426C151.99 47.0381 151.761 47.5947 151.673 48.3125H155.643V48.21C155.604 47.5215 155.418 46.9893 155.086 46.6133C154.754 46.2324 154.305 46.042 153.738 46.042ZM163.187 50.8979C163.187 50.5317 163.047 50.2485 162.769 50.0483C162.496 49.8433 162.015 49.6675 161.326 49.521C160.643 49.3745 160.098 49.1987 159.693 48.9937C159.292 48.7886 158.995 48.5444 158.799 48.2612C158.609 47.978 158.514 47.6411 158.514 47.2505C158.514 46.6011 158.787 46.0518 159.334 45.6025C159.886 45.1533 160.589 44.9287 161.443 44.9287C162.342 44.9287 163.069 45.1606 163.626 45.6245C164.188 46.0884 164.468 46.6816 164.468 47.4043H163.106C163.106 47.0332 162.947 46.7134 162.63 46.4448C162.317 46.1763 161.922 46.042 161.443 46.042C160.95 46.042 160.564 46.1494 160.286 46.3643C160.008 46.5791 159.869 46.8599 159.869 47.2065C159.869 47.5337 159.998 47.7803 160.257 47.9463C160.516 48.1123 160.982 48.271 161.656 48.4224C162.334 48.5737 162.884 48.7544 163.304 48.9644C163.724 49.1743 164.034 49.4282 164.234 49.7261C164.439 50.019 164.542 50.3779 164.542 50.8027C164.542 51.5107 164.258 52.0796 163.692 52.5093C163.125 52.9341 162.391 53.1465 161.487 53.1465C160.853 53.1465 160.291 53.0342 159.803 52.8096C159.314 52.585 158.931 52.2725 158.653 51.8721C158.379 51.4668 158.243 51.0298 158.243 50.561H159.598C159.622 51.0151 159.803 51.3765 160.14 51.645C160.481 51.9087 160.931 52.0405 161.487 52.0405C162 52.0405 162.41 51.938 162.718 51.7329C163.03 51.5229 163.187 51.2446 163.187 50.8979ZM168.145 43.1562V45.0752H169.625V46.1226H168.145V51.0371C168.145 51.3545 168.211 51.5938 168.343 51.7549C168.475 51.9111 168.699 51.9893 169.017 51.9893C169.173 51.9893 169.388 51.96 169.661 51.9014V53C169.305 53.0977 168.958 53.1465 168.621 53.1465C168.016 53.1465 167.559 52.9634 167.251 52.5972C166.944 52.231 166.79 51.7109 166.79 51.0371V46.1226H165.347V45.0752H166.79V43.1562H168.145ZM174.502 53.1465C173.428 53.1465 172.554 52.7949 171.88 52.0918C171.207 51.3838 170.87 50.439 170.87 49.2573V49.0083C170.87 48.2222 171.019 47.5215 171.316 46.9062C171.619 46.2861 172.039 45.8027 172.576 45.4561C173.118 45.1045 173.704 44.9287 174.334 44.9287C175.364 44.9287 176.165 45.2681 176.736 45.9468C177.308 46.6255 177.593 47.5972 177.593 48.8618V49.4258H172.225C172.244 50.207 172.471 50.8394 172.906 51.3228C173.345 51.8013 173.902 52.0405 174.576 52.0405C175.054 52.0405 175.459 51.9429 175.792 51.7476C176.124 51.5522 176.414 51.2935 176.663 50.9712L177.491 51.6157C176.827 52.6362 175.831 53.1465 174.502 53.1465ZM174.334 46.042C173.787 46.042 173.328 46.2422 172.957 46.6426C172.586 47.0381 172.356 47.5947 172.269 48.3125H176.238V48.21C176.199 47.5215 176.014 46.9893 175.682 46.6133C175.35 46.2324 174.9 46.042 174.334 46.042ZM178.838 48.9717C178.838 47.7559 179.126 46.7793 179.703 46.042C180.279 45.2998 181.033 44.9287 181.966 44.9287C182.894 44.9287 183.628 45.2461 184.17 45.8809V41.75H185.525V53H184.28L184.214 52.1504C183.672 52.8145 182.918 53.1465 181.951 53.1465C181.033 53.1465 180.284 52.7705 179.703 52.0186C179.126 51.2666 178.838 50.2852 178.838 49.0742V48.9717ZM180.193 49.1255C180.193 50.0239 180.379 50.7271 180.75 51.2349C181.121 51.7427 181.634 51.9966 182.288 51.9966C183.147 51.9966 183.775 51.6108 184.17 50.8394V47.1992C183.765 46.4521 183.143 46.0786 182.303 46.0786C181.639 46.0786 181.121 46.335 180.75 46.8477C180.379 47.3604 180.193 48.1196 180.193 49.1255ZM15.6182 69.0151L17.4639 63.0752H18.9141L15.728 72.2231C15.2349 73.5415 14.4512 74.2007 13.377 74.2007L13.1206 74.1787L12.6152 74.0835V72.9849L12.9814 73.0142C13.4404 73.0142 13.7969 72.9214 14.0508 72.7358C14.3096 72.5503 14.522 72.2109 14.688 71.7178L14.9883 70.9121L12.1611 63.0752H13.6406L15.6182 69.0151ZM19.6538 66.9644C19.6538 66.188 19.8052 65.4897 20.1079 64.8696C20.4155 64.2495 20.8403 63.771 21.3823 63.4341C21.9292 63.0972 22.5518 62.9287 23.25 62.9287C24.3291 62.9287 25.2007 63.3022 25.8647 64.0493C26.5337 64.7964 26.8682 65.79 26.8682 67.0303V67.1255C26.8682 67.897 26.7192 68.5903 26.4214 69.2056C26.1284 69.8159 25.7061 70.292 25.1543 70.6338C24.6074 70.9756 23.9775 71.1465 23.2646 71.1465C22.1904 71.1465 21.3188 70.7729 20.6499 70.0259C19.9858 69.2788 19.6538 68.29 19.6538 67.0596V66.9644ZM21.0161 67.1255C21.0161 68.0044 21.2188 68.71 21.624 69.2422C22.0342 69.7744 22.5811 70.0405 23.2646 70.0405C23.9531 70.0405 24.5 69.772 24.9053 69.2349C25.3105 68.6929 25.5132 67.936 25.5132 66.9644C25.5132 66.0952 25.3057 65.3921 24.8906 64.855C24.4805 64.313 23.9336 64.042 23.25 64.042C22.5811 64.042 22.0415 64.3081 21.6313 64.8403C21.2212 65.3726 21.0161 66.1343 21.0161 67.1255ZM33.46 70.2163C32.9326 70.8364 32.1587 71.1465 31.1382 71.1465C30.2935 71.1465 29.6489 70.9023 29.2046 70.4141C28.7651 69.9209 28.543 69.1934 28.5381 68.2314V63.0752H29.8931V68.1948C29.8931 69.396 30.3813 69.9966 31.3579 69.9966C32.3931 69.9966 33.0815 69.6108 33.4233 68.8394V63.0752H34.7783V71H33.4893L33.46 70.2163ZM40.6743 64.291C40.4692 64.2568 40.2471 64.2397 40.0078 64.2397C39.1191 64.2397 38.5161 64.6182 38.1987 65.375V71H36.8438V63.0752H38.1621L38.1841 63.9907C38.6284 63.2827 39.2583 62.9287 40.0737 62.9287C40.3374 62.9287 40.5376 62.9629 40.6743 63.0312V64.291ZM50.8916 68.2534C50.8916 67.8042 50.7329 67.4258 50.4155 67.1182C50.103 66.8105 49.5732 66.5322 48.8262 66.2832C47.7861 65.9658 47.0269 65.5532 46.5483 65.0454C46.0747 64.5327 45.8379 63.8833 45.8379 63.0972C45.8379 62.2964 46.0698 61.6396 46.5337 61.127C47.0024 60.6143 47.6445 60.3091 48.46 60.2114V58.6074H49.5513V60.2188C50.3716 60.3311 51.0088 60.6753 51.4629 61.2515C51.9219 61.8276 52.1514 62.6162 52.1514 63.6172H50.8037C50.8037 62.9287 50.6401 62.3818 50.313 61.9766C49.9858 61.5713 49.5439 61.3687 48.9873 61.3687C48.4062 61.3687 47.9619 61.52 47.6543 61.8228C47.3467 62.1206 47.1929 62.5381 47.1929 63.0752C47.1929 63.5732 47.354 63.9712 47.6763 64.269C48.0034 64.562 48.5381 64.8306 49.2803 65.0747C50.0273 65.314 50.6084 65.5801 51.0234 65.873C51.4434 66.1611 51.751 66.498 51.9463 66.8838C52.1465 67.2695 52.2466 67.7212 52.2466 68.2388C52.2466 69.064 51.9976 69.728 51.4995 70.231C51.0063 70.7339 50.313 71.0317 49.4194 71.1245V72.5234H48.3354V71.1245C47.4272 71.0415 46.7144 70.7192 46.1968 70.1577C45.6841 69.5913 45.4277 68.8247 45.4277 67.8579H46.7827C46.7827 68.5366 46.9609 69.0591 47.3174 69.4253C47.6738 69.7915 48.1792 69.9746 48.8335 69.9746C49.4731 69.9746 49.9761 69.8208 50.3423 69.5132C50.7085 69.2056 50.8916 68.7856 50.8916 68.2534ZM54.5537 65.6533L55.0957 60.3359H60.5596V61.5884H56.2456L55.9233 64.4961C56.4458 64.1885 57.0391 64.0347 57.7031 64.0347C58.6748 64.0347 59.4463 64.3569 60.0176 65.0015C60.5889 65.6411 60.8745 66.5078 60.8745 67.6016C60.8745 68.7002 60.5767 69.5669 59.981 70.2017C59.3901 70.8315 58.5625 71.1465 57.498 71.1465C56.5557 71.1465 55.7866 70.8853 55.1909 70.3628C54.5952 69.8403 54.2559 69.1177 54.1729 68.1948H55.4546C55.5376 68.8052 55.7549 69.2666 56.1064 69.5791C56.458 69.8867 56.9219 70.0405 57.498 70.0405C58.1279 70.0405 58.6211 69.8257 58.9775 69.396C59.3389 68.9663 59.5195 68.373 59.5195 67.6162C59.5195 66.9033 59.3242 66.332 58.9336 65.9023C58.5479 65.4678 58.0327 65.2505 57.3882 65.2505C56.7974 65.2505 56.3335 65.3799 55.9966 65.6387L55.6377 65.9316L54.5537 65.6533ZM69.041 66.4517C69.041 68.0386 68.77 69.2178 68.228 69.9893C67.686 70.7607 66.8389 71.1465 65.6865 71.1465C64.5488 71.1465 63.7065 70.7705 63.1597 70.0186C62.6128 69.2617 62.3296 68.1338 62.3101 66.6348V64.8257C62.3101 63.2583 62.5811 62.0938 63.123 61.332C63.665 60.5703 64.5146 60.1895 65.6719 60.1895C66.8193 60.1895 67.6641 60.5581 68.2061 61.2954C68.748 62.0278 69.0264 63.1606 69.041 64.6938V66.4517ZM67.686 64.5986C67.686 63.4512 67.5249 62.6162 67.2026 62.0938C66.8804 61.5664 66.3701 61.3027 65.6719 61.3027C64.9785 61.3027 64.4731 61.564 64.1558 62.0864C63.8384 62.6089 63.6748 63.4121 63.665 64.4961V66.6641C63.665 67.8164 63.8311 68.6685 64.1631 69.2202C64.5 69.7671 65.0078 70.0405 65.6865 70.0405C66.3555 70.0405 66.8511 69.7817 67.1733 69.2642C67.5005 68.7466 67.6714 67.9312 67.686 66.8179V64.5986ZM77.4639 66.4517C77.4639 68.0386 77.1929 69.2178 76.6509 69.9893C76.1089 70.7607 75.2617 71.1465 74.1094 71.1465C72.9717 71.1465 72.1294 70.7705 71.5825 70.0186C71.0356 69.2617 70.7524 68.1338 70.7329 66.6348V64.8257C70.7329 63.2583 71.0039 62.0938 71.5459 61.332C72.0879 60.5703 72.9375 60.1895 74.0947 60.1895C75.2422 60.1895 76.0869 60.5581 76.6289 61.2954C77.1709 62.0278 77.4492 63.1606 77.4639 64.6938V66.4517ZM76.1089 64.5986C76.1089 63.4512 75.9478 62.6162 75.6255 62.0938C75.3032 61.5664 74.793 61.3027 74.0947 61.3027C73.4014 61.3027 72.896 61.564 72.5786 62.0864C72.2612 62.6089 72.0977 63.4121 72.0879 64.4961V66.6641C72.0879 67.8164 72.2539 68.6685 72.5859 69.2202C72.9229 69.7671 73.4307 70.0405 74.1094 70.0405C74.7783 70.0405 75.2739 69.7817 75.5962 69.2642C75.9233 68.7466 76.0942 67.9312 76.1089 66.8179V64.5986ZM82.73 66.9717C82.73 65.7559 83.0181 64.7793 83.5942 64.042C84.1704 63.2998 84.9248 62.9287 85.8574 62.9287C86.7852 62.9287 87.52 63.2461 88.062 63.8809V59.75H89.417V71H88.1719L88.106 70.1504C87.564 70.8145 86.8096 71.1465 85.8428 71.1465C84.9248 71.1465 84.1753 70.7705 83.5942 70.0186C83.0181 69.2666 82.73 68.2852 82.73 67.0742V66.9717ZM84.085 67.1255C84.085 68.0239 84.2705 68.7271 84.6416 69.2349C85.0127 69.7427 85.5254 69.9966 86.1797 69.9966C87.0391 69.9966 87.6665 69.6108 88.062 68.8394V65.1992C87.6567 64.4521 87.0342 64.0786 86.1943 64.0786C85.5303 64.0786 85.0127 64.335 84.6416 64.8477C84.2705 65.3604 84.085 66.1196 84.085 67.1255ZM94.8149 71.1465C93.7407 71.1465 92.8667 70.7949 92.1929 70.0918C91.519 69.3838 91.1821 68.439 91.1821 67.2573V67.0083C91.1821 66.2222 91.3311 65.5215 91.6289 64.9062C91.9316 64.2861 92.3516 63.8027 92.8887 63.4561C93.4307 63.1045 94.0166 62.9287 94.6465 62.9287C95.6768 62.9287 96.4775 63.2681 97.0488 63.9468C97.6201 64.6255 97.9058 65.5972 97.9058 66.8618V67.4258H92.5371C92.5566 68.207 92.7837 68.8394 93.2183 69.3228C93.6577 69.8013 94.2144 70.0405 94.8882 70.0405C95.3667 70.0405 95.772 69.9429 96.104 69.7476C96.436 69.5522 96.7266 69.2935 96.9756 68.9712L97.8032 69.6157C97.1392 70.6362 96.1431 71.1465 94.8149 71.1465ZM94.6465 64.042C94.0996 64.042 93.6406 64.2422 93.2695 64.6426C92.8984 65.0381 92.6689 65.5947 92.5811 66.3125H96.5508V66.21C96.5117 65.5215 96.3262 64.9893 95.9941 64.6133C95.6621 64.2324 95.2129 64.042 94.6465 64.042ZM106.175 67.1255C106.175 68.3315 105.899 69.3032 105.347 70.0405C104.795 70.7778 104.048 71.1465 103.106 71.1465C102.144 71.1465 101.387 70.8413 100.835 70.231V74.0469H99.4805V63.0752H100.718L100.784 63.9541C101.336 63.2705 102.103 62.9287 103.084 62.9287C104.036 62.9287 104.788 63.2876 105.34 64.0054C105.896 64.7231 106.175 65.7217 106.175 67.001V67.1255ZM104.82 66.9717C104.82 66.0781 104.629 65.3726 104.249 64.855C103.868 64.3374 103.345 64.0786 102.681 64.0786C101.861 64.0786 101.246 64.4424 100.835 65.1699V68.9565C101.241 69.6792 101.861 70.0405 102.696 70.0405C103.345 70.0405 103.86 69.7842 104.241 69.2715C104.627 68.7539 104.82 67.9873 104.82 66.9717ZM107.544 66.9644C107.544 66.188 107.696 65.4897 107.999 64.8696C108.306 64.2495 108.731 63.771 109.273 63.4341C109.82 63.0972 110.442 62.9287 111.141 62.9287C112.22 62.9287 113.091 63.3022 113.755 64.0493C114.424 64.7964 114.759 65.79 114.759 67.0303V67.1255C114.759 67.897 114.61 68.5903 114.312 69.2056C114.019 69.8159 113.597 70.292 113.045 70.6338C112.498 70.9756 111.868 71.1465 111.155 71.1465C110.081 71.1465 109.209 70.7729 108.541 70.0259C107.876 69.2788 107.544 68.29 107.544 67.0596V66.9644ZM108.907 67.1255C108.907 68.0044 109.109 68.71 109.515 69.2422C109.925 69.7744 110.472 70.0405 111.155 70.0405C111.844 70.0405 112.391 69.772 112.796 69.2349C113.201 68.6929 113.404 67.936 113.404 66.9644C113.404 66.0952 113.196 65.3921 112.781 64.855C112.371 64.313 111.824 64.042 111.141 64.042C110.472 64.042 109.932 64.3081 109.522 64.8403C109.112 65.3726 108.907 66.1343 108.907 67.1255ZM121.072 68.8979C121.072 68.5317 120.933 68.2485 120.655 68.0483C120.381 67.8433 119.9 67.6675 119.212 67.521C118.528 67.3745 117.984 67.1987 117.579 66.9937C117.178 66.7886 116.88 66.5444 116.685 66.2612C116.495 65.978 116.399 65.6411 116.399 65.2505C116.399 64.6011 116.673 64.0518 117.22 63.6025C117.771 63.1533 118.475 62.9287 119.329 62.9287C120.228 62.9287 120.955 63.1606 121.512 63.6245C122.073 64.0884 122.354 64.6816 122.354 65.4043H120.992C120.992 65.0332 120.833 64.7134 120.516 64.4448C120.203 64.1763 119.808 64.042 119.329 64.042C118.836 64.042 118.45 64.1494 118.172 64.3643C117.894 64.5791 117.754 64.8599 117.754 65.2065C117.754 65.5337 117.884 65.7803 118.143 65.9463C118.401 66.1123 118.868 66.271 119.542 66.4224C120.22 66.5737 120.77 66.7544 121.189 66.9644C121.609 67.1743 121.919 67.4282 122.12 67.7261C122.325 68.019 122.427 68.3779 122.427 68.8027C122.427 69.5107 122.144 70.0796 121.578 70.5093C121.011 70.9341 120.276 71.1465 119.373 71.1465C118.738 71.1465 118.177 71.0342 117.688 70.8096C117.2 70.585 116.817 70.2725 116.539 69.8721C116.265 69.4668 116.128 69.0298 116.128 68.561H117.483C117.508 69.0151 117.688 69.3765 118.025 69.645C118.367 69.9087 118.816 70.0405 119.373 70.0405C119.886 70.0405 120.296 69.938 120.604 69.7329C120.916 69.5229 121.072 69.2446 121.072 68.8979ZM125.665 71H124.31V63.0752H125.665V71ZM124.2 60.9731C124.2 60.7534 124.266 60.5679 124.397 60.4165C124.534 60.2651 124.734 60.1895 124.998 60.1895C125.262 60.1895 125.462 60.2651 125.599 60.4165C125.735 60.5679 125.804 60.7534 125.804 60.9731C125.804 61.1929 125.735 61.376 125.599 61.5225C125.462 61.6689 125.262 61.7422 124.998 61.7422C124.734 61.7422 124.534 61.6689 124.397 61.5225C124.266 61.376 124.2 61.1929 124.2 60.9731ZM129.678 61.1562V63.0752H131.158V64.1226H129.678V69.0371C129.678 69.3545 129.744 69.5938 129.876 69.7549C130.008 69.9111 130.232 69.9893 130.55 69.9893C130.706 69.9893 130.921 69.96 131.194 69.9014V71C130.838 71.0977 130.491 71.1465 130.154 71.1465C129.549 71.1465 129.092 70.9634 128.785 70.5972C128.477 70.231 128.323 69.7109 128.323 69.0371V64.1226H126.88V63.0752H128.323V61.1562H129.678ZM132.776 70.2896C132.776 70.0552 132.845 69.8599 132.981 69.7036C133.123 69.5474 133.333 69.4692 133.611 69.4692C133.89 69.4692 134.1 69.5474 134.241 69.7036C134.388 69.8599 134.461 70.0552 134.461 70.2896C134.461 70.5142 134.388 70.7021 134.241 70.8535C134.1 71.0049 133.89 71.0806 133.611 71.0806C133.333 71.0806 133.123 71.0049 132.981 70.8535C132.845 70.7021 132.776 70.5142 132.776 70.2896Z" fill="black"/>
<defs>
<clipPath id="clip0_1_167">
<rect width="21" height="21" fill="white" transform="translate(12 12)"/>
</clipPath>
</defs>
</svg>
