<svg width="97" height="25" viewBox="0 0 97 25" fill="none" xmlns="http://www.w3.org/2000/svg">
<path d="M5.70117 16.7734H2.12695L1.32422 19H0.164062L3.42188 10.4688H4.40625L7.66992 19H6.51562L5.70117 16.7734ZM2.4668 15.8477H5.36719L3.91406 11.8574L2.4668 15.8477ZM14.0039 15.9004C14.0039 16.8652 13.7832 17.6426 13.3418 18.2324C12.9004 18.8223 12.3027 19.1172 11.5488 19.1172C10.7793 19.1172 10.1738 18.873 9.73242 18.3848V21.4375H8.64844V12.6602H9.63867L9.69141 13.3633C10.1328 12.8164 10.7461 12.543 11.5312 12.543C12.293 12.543 12.8945 12.8301 13.3359 13.4043C13.7812 13.9785 14.0039 14.7773 14.0039 15.8008V15.9004ZM12.9199 15.7773C12.9199 15.0625 12.7676 14.498 12.4629 14.084C12.1582 13.6699 11.7402 13.4629 11.209 13.4629C10.5527 13.4629 10.0605 13.7539 9.73242 14.3359V17.3652C10.0566 17.9434 10.5527 18.2324 11.2207 18.2324C11.7402 18.2324 12.1523 18.0273 12.457 17.6172C12.7656 17.2031 12.9199 16.5898 12.9199 15.7773ZM20.7422 15.9004C20.7422 16.8652 20.5215 17.6426 20.0801 18.2324C19.6387 18.8223 19.041 19.1172 18.2871 19.1172C17.5176 19.1172 16.9121 18.873 16.4707 18.3848V21.4375H15.3867V12.6602H16.377L16.4297 13.3633C16.8711 12.8164 17.4844 12.543 18.2695 12.543C19.0312 12.543 19.6328 12.8301 20.0742 13.4043C20.5195 13.9785 20.7422 14.7773 20.7422 15.8008V15.9004ZM19.6582 15.7773C19.6582 15.0625 19.5059 14.498 19.2012 14.084C18.8965 13.6699 18.4785 13.4629 17.9473 13.4629C17.291 13.4629 16.7988 13.7539 16.4707 14.3359V17.3652C16.7949 17.9434 17.291 18.2324 17.959 18.2324C18.4785 18.2324 18.8906 18.0273 19.1953 17.6172C19.5039 17.2031 19.6582 16.5898 19.6582 15.7773ZM23.3027 19H22.2188V10H23.3027V19ZM27.6738 19.1172C26.8145 19.1172 26.1152 18.8359 25.5762 18.2734C25.0371 17.707 24.7676 16.9512 24.7676 16.0059V15.8066C24.7676 15.1777 24.8867 14.6172 25.125 14.125C25.3672 13.6289 25.7031 13.2422 26.1328 12.9648C26.5664 12.6836 27.0352 12.543 27.5391 12.543C28.3633 12.543 29.0039 12.8145 29.4609 13.3574C29.918 13.9004 30.1465 14.6777 30.1465 15.6895V16.1406H25.8516C25.8672 16.7656 26.0488 17.2715 26.3965 17.6582C26.748 18.041 27.1934 18.2324 27.7324 18.2324C28.1152 18.2324 28.4395 18.1543 28.7051 17.998C28.9707 17.8418 29.2031 17.6348 29.4023 17.377L30.0645 17.8926C29.5332 18.709 28.7363 19.1172 27.6738 19.1172ZM27.5391 13.4336C27.1016 13.4336 26.7344 13.5938 26.4375 13.9141C26.1406 14.2305 25.957 14.6758 25.8867 15.25H29.0625V15.168C29.0312 14.6172 28.8828 14.1914 28.6172 13.8906C28.3516 13.5859 27.9922 13.4336 27.5391 13.4336ZM39.2637 16.7734H35.6895L34.8867 19H33.7266L36.9844 10.4688H37.9688L41.2324 19H40.0781L39.2637 16.7734ZM36.0293 15.8477H38.9297L37.4766 11.8574L36.0293 15.8477ZM47.5664 15.9004C47.5664 16.8652 47.3457 17.6426 46.9043 18.2324C46.4629 18.8223 45.8652 19.1172 45.1113 19.1172C44.3418 19.1172 43.7363 18.873 43.2949 18.3848V21.4375H42.2109V12.6602H43.2012L43.2539 13.3633C43.6953 12.8164 44.3086 12.543 45.0938 12.543C45.8555 12.543 46.457 12.8301 46.8984 13.4043C47.3438 13.9785 47.5664 14.7773 47.5664 15.8008V15.9004ZM46.4824 15.7773C46.4824 15.0625 46.3301 14.498 46.0254 14.084C45.7207 13.6699 45.3027 13.4629 44.7715 13.4629C44.1152 13.4629 43.623 13.7539 43.2949 14.3359V17.3652C43.6191 17.9434 44.1152 18.2324 44.7832 18.2324C45.3027 18.2324 45.7148 18.0273 46.0195 17.6172C46.3281 17.2031 46.4824 16.5898 46.4824 15.7773ZM54.3047 15.9004C54.3047 16.8652 54.084 17.6426 53.6426 18.2324C53.2012 18.8223 52.6035 19.1172 51.8496 19.1172C51.0801 19.1172 50.4746 18.873 50.0332 18.3848V21.4375H48.9492V12.6602H49.9395L49.9922 13.3633C50.4336 12.8164 51.0469 12.543 51.832 12.543C52.5938 12.543 53.1953 12.8301 53.6367 13.4043C54.082 13.9785 54.3047 14.7773 54.3047 15.8008V15.9004ZM53.2207 15.7773C53.2207 15.0625 53.0684 14.498 52.7637 14.084C52.459 13.6699 52.041 13.4629 51.5098 13.4629C50.8535 13.4629 50.3613 13.7539 50.0332 14.3359V17.3652C50.3574 17.9434 50.8535 18.2324 51.5215 18.2324C52.041 18.2324 52.4531 18.0273 52.7578 17.6172C53.0664 17.2031 53.2207 16.5898 53.2207 15.7773Z" fill="#230B59"/>
<path d="M96.7739 8H91.6499V7.28564L94.3569 4.27783C94.758 3.82308 95.0337 3.45426 95.1841 3.17139C95.3381 2.88493 95.415 2.58952 95.415 2.28516C95.415 1.87695 95.2915 1.54215 95.0444 1.28076C94.7974 1.01937 94.4679 0.888672 94.0562 0.888672C93.562 0.888672 93.1771 1.03011 92.9014 1.31299C92.6292 1.59229 92.4932 1.98258 92.4932 2.48389H91.4995C91.4995 1.76416 91.7305 1.18229 92.1924 0.738281C92.6579 0.294271 93.2791 0.0722656 94.0562 0.0722656C94.783 0.0722656 95.3577 0.263835 95.7803 0.646973C96.2028 1.02653 96.4141 1.5332 96.4141 2.16699C96.4141 2.93685 95.9235 3.85352 94.9424 4.91699L92.8477 7.18896H96.7739V8Z" fill="#230B59"/>
<path d="M62.7959 14.8804C61.7507 14.5799 60.9889 14.2118 60.5107 13.7759C60.0368 13.3358 59.7998 12.7941 59.7998 12.1509C59.7998 11.423 60.0897 10.8221 60.6694 10.3481C61.2534 9.86995 62.0109 9.63086 62.9419 9.63086C63.5767 9.63086 64.1416 9.75358 64.6367 9.99902C65.1361 10.2445 65.5212 10.583 65.792 11.0146C66.0671 11.4463 66.2046 11.9181 66.2046 12.4302H64.9795C64.9795 11.8716 64.8018 11.4336 64.4463 11.1162C64.0908 10.7946 63.5894 10.6338 62.9419 10.6338C62.341 10.6338 61.8713 10.7671 61.5327 11.0337C61.1984 11.2961 61.0312 11.6621 61.0312 12.1318C61.0312 12.5085 61.1899 12.828 61.5073 13.0903C61.8289 13.3485 62.3727 13.5854 63.1387 13.8013C63.9089 14.0171 64.5098 14.2562 64.9414 14.5186C65.3773 14.7767 65.6989 15.0793 65.9062 15.4263C66.1178 15.7733 66.2236 16.1816 66.2236 16.6514C66.2236 17.4004 65.9316 18.0013 65.3477 18.4541C64.7637 18.9027 63.9829 19.127 63.0054 19.127C62.3706 19.127 61.7782 19.0063 61.228 18.7651C60.6779 18.5197 60.2526 18.1854 59.9521 17.7622C59.6559 17.339 59.5078 16.8587 59.5078 16.3213H60.7329C60.7329 16.8799 60.9382 17.3221 61.3486 17.6479C61.7633 17.9696 62.3156 18.1304 63.0054 18.1304C63.6486 18.1304 64.1416 17.9992 64.4844 17.7368C64.8271 17.4744 64.9985 17.1169 64.9985 16.6641C64.9985 16.2113 64.8398 15.8621 64.5225 15.6167C64.2051 15.367 63.6296 15.1216 62.7959 14.8804ZM69.2007 10.4688V12.1318H70.4829V13.0396H69.2007V17.2988C69.2007 17.5739 69.2578 17.7812 69.3721 17.9209C69.4863 18.0563 69.681 18.124 69.9561 18.124C70.0915 18.124 70.2777 18.0986 70.5146 18.0479V19C70.2057 19.0846 69.9053 19.127 69.6133 19.127C69.0885 19.127 68.6929 18.9683 68.4263 18.6509C68.1597 18.3335 68.0264 17.8828 68.0264 17.2988V13.0396H66.7759V12.1318H68.0264V10.4688H69.2007ZM71.4224 15.5024C71.4224 14.8296 71.5535 14.2244 71.8159 13.687C72.0825 13.1496 72.4507 12.7349 72.9204 12.4429C73.3944 12.1509 73.9339 12.0049 74.5391 12.0049C75.4743 12.0049 76.2297 12.3286 76.8052 12.9761C77.3849 13.6235 77.6748 14.4847 77.6748 15.5596V15.6421C77.6748 16.3107 77.5457 16.9116 77.2876 17.4448C77.0337 17.9738 76.6676 18.3864 76.1895 18.6826C75.7155 18.9788 75.1696 19.127 74.5518 19.127C73.6208 19.127 72.8654 18.8032 72.2856 18.1558C71.7101 17.5083 71.4224 16.6514 71.4224 15.585V15.5024ZM72.603 15.6421C72.603 16.4038 72.7786 17.0153 73.1299 17.4766C73.4854 17.9378 73.9593 18.1685 74.5518 18.1685C75.1484 18.1685 75.6224 17.9357 75.9736 17.4702C76.3249 17.0005 76.5005 16.3446 76.5005 15.5024C76.5005 14.7492 76.3206 14.1398 75.9609 13.6743C75.6055 13.2046 75.1315 12.9697 74.5391 12.9697C73.9593 12.9697 73.4917 13.2004 73.1362 13.6616C72.7808 14.1229 72.603 14.783 72.603 15.6421ZM82.4673 13.1855C82.2896 13.1559 82.097 13.1411 81.8896 13.1411C81.1195 13.1411 80.5968 13.4691 80.3218 14.125V19H79.1475V12.1318H80.29L80.3091 12.9253C80.6942 12.3117 81.2401 12.0049 81.9468 12.0049C82.1753 12.0049 82.3488 12.0345 82.4673 12.0938V13.1855ZM86.2759 19.127C85.3449 19.127 84.5874 18.8223 84.0034 18.2129C83.4194 17.5993 83.1274 16.7804 83.1274 15.7563V15.5405C83.1274 14.8592 83.2565 14.252 83.5146 13.7188C83.777 13.1813 84.141 12.7624 84.6064 12.4619C85.0762 12.1572 85.584 12.0049 86.1299 12.0049C87.0228 12.0049 87.7168 12.299 88.2119 12.8872C88.707 13.4754 88.9546 14.3175 88.9546 15.4136V15.9023H84.3018C84.3187 16.5794 84.5155 17.1274 84.8921 17.5464C85.2729 17.9611 85.7554 18.1685 86.3394 18.1685C86.7541 18.1685 87.1053 18.0838 87.3931 17.9146C87.6808 17.7453 87.9326 17.521 88.1484 17.2417L88.8657 17.8003C88.2902 18.6847 87.4269 19.127 86.2759 19.127ZM86.1299 12.9697C85.6559 12.9697 85.2581 13.1432 84.9365 13.4902C84.6149 13.833 84.416 14.3154 84.3398 14.9375H87.7803V14.8486C87.7464 14.252 87.5856 13.7907 87.2979 13.4648C87.0101 13.1348 86.6208 12.9697 86.1299 12.9697Z" fill="#230B59"/>
</svg>
