<svg width="67" height="31" viewBox="0 0 67 31" fill="none" xmlns="http://www.w3.org/2000/svg">
<path d="M11.0107 14.0308H13.4766V15.874H11.0107V20H8.74023V15.874H0.646973V14.5435L8.60596 2.22656H11.0107V14.0308ZM3.21045 14.0308H8.74023V5.31494L8.47168 5.80322L3.21045 14.0308ZM16.7454 18.8159C16.7454 18.4253 16.8593 18.0998 17.0872 17.8394C17.3232 17.5789 17.6731 17.4487 18.137 17.4487C18.6009 17.4487 18.9508 17.5789 19.1868 17.8394C19.4309 18.0998 19.553 18.4253 19.553 18.8159C19.553 19.1903 19.4309 19.5036 19.1868 19.7559C18.9508 20.0081 18.6009 20.1343 18.137 20.1343C17.6731 20.1343 17.3232 20.0081 17.0872 19.7559C16.8593 19.5036 16.7454 19.1903 16.7454 18.8159ZM25.0435 11.0889L25.9469 2.22656H35.0533V4.31396H27.8634L27.3262 9.16016C28.197 8.64746 29.1858 8.39111 30.2926 8.39111C31.912 8.39111 33.1978 8.92822 34.15 10.0024C35.1021 11.0685 35.5782 12.513 35.5782 14.3359C35.5782 16.167 35.0818 17.6115 34.0889 18.6694C33.1042 19.7192 31.7248 20.2441 29.9508 20.2441C28.3801 20.2441 27.0984 19.8088 26.1055 18.938C25.1127 18.0672 24.5471 16.8628 24.4088 15.3247H26.545C26.6833 16.342 27.0455 17.111 27.6314 17.6318C28.2174 18.1445 28.9905 18.4009 29.9508 18.4009C31.0006 18.4009 31.8225 18.0428 32.4166 17.3267C33.0188 16.6105 33.3199 15.6217 33.3199 14.3604C33.3199 13.1722 32.9944 12.2201 32.3433 11.5039C31.7004 10.7796 30.8419 10.4175 29.7677 10.4175C28.783 10.4175 28.0098 10.6331 27.4483 11.0645L26.8502 11.5527L25.0435 11.0889Z" fill="#230B59"/>
<g clip-path="url(#clip0_1_684)">
<path d="M55.4133 6.40591C55.6637 5.63382 56.7563 5.63382 57.0067 6.40591L58.9616 12.4213C59.0162 12.5896 59.1226 12.7362 59.2656 12.8403C59.4086 12.9443 59.5809 13.0005 59.7578 13.0007H66.0854C66.8962 13.0007 67.2346 14.0399 66.5778 14.5176L61.4591 18.2356C61.3161 18.3397 61.2097 18.4864 61.1552 18.6546C61.1006 18.8228 61.1006 19.004 61.1553 19.1722L63.1101 25.1887C63.3616 25.9608 62.4774 26.603 61.8205 26.1263L56.7019 22.4072C56.5587 22.3033 56.3864 22.2474 56.2095 22.2474C56.0326 22.2474 55.8602 22.3033 55.7171 22.4072L50.5995 26.1263C49.9426 26.603 49.0595 25.9608 49.3099 25.1887L51.2647 19.1722C51.3194 19.004 51.3194 18.8228 51.2648 18.6546C51.2103 18.4864 51.1039 18.3397 50.9609 18.2356L45.8412 14.5166C45.1843 14.0399 45.5217 13.0007 46.3336 13.0007H52.6601C52.8369 13.0005 53.009 12.9445 53.152 12.8407C53.295 12.7368 53.4015 12.5904 53.4563 12.4224L55.4133 6.40487V6.40591Z" fill="#230B59"/>
</g>
<defs>
<clipPath id="clip0_1_684">
<rect width="22" height="22" fill="white" transform="translate(45 5)"/>
</clipPath>
</defs>
</svg>
