<svg width="106" height="25" viewBox="0 0 106 25" fill="none" xmlns="http://www.w3.org/2000/svg">
<path d="M105.774 8H100.65V7.28564L103.357 4.27783C103.758 3.82308 104.034 3.45426 104.184 3.17139C104.338 2.88493 104.415 2.58952 104.415 2.28516C104.415 1.87695 104.292 1.54215 104.044 1.28076C103.797 1.01937 103.468 0.888672 103.056 0.888672C102.562 0.888672 102.177 1.03011 101.901 1.31299C101.629 1.59229 101.493 1.98258 101.493 2.48389H100.5C100.5 1.76416 100.73 1.18229 101.192 0.738281C101.658 0.294271 102.279 0.0722656 103.056 0.0722656C103.783 0.0722656 104.358 0.263835 104.78 0.646973C105.203 1.02653 105.414 1.5332 105.414 2.16699C105.414 2.93685 104.924 3.85352 103.942 4.91699L101.848 7.18896H105.774V8Z" fill="#230B59"/>
<path d="M71.7959 14.8804C70.7507 14.5799 69.9889 14.2118 69.5107 13.7759C69.0368 13.3358 68.7998 12.7941 68.7998 12.1509C68.7998 11.423 69.0897 10.8221 69.6694 10.3481C70.2534 9.86995 71.0109 9.63086 71.9419 9.63086C72.5767 9.63086 73.1416 9.75358 73.6367 9.99902C74.1361 10.2445 74.5212 10.583 74.792 11.0146C75.0671 11.4463 75.2046 11.9181 75.2046 12.4302H73.9795C73.9795 11.8716 73.8018 11.4336 73.4463 11.1162C73.0908 10.7946 72.5894 10.6338 71.9419 10.6338C71.341 10.6338 70.8713 10.7671 70.5327 11.0337C70.1984 11.2961 70.0312 11.6621 70.0312 12.1318C70.0312 12.5085 70.1899 12.828 70.5073 13.0903C70.8289 13.3485 71.3727 13.5854 72.1387 13.8013C72.9089 14.0171 73.5098 14.2562 73.9414 14.5186C74.3773 14.7767 74.6989 15.0793 74.9062 15.4263C75.1178 15.7733 75.2236 16.1816 75.2236 16.6514C75.2236 17.4004 74.9316 18.0013 74.3477 18.4541C73.7637 18.9027 72.9829 19.127 72.0054 19.127C71.3706 19.127 70.7782 19.0063 70.228 18.7651C69.6779 18.5197 69.2526 18.1854 68.9521 17.7622C68.6559 17.339 68.5078 16.8587 68.5078 16.3213H69.7329C69.7329 16.8799 69.9382 17.3221 70.3486 17.6479C70.7633 17.9696 71.3156 18.1304 72.0054 18.1304C72.6486 18.1304 73.1416 17.9992 73.4844 17.7368C73.8271 17.4744 73.9985 17.1169 73.9985 16.6641C73.9985 16.2113 73.8398 15.8621 73.5225 15.6167C73.2051 15.367 72.6296 15.1216 71.7959 14.8804ZM78.2007 10.4688V12.1318H79.4829V13.0396H78.2007V17.2988C78.2007 17.5739 78.2578 17.7812 78.3721 17.9209C78.4863 18.0563 78.681 18.124 78.9561 18.124C79.0915 18.124 79.2777 18.0986 79.5146 18.0479V19C79.2057 19.0846 78.9053 19.127 78.6133 19.127C78.0885 19.127 77.6929 18.9683 77.4263 18.6509C77.1597 18.3335 77.0264 17.8828 77.0264 17.2988V13.0396H75.7759V12.1318H77.0264V10.4688H78.2007ZM80.4224 15.5024C80.4224 14.8296 80.5535 14.2244 80.8159 13.687C81.0825 13.1496 81.4507 12.7349 81.9204 12.4429C82.3944 12.1509 82.9339 12.0049 83.5391 12.0049C84.4743 12.0049 85.2297 12.3286 85.8052 12.9761C86.3849 13.6235 86.6748 14.4847 86.6748 15.5596V15.6421C86.6748 16.3107 86.5457 16.9116 86.2876 17.4448C86.0337 17.9738 85.6676 18.3864 85.1895 18.6826C84.7155 18.9788 84.1696 19.127 83.5518 19.127C82.6208 19.127 81.8654 18.8032 81.2856 18.1558C80.7101 17.5083 80.4224 16.6514 80.4224 15.585V15.5024ZM81.603 15.6421C81.603 16.4038 81.7786 17.0153 82.1299 17.4766C82.4854 17.9378 82.9593 18.1685 83.5518 18.1685C84.1484 18.1685 84.6224 17.9357 84.9736 17.4702C85.3249 17.0005 85.5005 16.3446 85.5005 15.5024C85.5005 14.7492 85.3206 14.1398 84.9609 13.6743C84.6055 13.2046 84.1315 12.9697 83.5391 12.9697C82.9593 12.9697 82.4917 13.2004 82.1362 13.6616C81.7808 14.1229 81.603 14.783 81.603 15.6421ZM91.4673 13.1855C91.2896 13.1559 91.097 13.1411 90.8896 13.1411C90.1195 13.1411 89.5968 13.4691 89.3218 14.125V19H88.1475V12.1318H89.29L89.3091 12.9253C89.6942 12.3117 90.2401 12.0049 90.9468 12.0049C91.1753 12.0049 91.3488 12.0345 91.4673 12.0938V13.1855ZM95.2759 19.127C94.3449 19.127 93.5874 18.8223 93.0034 18.2129C92.4194 17.5993 92.1274 16.7804 92.1274 15.7563V15.5405C92.1274 14.8592 92.2565 14.252 92.5146 13.7188C92.777 13.1813 93.141 12.7624 93.6064 12.4619C94.0762 12.1572 94.584 12.0049 95.1299 12.0049C96.0228 12.0049 96.7168 12.299 97.2119 12.8872C97.707 13.4754 97.9546 14.3175 97.9546 15.4136V15.9023H93.3018C93.3187 16.5794 93.5155 17.1274 93.8921 17.5464C94.2729 17.9611 94.7554 18.1685 95.3394 18.1685C95.7541 18.1685 96.1053 18.0838 96.3931 17.9146C96.6808 17.7453 96.9326 17.521 97.1484 17.2417L97.8657 17.8003C97.2902 18.6847 96.4269 19.127 95.2759 19.127ZM95.1299 12.9697C94.6559 12.9697 94.2581 13.1432 93.9365 13.4902C93.6149 13.833 93.416 14.3154 93.3398 14.9375H96.7803V14.8486C96.7464 14.252 96.5856 13.7907 96.2979 13.4648C96.0101 13.1348 95.6208 12.9697 95.1299 12.9697Z" fill="#230B59"/>
<path d="M7.28906 17.8809C7 18.2949 6.5957 18.6055 6.07617 18.8125C5.56055 19.0156 4.95898 19.1172 4.27148 19.1172C3.57617 19.1172 2.95898 18.9551 2.41992 18.6309C1.88086 18.3027 1.46289 17.8379 1.16602 17.2363C0.873047 16.6348 0.722656 15.9375 0.714844 15.1445V14.4004C0.714844 13.1152 1.01367 12.1191 1.61133 11.4121C2.21289 10.7051 3.05664 10.3516 4.14258 10.3516C5.0332 10.3516 5.75 10.5801 6.29297 11.0371C6.83594 11.4902 7.16797 12.1348 7.28906 12.9707H6.16406C5.95312 11.8418 5.28125 11.2773 4.14844 11.2773C3.39453 11.2773 2.82227 11.543 2.43164 12.0742C2.04492 12.6016 1.84961 13.3672 1.8457 14.3711V15.0684C1.8457 16.0254 2.06445 16.7871 2.50195 17.3535C2.93945 17.916 3.53125 18.1973 4.27734 18.1973C4.69922 18.1973 5.06836 18.1504 5.38477 18.0566C5.70117 17.9629 5.96289 17.8047 6.16992 17.582V15.666H4.19531V14.752H7.28906V17.8809ZM8.71289 15.7715C8.71289 15.1504 8.83398 14.5918 9.07617 14.0957C9.32227 13.5996 9.66211 13.2168 10.0957 12.9473C10.5332 12.6777 11.0312 12.543 11.5898 12.543C12.4531 12.543 13.1504 12.8418 13.6816 13.4395C14.2168 14.0371 14.4844 14.832 14.4844 15.8242V15.9004C14.4844 16.5176 14.3652 17.0723 14.127 17.5645C13.8926 18.0527 13.5547 18.4336 13.1133 18.707C12.6758 18.9805 12.1719 19.1172 11.6016 19.1172C10.7422 19.1172 10.0449 18.8184 9.50977 18.2207C8.97852 17.623 8.71289 16.832 8.71289 15.8477V15.7715ZM9.80273 15.9004C9.80273 16.6035 9.96484 17.168 10.2891 17.5938C10.6172 18.0195 11.0547 18.2324 11.6016 18.2324C12.1523 18.2324 12.5898 18.0176 12.9141 17.5879C13.2383 17.1543 13.4004 16.5488 13.4004 15.7715C13.4004 15.0762 13.2344 14.5137 12.9023 14.084C12.5742 13.6504 12.1367 13.4336 11.5898 13.4336C11.0547 13.4336 10.623 13.6465 10.2949 14.0723C9.9668 14.498 9.80273 15.1074 9.80273 15.9004ZM15.5566 15.7715C15.5566 15.1504 15.6777 14.5918 15.9199 14.0957C16.166 13.5996 16.5059 13.2168 16.9395 12.9473C17.377 12.6777 17.875 12.543 18.4336 12.543C19.2969 12.543 19.9941 12.8418 20.5254 13.4395C21.0605 14.0371 21.3281 14.832 21.3281 15.8242V15.9004C21.3281 16.5176 21.209 17.0723 20.9707 17.5645C20.7363 18.0527 20.3984 18.4336 19.957 18.707C19.5195 18.9805 19.0156 19.1172 18.4453 19.1172C17.5859 19.1172 16.8887 18.8184 16.3535 18.2207C15.8223 17.623 15.5566 16.832 15.5566 15.8477V15.7715ZM16.6465 15.9004C16.6465 16.6035 16.8086 17.168 17.1328 17.5938C17.4609 18.0195 17.8984 18.2324 18.4453 18.2324C18.9961 18.2324 19.4336 18.0176 19.7578 17.5879C20.082 17.1543 20.2441 16.5488 20.2441 15.7715C20.2441 15.0762 20.0781 14.5137 19.7461 14.084C19.418 13.6504 18.9805 13.4336 18.4336 13.4336C17.8984 13.4336 17.4668 13.6465 17.1387 14.0723C16.8105 14.498 16.6465 15.1074 16.6465 15.9004ZM22.4297 15.7773C22.4297 14.7891 22.6582 14.0039 23.1152 13.4219C23.5723 12.8359 24.1777 12.543 24.9316 12.543C25.7051 12.543 26.3086 12.8164 26.7422 13.3633L26.7949 12.6602H27.7852V18.8477C27.7852 19.668 27.541 20.3145 27.0527 20.7871C26.5684 21.2598 25.916 21.4961 25.0957 21.4961C24.6387 21.4961 24.1914 21.3984 23.7539 21.2031C23.3164 21.0078 22.9824 20.7402 22.752 20.4004L23.3145 19.75C23.7793 20.3242 24.3477 20.6113 25.0195 20.6113C25.5469 20.6113 25.957 20.4629 26.25 20.166C26.5469 19.8691 26.6953 19.4512 26.6953 18.9121V18.3672C26.2617 18.8672 25.6699 19.1172 24.9199 19.1172C24.1777 19.1172 23.5762 18.8184 23.1152 18.2207C22.6582 17.623 22.4297 16.8086 22.4297 15.7773ZM23.5195 15.9004C23.5195 16.6152 23.666 17.1777 23.959 17.5879C24.252 17.9941 24.6621 18.1973 25.1895 18.1973C25.873 18.1973 26.375 17.8867 26.6953 17.2656V14.3711C26.3633 13.7656 25.8652 13.4629 25.2012 13.4629C24.6738 13.4629 24.2617 13.668 23.9648 14.0781C23.668 14.4883 23.5195 15.0957 23.5195 15.9004ZM30.6035 19H29.5195V10H30.6035V19ZM34.9746 19.1172C34.1152 19.1172 33.416 18.8359 32.877 18.2734C32.3379 17.707 32.0684 16.9512 32.0684 16.0059V15.8066C32.0684 15.1777 32.1875 14.6172 32.4258 14.125C32.668 13.6289 33.0039 13.2422 33.4336 12.9648C33.8672 12.6836 34.3359 12.543 34.8398 12.543C35.6641 12.543 36.3047 12.8145 36.7617 13.3574C37.2188 13.9004 37.4473 14.6777 37.4473 15.6895V16.1406H33.1523C33.168 16.7656 33.3496 17.2715 33.6973 17.6582C34.0488 18.041 34.4941 18.2324 35.0332 18.2324C35.416 18.2324 35.7402 18.1543 36.0059 17.998C36.2715 17.8418 36.5039 17.6348 36.7031 17.377L37.3652 17.8926C36.834 18.709 36.0371 19.1172 34.9746 19.1172ZM34.8398 13.4336C34.4023 13.4336 34.0352 13.5938 33.7383 13.9141C33.4414 14.2305 33.2578 14.6758 33.1875 15.25H36.3633V15.168C36.332 14.6172 36.1836 14.1914 35.918 13.8906C35.6523 13.5859 35.293 13.4336 34.8398 13.4336ZM42.9785 15.6602V19H41.8535V10.4688H45C45.9336 10.4688 46.6641 10.707 47.1914 11.1836C47.7227 11.6602 47.9883 12.291 47.9883 13.0762C47.9883 13.9043 47.7285 14.543 47.209 14.9922C46.6934 15.4375 45.9531 15.6602 44.9883 15.6602H42.9785ZM42.9785 14.7402H45C45.6016 14.7402 46.0625 14.5996 46.3828 14.3184C46.7031 14.0332 46.8633 13.623 46.8633 13.0879C46.8633 12.5801 46.7031 12.1738 46.3828 11.8691C46.0625 11.5645 45.623 11.4062 45.0645 11.3945H42.9785V14.7402ZM50.4316 19H49.3477V10H50.4316V19ZM56.0859 19C56.0234 18.875 55.9727 18.6523 55.9336 18.332C55.4297 18.8555 54.8281 19.1172 54.1289 19.1172C53.5039 19.1172 52.9902 18.9414 52.5879 18.5898C52.1895 18.2344 51.9902 17.7852 51.9902 17.2422C51.9902 16.582 52.2402 16.0703 52.7402 15.707C53.2441 15.3398 53.9512 15.1562 54.8613 15.1562H55.916V14.6582C55.916 14.2793 55.8027 13.9785 55.5762 13.7559C55.3496 13.5293 55.0156 13.416 54.5742 13.416C54.1875 13.416 53.8633 13.5137 53.6016 13.709C53.3398 13.9043 53.209 14.1406 53.209 14.418H52.1191C52.1191 14.1016 52.2305 13.7969 52.4531 13.5039C52.6797 13.207 52.9844 12.9727 53.3672 12.8008C53.7539 12.6289 54.1777 12.543 54.6387 12.543C55.3691 12.543 55.9414 12.7266 56.3555 13.0938C56.7695 13.457 56.9844 13.959 57 14.5996V17.5176C57 18.0996 57.0742 18.5625 57.2227 18.9062V19H56.0859ZM54.2871 18.1738C54.627 18.1738 54.9492 18.0859 55.2539 17.9102C55.5586 17.7344 55.7793 17.5059 55.916 17.2246V15.9238H55.0664C53.7383 15.9238 53.0742 16.3125 53.0742 17.0898C53.0742 17.4297 53.1875 17.6953 53.4141 17.8867C53.6406 18.0781 53.9316 18.1738 54.2871 18.1738ZM60.6797 17.4121L62.1562 12.6602H63.3164L60.7676 19.9785C60.373 21.0332 59.7461 21.5605 58.8867 21.5605L58.6816 21.543L58.2773 21.4668V20.5879L58.5703 20.6113C58.9375 20.6113 59.2227 20.5371 59.4258 20.3887C59.6328 20.2402 59.8027 19.9688 59.9355 19.5742L60.1758 18.9297L57.9141 12.6602H59.0977L60.6797 17.4121Z" fill="#230B59"/>
</svg>
