<svg width="120" height="45" viewBox="0 0 120 45" fill="none" xmlns="http://www.w3.org/2000/svg">
<path d="M23.1494 25.2349H27.8149V27H20.9521V16.3359H23.1494V25.2349ZM32.5903 27.1465C31.4282 27.1465 30.481 26.79 29.7485 26.0771C29.021 25.3643 28.6572 24.4146 28.6572 23.228V23.0229C28.6572 22.2271 28.811 21.5166 29.1187 20.8916C29.4263 20.2617 29.8608 19.7783 30.4224 19.4414C30.9888 19.0996 31.6333 18.9287 32.356 18.9287C33.4399 18.9287 34.292 19.2705 34.9121 19.9541C35.5371 20.6377 35.8496 21.6069 35.8496 22.8618V23.7261H30.8032C30.8716 24.2437 31.0767 24.6587 31.4185 24.9712C31.7651 25.2837 32.2021 25.4399 32.7295 25.4399C33.5449 25.4399 34.1821 25.1445 34.6411 24.5537L35.6812 25.7183C35.3638 26.1675 34.9341 26.519 34.3921 26.7729C33.8501 27.022 33.2495 27.1465 32.5903 27.1465ZM32.3486 20.6426C31.9287 20.6426 31.5869 20.7842 31.3232 21.0674C31.0645 21.3506 30.8984 21.7559 30.8252 22.2832H33.7695V22.1147C33.7598 21.646 33.6328 21.2847 33.3887 21.0308C33.1445 20.772 32.7979 20.6426 32.3486 20.6426ZM41.6504 27C41.5527 26.8096 41.4819 26.5728 41.438 26.2896C40.9253 26.8608 40.2588 27.1465 39.4385 27.1465C38.6621 27.1465 38.0176 26.9219 37.5049 26.4727C36.9971 26.0234 36.7432 25.457 36.7432 24.7734C36.7432 23.9336 37.0532 23.2891 37.6733 22.8398C38.2983 22.3906 39.1992 22.1636 40.376 22.1587H41.3501V21.7046C41.3501 21.3384 41.2549 21.0454 41.0645 20.8257C40.8789 20.606 40.5835 20.4961 40.1782 20.4961C39.8218 20.4961 39.541 20.5815 39.3359 20.7524C39.1357 20.9233 39.0356 21.1577 39.0356 21.4556H36.9189C36.9189 20.9966 37.0605 20.5718 37.3438 20.1812C37.627 19.7905 38.0273 19.4854 38.5449 19.2656C39.0625 19.041 39.6436 18.9287 40.2881 18.9287C41.2646 18.9287 42.0386 19.1753 42.6099 19.6685C43.186 20.1567 43.4741 20.8452 43.4741 21.7339V25.1689C43.479 25.9209 43.584 26.4897 43.7891 26.8755V27H41.6504ZM39.8999 25.5278C40.2124 25.5278 40.5005 25.4595 40.7642 25.3228C41.0278 25.1812 41.2231 24.9932 41.3501 24.7588V23.3965H40.5591C39.4995 23.3965 38.9355 23.7627 38.8672 24.4951L38.8599 24.6196C38.8599 24.8833 38.9526 25.1006 39.1382 25.2715C39.3237 25.4424 39.5776 25.5278 39.8999 25.5278ZM49.5532 21.0601C49.2651 21.021 49.0112 21.0015 48.7915 21.0015C47.9907 21.0015 47.4658 21.2725 47.2168 21.8145V27H45.1001V19.0752H47.0996L47.1582 20.02C47.583 19.2925 48.1714 18.9287 48.9233 18.9287C49.1577 18.9287 49.3774 18.9604 49.5825 19.0239L49.5532 21.0601ZM52.5269 19.0752L52.5928 19.9907C53.1592 19.2827 53.9185 18.9287 54.8706 18.9287C55.7104 18.9287 56.3354 19.1753 56.7456 19.6685C57.1558 20.1616 57.3657 20.8989 57.3755 21.8804V27H55.2588V21.9316C55.2588 21.4824 55.1611 21.1577 54.9658 20.9575C54.7705 20.7524 54.4458 20.6499 53.9917 20.6499C53.396 20.6499 52.9492 20.9038 52.6514 21.4116V27H50.5347V19.0752H52.5269ZM64.707 19.0752L64.7729 19.9614C65.3345 19.2729 66.0938 18.9287 67.0508 18.9287C68.0713 18.9287 68.772 19.3315 69.1528 20.1372C69.7095 19.3315 70.5029 18.9287 71.5332 18.9287C72.3926 18.9287 73.0322 19.1802 73.4521 19.6831C73.8721 20.1812 74.082 20.9331 74.082 21.939V27H71.958V21.9463C71.958 21.4971 71.8701 21.1699 71.6943 20.9648C71.5186 20.7549 71.2085 20.6499 70.7642 20.6499C70.1294 20.6499 69.6899 20.9526 69.4458 21.5581L69.4531 27H67.3364V21.9536C67.3364 21.4946 67.2461 21.1626 67.0654 20.9575C66.8848 20.7524 66.5771 20.6499 66.1426 20.6499C65.542 20.6499 65.1074 20.8989 64.8389 21.397V27H62.7222V19.0752H64.707ZM75.3857 22.9644C75.3857 22.1782 75.5371 21.4775 75.8398 20.8623C76.1426 20.2471 76.5771 19.771 77.1436 19.4341C77.7148 19.0972 78.3765 18.9287 79.1284 18.9287C80.1978 18.9287 81.0693 19.2559 81.7432 19.9102C82.4219 20.5645 82.8003 21.4531 82.8784 22.5762L82.8931 23.1182C82.8931 24.334 82.5537 25.3105 81.875 26.0479C81.1963 26.7803 80.2856 27.1465 79.1431 27.1465C78.0005 27.1465 77.0874 26.7803 76.4038 26.0479C75.7251 25.3154 75.3857 24.3193 75.3857 23.0596V22.9644ZM77.5024 23.1182C77.5024 23.8701 77.644 24.4463 77.9272 24.8467C78.2104 25.2422 78.6157 25.4399 79.1431 25.4399C79.6558 25.4399 80.0562 25.2446 80.3442 24.854C80.6323 24.4585 80.7764 23.8286 80.7764 22.9644C80.7764 22.2271 80.6323 21.6558 80.3442 21.2505C80.0562 20.8452 79.6509 20.6426 79.1284 20.6426C78.6108 20.6426 78.2104 20.8452 77.9272 21.2505C77.644 21.6509 77.5024 22.2734 77.5024 23.1182ZM88.6499 21.0601C88.3618 21.021 88.1079 21.0015 87.8882 21.0015C87.0874 21.0015 86.5625 21.2725 86.3135 21.8145V27H84.1968V19.0752H86.1963L86.2549 20.02C86.6797 19.2925 87.2681 18.9287 88.02 18.9287C88.2544 18.9287 88.4741 18.9604 88.6792 19.0239L88.6499 21.0601ZM93.1763 27.1465C92.0142 27.1465 91.0669 26.79 90.3345 26.0771C89.6069 25.3643 89.2432 24.4146 89.2432 23.228V23.0229C89.2432 22.2271 89.397 21.5166 89.7046 20.8916C90.0122 20.2617 90.4468 19.7783 91.0083 19.4414C91.5747 19.0996 92.2192 18.9287 92.9419 18.9287C94.0259 18.9287 94.8779 19.2705 95.498 19.9541C96.123 20.6377 96.4355 21.6069 96.4355 22.8618V23.7261H91.3892C91.4575 24.2437 91.6626 24.6587 92.0044 24.9712C92.3511 25.2837 92.7881 25.4399 93.3154 25.4399C94.1309 25.4399 94.7681 25.1445 95.2271 24.5537L96.2671 25.7183C95.9497 26.1675 95.52 26.519 94.978 26.7729C94.436 27.022 93.8354 27.1465 93.1763 27.1465ZM92.9346 20.6426C92.5146 20.6426 92.1729 20.7842 91.9092 21.0674C91.6504 21.3506 91.4844 21.7559 91.4111 22.2832H94.3555V22.1147C94.3457 21.646 94.2188 21.2847 93.9746 21.0308C93.7305 20.772 93.3838 20.6426 92.9346 20.6426Z" fill="#230B59"/>
</svg>
