<svg width="74" height="11" viewBox="0 0 74 11" fill="none" xmlns="http://www.w3.org/2000/svg">
<path d="M1.19727 10H0.0722656V1.46875H1.19727V10ZM4.11523 3.66016L4.15039 4.45703C4.63477 3.84766 5.26758 3.54297 6.04883 3.54297C7.38867 3.54297 8.06445 4.29883 8.07617 5.81055V10H6.99219V5.80469C6.98828 5.34766 6.88281 5.00977 6.67578 4.79102C6.47266 4.57227 6.1543 4.46289 5.7207 4.46289C5.36914 4.46289 5.06055 4.55664 4.79492 4.74414C4.5293 4.93164 4.32227 5.17773 4.17383 5.48242V10H3.08984V3.66016H4.11523ZM15.2305 9.23242C15.6172 9.23242 15.9551 9.11523 16.2441 8.88086C16.5332 8.64648 16.6934 8.35352 16.7246 8.00195H17.75C17.7305 8.36523 17.6055 8.71094 17.375 9.03906C17.1445 9.36719 16.8359 9.62891 16.4492 9.82422C16.0664 10.0195 15.6602 10.1172 15.2305 10.1172C14.3672 10.1172 13.6797 9.83008 13.168 9.25586C12.6602 8.67773 12.4062 7.88867 12.4062 6.88867V6.70703C12.4062 6.08984 12.5195 5.54102 12.7461 5.06055C12.9727 4.58008 13.2969 4.20703 13.7188 3.94141C14.1445 3.67578 14.6465 3.54297 15.2246 3.54297C15.9355 3.54297 16.5254 3.75586 16.9941 4.18164C17.4668 4.60742 17.7188 5.16016 17.75 5.83984H16.7246C16.6934 5.42969 16.5371 5.09375 16.2559 4.83203C15.9785 4.56641 15.6348 4.43359 15.2246 4.43359C14.6738 4.43359 14.2461 4.63281 13.9414 5.03125C13.6406 5.42578 13.4902 5.99805 13.4902 6.74805V6.95312C13.4902 7.68359 13.6406 8.24609 13.9414 8.64062C14.2422 9.03516 14.6719 9.23242 15.2305 9.23242ZM20.1465 10H19.0625V1H20.1465V10ZM23.0645 10H21.9805V3.66016H23.0645V10ZM21.8926 1.97852C21.8926 1.80273 21.9453 1.6543 22.0508 1.5332C22.1602 1.41211 22.3203 1.35156 22.5312 1.35156C22.7422 1.35156 22.9023 1.41211 23.0117 1.5332C23.1211 1.6543 23.1758 1.80273 23.1758 1.97852C23.1758 2.1543 23.1211 2.30078 23.0117 2.41797C22.9023 2.53516 22.7422 2.59375 22.5312 2.59375C22.3203 2.59375 22.1602 2.53516 22.0508 2.41797C21.9453 2.30078 21.8926 2.1543 21.8926 1.97852ZM27.4355 10.1172C26.5762 10.1172 25.877 9.83594 25.3379 9.27344C24.7988 8.70703 24.5293 7.95117 24.5293 7.00586V6.80664C24.5293 6.17773 24.6484 5.61719 24.8867 5.125C25.1289 4.62891 25.4648 4.24219 25.8945 3.96484C26.3281 3.68359 26.7969 3.54297 27.3008 3.54297C28.125 3.54297 28.7656 3.81445 29.2227 4.35742C29.6797 4.90039 29.9082 5.67773 29.9082 6.68945V7.14062H25.6133C25.6289 7.76562 25.8105 8.27148 26.1582 8.6582C26.5098 9.04102 26.9551 9.23242 27.4941 9.23242C27.877 9.23242 28.2012 9.1543 28.4668 8.99805C28.7324 8.8418 28.9648 8.63477 29.1641 8.37695L29.8262 8.89258C29.2949 9.70898 28.498 10.1172 27.4355 10.1172ZM27.3008 4.43359C26.8633 4.43359 26.4961 4.59375 26.1992 4.91406C25.9023 5.23047 25.7188 5.67578 25.6484 6.25H28.8242V6.16797C28.793 5.61719 28.6445 5.19141 28.3789 4.89062C28.1133 4.58594 27.7539 4.43359 27.3008 4.43359ZM32.1934 3.66016L32.2285 4.45703C32.7129 3.84766 33.3457 3.54297 34.127 3.54297C35.4668 3.54297 36.1426 4.29883 36.1543 5.81055V10H35.0703V5.80469C35.0664 5.34766 34.9609 5.00977 34.7539 4.79102C34.5508 4.57227 34.2324 4.46289 33.7988 4.46289C33.4473 4.46289 33.1387 4.55664 32.873 4.74414C32.6074 4.93164 32.4004 5.17773 32.252 5.48242V10H31.168V3.66016H32.1934ZM39.2598 2.125V3.66016H40.4434V4.49805H39.2598V8.42969C39.2598 8.68359 39.3125 8.875 39.418 9.00391C39.5234 9.12891 39.7031 9.19141 39.957 9.19141C40.082 9.19141 40.2539 9.16797 40.4727 9.12109V10C40.1875 10.0781 39.9102 10.1172 39.6406 10.1172C39.1562 10.1172 38.791 9.9707 38.5449 9.67773C38.2988 9.38477 38.1758 8.96875 38.1758 8.42969V4.49805H37.0215V3.66016H38.1758V2.125H39.2598ZM45.2246 10V4.49805H44.2227V3.66016H45.2246V3.00977C45.2246 2.33008 45.4062 1.80469 45.7695 1.43359C46.1328 1.0625 46.6465 0.876953 47.3105 0.876953C47.5605 0.876953 47.8086 0.910156 48.0547 0.976562L47.9961 1.85547C47.8125 1.82031 47.6172 1.80273 47.4102 1.80273C47.0586 1.80273 46.7871 1.90625 46.5957 2.11328C46.4043 2.31641 46.3086 2.60938 46.3086 2.99219V3.66016H47.6621V4.49805H46.3086V10H45.2246ZM52.7773 9.37305C52.3555 9.86914 51.7363 10.1172 50.9199 10.1172C50.2441 10.1172 49.7285 9.92188 49.373 9.53125C49.0215 9.13672 48.8438 8.55469 48.8398 7.78516V3.66016H49.9238V7.75586C49.9238 8.7168 50.3145 9.19727 51.0957 9.19727C51.9238 9.19727 52.4746 8.88867 52.748 8.27148V3.66016H53.832V10H52.8008L52.7773 9.37305ZM56.5098 3.66016L56.5449 4.45703C57.0293 3.84766 57.6621 3.54297 58.4434 3.54297C59.7832 3.54297 60.459 4.29883 60.4707 5.81055V10H59.3867V5.80469C59.3828 5.34766 59.2773 5.00977 59.0703 4.79102C58.8672 4.57227 58.5488 4.46289 58.1152 4.46289C57.7637 4.46289 57.4551 4.55664 57.1895 4.74414C56.9238 4.93164 56.7168 5.17773 56.5684 5.48242V10H55.4844V3.66016H56.5098ZM61.8418 6.77734C61.8418 5.80469 62.0723 5.02344 62.5332 4.43359C62.9941 3.83984 63.5977 3.54297 64.3438 3.54297C65.0859 3.54297 65.6738 3.79688 66.1074 4.30469V1H67.1914V10H66.1953L66.1426 9.32031C65.709 9.85156 65.1055 10.1172 64.332 10.1172C63.5977 10.1172 62.998 9.81641 62.5332 9.21484C62.0723 8.61328 61.8418 7.82812 61.8418 6.85938V6.77734ZM62.9258 6.90039C62.9258 7.61914 63.0742 8.18164 63.3711 8.58789C63.668 8.99414 64.0781 9.19727 64.6016 9.19727C65.2891 9.19727 65.791 8.88867 66.1074 8.27148V5.35938C65.7832 4.76172 65.2852 4.46289 64.6133 4.46289C64.082 4.46289 63.668 4.66797 63.3711 5.07812C63.0742 5.48828 62.9258 6.0957 62.9258 6.90039ZM72.5703 8.31836C72.5703 8.02539 72.459 7.79883 72.2363 7.63867C72.0176 7.47461 71.6328 7.33398 71.082 7.2168C70.5352 7.09961 70.0996 6.95898 69.7754 6.79492C69.4551 6.63086 69.2168 6.43555 69.0605 6.20898C68.9082 5.98242 68.832 5.71289 68.832 5.40039C68.832 4.88086 69.0508 4.44141 69.4883 4.08203C69.9297 3.72266 70.4922 3.54297 71.1758 3.54297C71.8945 3.54297 72.4766 3.72852 72.9219 4.09961C73.3711 4.4707 73.5957 4.94531 73.5957 5.52344H72.5059C72.5059 5.22656 72.3789 4.9707 72.125 4.75586C71.875 4.54102 71.5586 4.43359 71.1758 4.43359C70.7812 4.43359 70.4727 4.51953 70.25 4.69141C70.0273 4.86328 69.916 5.08789 69.916 5.36523C69.916 5.62695 70.0195 5.82422 70.2266 5.95703C70.4336 6.08984 70.8066 6.2168 71.3457 6.33789C71.8887 6.45898 72.3281 6.60352 72.6641 6.77148C73 6.93945 73.248 7.14258 73.4082 7.38086C73.5723 7.61523 73.6543 7.90234 73.6543 8.24219C73.6543 8.80859 73.4277 9.26367 72.9746 9.60742C72.5215 9.94727 71.9336 10.1172 71.2109 10.1172C70.7031 10.1172 70.2539 10.0273 69.8633 9.84766C69.4727 9.66797 69.166 9.41797 68.9434 9.09766C68.7246 8.77344 68.6152 8.42383 68.6152 8.04883H69.6992C69.7188 8.41211 69.8633 8.70117 70.1328 8.91602C70.4062 9.12695 70.7656 9.23242 71.2109 9.23242C71.6211 9.23242 71.9492 9.15039 72.1953 8.98633C72.4453 8.81836 72.5703 8.5957 72.5703 8.31836Z" fill="#230B59"/>
</svg>
