<svg width="318" height="269" viewBox="0 0 318 269" fill="none" xmlns="http://www.w3.org/2000/svg">
<path d="M10.2539 41H5.00391V1.1875H10.2539V41ZM26.8711 11.4141L27.0352 15.1328C29.2956 12.2891 32.2487 10.8672 35.8945 10.8672C42.1471 10.8672 45.3008 14.3945 45.3555 21.4492V41H40.2969V21.4219C40.2786 19.2891 39.7865 17.7122 38.8203 16.6914C37.8724 15.6706 36.3867 15.1602 34.3633 15.1602C32.7227 15.1602 31.2826 15.5977 30.043 16.4727C28.8034 17.3477 27.8372 18.4961 27.1445 19.918V41H22.0859V11.4141H26.8711ZM65.7461 34.1367L73.0742 11.4141H78.2422L67.6328 41H63.7773L53.0586 11.4141H58.2266L65.7461 34.1367ZM98.0039 41.5469C93.9935 41.5469 90.7305 40.2344 88.2148 37.6094C85.6992 34.9661 84.4414 31.4388 84.4414 27.0273V26.0977C84.4414 23.1628 84.9974 20.5469 86.1094 18.25C87.2396 15.9349 88.8073 14.1302 90.8125 12.8359C92.8359 11.5234 95.0234 10.8672 97.375 10.8672C101.221 10.8672 104.211 12.1341 106.344 14.668C108.477 17.2018 109.543 20.8294 109.543 25.5508V27.6562H89.5C89.5729 30.5729 90.4206 32.9336 92.043 34.7383C93.6836 36.5247 95.7617 37.418 98.2773 37.418C100.064 37.418 101.577 37.0534 102.816 36.3242C104.056 35.5951 105.141 34.6289 106.07 33.4258L109.16 35.832C106.681 39.6419 102.962 41.5469 98.0039 41.5469ZM97.375 15.0234C95.3333 15.0234 93.6198 15.7708 92.2344 17.2656C90.849 18.7422 89.9922 20.8203 89.6641 23.5H104.484V23.1172C104.339 20.5469 103.646 18.5599 102.406 17.1562C101.167 15.7344 99.4896 15.0234 97.375 15.0234ZM135.648 33.1523C135.648 31.7852 135.129 30.7279 134.09 29.9805C133.069 29.2148 131.273 28.5586 128.703 28.0117C126.151 27.4648 124.118 26.8086 122.605 26.043C121.111 25.2773 119.999 24.3659 119.27 23.3086C118.559 22.2513 118.203 20.9935 118.203 19.5352C118.203 17.1107 119.224 15.0599 121.266 13.3828C123.326 11.7057 125.951 10.8672 129.141 10.8672C132.495 10.8672 135.211 11.7331 137.289 13.4648C139.385 15.1966 140.434 17.4115 140.434 20.1094H135.348C135.348 18.724 134.755 17.5299 133.57 16.5273C132.404 15.5247 130.927 15.0234 129.141 15.0234C127.299 15.0234 125.859 15.4245 124.82 16.2266C123.781 17.0286 123.262 18.0768 123.262 19.3711C123.262 20.5924 123.745 21.513 124.711 22.1328C125.677 22.7526 127.418 23.3451 129.934 23.9102C132.467 24.4753 134.518 25.1497 136.086 25.9336C137.654 26.7174 138.811 27.6654 139.559 28.7773C140.324 29.8711 140.707 31.2109 140.707 32.7969C140.707 35.4401 139.65 37.5638 137.535 39.168C135.421 40.7539 132.677 41.5469 129.305 41.5469C126.935 41.5469 124.839 41.1276 123.016 40.2891C121.193 39.4505 119.762 38.2839 118.723 36.7891C117.702 35.276 117.191 33.6445 117.191 31.8945H122.25C122.341 33.5898 123.016 34.9388 124.273 35.9414C125.549 36.9258 127.227 37.418 129.305 37.418C131.219 37.418 132.75 37.0352 133.898 36.2695C135.065 35.4857 135.648 34.4466 135.648 33.1523ZM157.16 4.25V11.4141H162.684V15.3242H157.16V33.6719C157.16 34.8568 157.406 35.75 157.898 36.3516C158.391 36.9349 159.229 37.2266 160.414 37.2266C160.997 37.2266 161.799 37.1172 162.82 36.8984V41C161.49 41.3646 160.195 41.5469 158.938 41.5469C156.677 41.5469 154.973 40.8633 153.824 39.4961C152.676 38.1289 152.102 36.1875 152.102 33.6719V15.3242H146.715V11.4141H152.102V4.25H157.16ZM177.113 41H172.055V11.4141H177.113V41ZM171.645 3.56641C171.645 2.74609 171.891 2.05339 172.383 1.48828C172.893 0.923177 173.641 0.640625 174.625 0.640625C175.609 0.640625 176.357 0.923177 176.867 1.48828C177.378 2.05339 177.633 2.74609 177.633 3.56641C177.633 4.38672 177.378 5.07031 176.867 5.61719C176.357 6.16406 175.609 6.4375 174.625 6.4375C173.641 6.4375 172.893 6.16406 172.383 5.61719C171.891 5.07031 171.645 4.38672 171.645 3.56641ZM193.02 11.4141L193.184 15.1328C195.444 12.2891 198.397 10.8672 202.043 10.8672C208.296 10.8672 211.449 14.3945 211.504 21.4492V41H206.445V21.4219C206.427 19.2891 205.935 17.7122 204.969 16.6914C204.021 15.6706 202.535 15.1602 200.512 15.1602C198.871 15.1602 197.431 15.5977 196.191 16.4727C194.952 17.3477 193.986 18.4961 193.293 19.918V41H188.234V11.4141H193.02ZM220.93 25.9609C220.93 21.349 221.996 17.6849 224.129 14.9688C226.262 12.2344 229.087 10.8672 232.605 10.8672C236.215 10.8672 239.031 12.1432 241.055 14.6953L241.301 11.4141H245.922V40.2891C245.922 44.1172 244.783 47.1341 242.504 49.3398C240.243 51.5456 237.199 52.6484 233.371 52.6484C231.238 52.6484 229.151 52.1927 227.109 51.2812C225.068 50.3698 223.509 49.1211 222.434 47.5352L225.059 44.5C227.228 47.1797 229.88 48.5195 233.016 48.5195C235.477 48.5195 237.391 47.8268 238.758 46.4414C240.143 45.056 240.836 43.1055 240.836 40.5898V38.0469C238.812 40.3802 236.051 41.5469 232.551 41.5469C229.087 41.5469 226.28 40.1523 224.129 37.3633C221.996 34.5742 220.93 30.7734 220.93 25.9609ZM226.016 26.5352C226.016 29.8711 226.699 32.4961 228.066 34.4102C229.434 36.306 231.348 37.2539 233.809 37.2539C236.999 37.2539 239.341 35.8047 240.836 32.9062V19.3984C239.286 16.5729 236.962 15.1602 233.863 15.1602C231.402 15.1602 229.479 16.1172 228.094 18.0312C226.708 19.9453 226.016 22.7799 226.016 26.5352ZM9.32422 95H4.26562V65.4141H9.32422V95ZM3.85547 57.5664C3.85547 56.7461 4.10156 56.0534 4.59375 55.4883C5.10417 54.9232 5.85156 54.6406 6.83594 54.6406C7.82031 54.6406 8.56771 54.9232 9.07812 55.4883C9.58854 56.0534 9.84375 56.7461 9.84375 57.5664C9.84375 58.3867 9.58854 59.0703 9.07812 59.6172C8.56771 60.1641 7.82031 60.4375 6.83594 60.4375C5.85156 60.4375 5.10417 60.1641 4.59375 59.6172C4.10156 59.0703 3.85547 58.3867 3.85547 57.5664ZM37.6719 87.1523C37.6719 85.7852 37.1523 84.7279 36.1133 83.9805C35.0924 83.2148 33.2969 82.5586 30.7266 82.0117C28.1745 81.4648 26.1419 80.8086 24.6289 80.043C23.1341 79.2773 22.0221 78.3659 21.293 77.3086C20.582 76.2513 20.2266 74.9935 20.2266 73.5352C20.2266 71.1107 21.2474 69.0599 23.2891 67.3828C25.349 65.7057 27.974 64.8672 31.1641 64.8672C34.5182 64.8672 37.2344 65.7331 39.3125 67.4648C41.4089 69.1966 42.457 71.4115 42.457 74.1094H37.3711C37.3711 72.724 36.7786 71.5299 35.5938 70.5273C34.4271 69.5247 32.9505 69.0234 31.1641 69.0234C29.3229 69.0234 27.8828 69.4245 26.8438 70.2266C25.8047 71.0286 25.2852 72.0768 25.2852 73.3711C25.2852 74.5924 25.7682 75.513 26.7344 76.1328C27.7005 76.7526 29.4414 77.3451 31.957 77.9102C34.4909 78.4753 36.5417 79.1497 38.1094 79.9336C39.6771 80.7174 40.8346 81.6654 41.582 82.7773C42.3477 83.8711 42.7305 85.2109 42.7305 86.7969C42.7305 89.4401 41.6732 91.5638 39.5586 93.168C37.444 94.7539 34.7005 95.5469 31.3281 95.5469C28.9583 95.5469 26.862 95.1276 25.0391 94.2891C23.2161 93.4505 21.7852 92.2839 20.7461 90.7891C19.7253 89.276 19.2148 87.6445 19.2148 85.8945H24.2734C24.3646 87.5898 25.0391 88.9388 26.2969 89.9414C27.5729 90.9258 29.25 91.418 31.3281 91.418C33.2422 91.418 34.7734 91.0352 35.9219 90.2695C37.0885 89.4857 37.6719 88.4466 37.6719 87.1523ZM57.1055 65.4141L57.2695 69.1328C59.5299 66.2891 62.4831 64.8672 66.1289 64.8672C72.3815 64.8672 75.5352 68.3945 75.5898 75.4492V95H70.5312V75.4219C70.513 73.2891 70.0208 71.7122 69.0547 70.6914C68.1068 69.6706 66.6211 69.1602 64.5977 69.1602C62.957 69.1602 61.5169 69.5977 60.2773 70.4727C59.0378 71.3477 58.0716 72.4961 57.3789 73.918V95H52.3203V65.4141H57.1055ZM84.3867 66.3984L81.5156 64.4297C83.2109 62.0599 84.0859 59.5625 84.1406 56.9375V53H89.1445V56.5547C89.1263 58.3776 88.6706 60.2005 87.7773 62.0234C86.9023 63.8281 85.7721 65.2865 84.3867 66.3984ZM105.105 58.25V65.4141H110.629V69.3242H105.105V87.6719C105.105 88.8568 105.352 89.75 105.844 90.3516C106.336 90.9349 107.174 91.2266 108.359 91.2266C108.943 91.2266 109.745 91.1172 110.766 90.8984V95C109.435 95.3646 108.141 95.5469 106.883 95.5469C104.622 95.5469 102.918 94.8633 101.77 93.4961C100.621 92.1289 100.047 90.1875 100.047 87.6719V69.3242H94.6602V65.4141H100.047V58.25H105.105ZM148.73 95.5469C144.72 95.5469 141.457 94.2344 138.941 91.6094C136.426 88.9661 135.168 85.4388 135.168 81.0273V80.0977C135.168 77.1628 135.724 74.5469 136.836 72.25C137.966 69.9349 139.534 68.1302 141.539 66.8359C143.562 65.5234 145.75 64.8672 148.102 64.8672C151.948 64.8672 154.938 66.1341 157.07 68.668C159.203 71.2018 160.27 74.8294 160.27 79.5508V81.6562H140.227C140.299 84.5729 141.147 86.9336 142.77 88.7383C144.41 90.5247 146.488 91.418 149.004 91.418C150.79 91.418 152.303 91.0534 153.543 90.3242C154.783 89.5951 155.867 88.6289 156.797 87.4258L159.887 89.832C157.408 93.6419 153.689 95.5469 148.73 95.5469ZM148.102 69.0234C146.06 69.0234 144.346 69.7708 142.961 71.2656C141.576 72.7422 140.719 74.8203 140.391 77.5H155.211V77.1172C155.065 74.5469 154.372 72.5599 153.133 71.1562C151.893 69.7344 150.216 69.0234 148.102 69.0234ZM187.414 95C187.122 94.4167 186.885 93.3776 186.703 91.8828C184.352 94.3255 181.544 95.5469 178.281 95.5469C175.365 95.5469 172.967 94.7266 171.09 93.0859C169.23 91.4271 168.301 89.3307 168.301 86.7969C168.301 83.7161 169.467 81.3281 171.801 79.6328C174.152 77.9193 177.452 77.0625 181.699 77.0625H186.621V74.7383C186.621 72.9701 186.092 71.5664 185.035 70.5273C183.978 69.4701 182.419 68.9414 180.359 68.9414C178.555 68.9414 177.042 69.3971 175.82 70.3086C174.599 71.2201 173.988 72.3229 173.988 73.6172H168.902C168.902 72.1406 169.422 70.7188 170.461 69.3516C171.518 67.9661 172.94 66.8724 174.727 66.0703C176.531 65.2682 178.509 64.8672 180.66 64.8672C184.069 64.8672 186.74 65.724 188.672 67.4375C190.604 69.1328 191.607 71.4753 191.68 74.4648V88.082C191.68 90.7982 192.026 92.9583 192.719 94.5625V95H187.414ZM179.02 91.1445C180.605 91.1445 182.109 90.7344 183.531 89.9141C184.953 89.0938 185.983 88.0273 186.621 86.7148V80.6445H182.656C176.458 80.6445 173.359 82.4583 173.359 86.0859C173.359 87.6719 173.888 88.9115 174.945 89.8047C176.003 90.6979 177.361 91.1445 179.02 91.1445ZM219.836 87.1523C219.836 85.7852 219.316 84.7279 218.277 83.9805C217.257 83.2148 215.461 82.5586 212.891 82.0117C210.339 81.4648 208.306 80.8086 206.793 80.043C205.298 79.2773 204.186 78.3659 203.457 77.3086C202.746 76.2513 202.391 74.9935 202.391 73.5352C202.391 71.1107 203.411 69.0599 205.453 67.3828C207.513 65.7057 210.138 64.8672 213.328 64.8672C216.682 64.8672 219.398 65.7331 221.477 67.4648C223.573 69.1966 224.621 71.4115 224.621 74.1094H219.535C219.535 72.724 218.943 71.5299 217.758 70.5273C216.591 69.5247 215.115 69.0234 213.328 69.0234C211.487 69.0234 210.047 69.4245 209.008 70.2266C207.969 71.0286 207.449 72.0768 207.449 73.3711C207.449 74.5924 207.932 75.513 208.898 76.1328C209.865 76.7526 211.605 77.3451 214.121 77.9102C216.655 78.4753 218.706 79.1497 220.273 79.9336C221.841 80.7174 222.999 81.6654 223.746 82.7773C224.512 83.8711 224.895 85.2109 224.895 86.7969C224.895 89.4401 223.837 91.5638 221.723 93.168C219.608 94.7539 216.865 95.5469 213.492 95.5469C211.122 95.5469 209.026 95.1276 207.203 94.2891C205.38 93.4505 203.949 92.2839 202.91 90.7891C201.889 89.276 201.379 87.6445 201.379 85.8945H206.438C206.529 87.5898 207.203 88.9388 208.461 89.9414C209.737 90.9258 211.414 91.418 213.492 91.418C215.406 91.418 216.938 91.0352 218.086 90.2695C219.253 89.4857 219.836 88.4466 219.836 87.1523ZM244.164 87.5898L251.055 65.4141H256.469L244.574 99.5664C242.733 104.488 239.807 106.949 235.797 106.949L234.84 106.867L232.953 106.512V102.41L234.32 102.52C236.034 102.52 237.365 102.173 238.312 101.48C239.279 100.788 240.072 99.5208 240.691 97.6797L241.812 94.6719L231.258 65.4141H236.781L244.164 87.5898ZM261.164 92.3477C261.164 91.4727 261.419 90.7435 261.93 90.1602C262.458 89.5768 263.242 89.2852 264.281 89.2852C265.32 89.2852 266.104 89.5768 266.633 90.1602C267.18 90.7435 267.453 91.4727 267.453 92.3477C267.453 93.1862 267.18 93.888 266.633 94.4531C266.104 95.0182 265.32 95.3008 264.281 95.3008C263.242 95.3008 262.458 95.0182 261.93 94.4531C261.419 93.888 261.164 93.1862 261.164 92.3477ZM13.207 136.449L13.9727 141.699L15.0938 136.969L22.9688 109.188H27.3984L35.082 136.969L36.1758 141.781L37.0234 136.422L43.2031 109.188H48.4805L38.8281 149H34.043L25.8398 119.988L25.2109 116.953L24.582 119.988L16.0781 149H11.293L1.66797 109.188H6.91797L13.207 136.449ZM67.9414 149.547C63.931 149.547 60.668 148.234 58.1523 145.609C55.6367 142.966 54.3789 139.439 54.3789 135.027V134.098C54.3789 131.163 54.9349 128.547 56.0469 126.25C57.1771 123.935 58.7448 122.13 60.75 120.836C62.7734 119.523 64.9609 118.867 67.3125 118.867C71.1589 118.867 74.1484 120.134 76.2812 122.668C78.4141 125.202 79.4805 128.829 79.4805 133.551V135.656H59.4375C59.5104 138.573 60.3581 140.934 61.9805 142.738C63.6211 144.525 65.6992 145.418 68.2148 145.418C70.0013 145.418 71.5143 145.053 72.7539 144.324C73.9935 143.595 75.0781 142.629 76.0078 141.426L79.0977 143.832C76.6185 147.642 72.8997 149.547 67.9414 149.547ZM67.3125 123.023C65.2708 123.023 63.5573 123.771 62.1719 125.266C60.7865 126.742 59.9297 128.82 59.6016 131.5H74.4219V131.117C74.276 128.547 73.5833 126.56 72.3438 125.156C71.1042 123.734 69.4271 123.023 67.3125 123.023ZM110.473 119.414V152.418C110.473 158.105 107.893 160.949 102.734 160.949C101.622 160.949 100.592 160.785 99.6445 160.457V156.41C100.228 156.556 100.993 156.629 101.941 156.629C103.072 156.629 103.928 156.319 104.512 155.699C105.113 155.098 105.414 154.04 105.414 152.527V119.414H110.473ZM104.895 111.566C104.895 110.764 105.141 110.081 105.633 109.516C106.143 108.932 106.882 108.641 107.848 108.641C108.832 108.641 109.579 108.923 110.09 109.488C110.6 110.053 110.855 110.746 110.855 111.566C110.855 112.387 110.6 113.07 110.09 113.617C109.579 114.164 108.832 114.438 107.848 114.438C106.863 114.438 106.125 114.164 105.633 113.617C105.141 113.07 104.895 112.387 104.895 111.566ZM139.914 146.074C137.945 148.389 135.056 149.547 131.246 149.547C128.092 149.547 125.686 148.635 124.027 146.812C122.387 144.971 121.557 142.255 121.539 138.664V119.414H126.598V138.527C126.598 143.012 128.421 145.254 132.066 145.254C135.931 145.254 138.501 143.814 139.777 140.934V119.414H144.836V149H140.023L139.914 146.074ZM172.773 141.152C172.773 139.785 172.254 138.728 171.215 137.98C170.194 137.215 168.398 136.559 165.828 136.012C163.276 135.465 161.243 134.809 159.73 134.043C158.236 133.277 157.124 132.366 156.395 131.309C155.684 130.251 155.328 128.993 155.328 127.535C155.328 125.111 156.349 123.06 158.391 121.383C160.451 119.706 163.076 118.867 166.266 118.867C169.62 118.867 172.336 119.733 174.414 121.465C176.51 123.197 177.559 125.411 177.559 128.109H172.473C172.473 126.724 171.88 125.53 170.695 124.527C169.529 123.525 168.052 123.023 166.266 123.023C164.424 123.023 162.984 123.424 161.945 124.227C160.906 125.029 160.387 126.077 160.387 127.371C160.387 128.592 160.87 129.513 161.836 130.133C162.802 130.753 164.543 131.345 167.059 131.91C169.592 132.475 171.643 133.15 173.211 133.934C174.779 134.717 175.936 135.665 176.684 136.777C177.449 137.871 177.832 139.211 177.832 140.797C177.832 143.44 176.775 145.564 174.66 147.168C172.546 148.754 169.802 149.547 166.43 149.547C164.06 149.547 161.964 149.128 160.141 148.289C158.318 147.451 156.887 146.284 155.848 144.789C154.827 143.276 154.316 141.645 154.316 139.895H159.375C159.466 141.59 160.141 142.939 161.398 143.941C162.674 144.926 164.352 145.418 166.43 145.418C168.344 145.418 169.875 145.035 171.023 144.27C172.19 143.486 172.773 142.447 172.773 141.152ZM194.285 112.25V119.414H199.809V123.324H194.285V141.672C194.285 142.857 194.531 143.75 195.023 144.352C195.516 144.935 196.354 145.227 197.539 145.227C198.122 145.227 198.924 145.117 199.945 144.898V149C198.615 149.365 197.32 149.547 196.062 149.547C193.802 149.547 192.098 148.863 190.949 147.496C189.801 146.129 189.227 144.188 189.227 141.672V123.324H183.84V119.414H189.227V112.25H194.285ZM8.58594 173.414L8.72266 176.695C10.8919 174.143 13.8177 172.867 17.5 172.867C21.638 172.867 24.4544 174.453 25.9492 177.625C26.9336 176.203 28.2096 175.055 29.7773 174.18C31.3633 173.305 33.2318 172.867 35.3828 172.867C41.8724 172.867 45.1719 176.303 45.2812 183.176V203H40.2227V183.477C40.2227 181.362 39.7396 179.785 38.7734 178.746C37.8073 177.689 36.1849 177.16 33.9062 177.16C32.0286 177.16 30.4701 177.725 29.2305 178.855C27.9909 179.967 27.2708 181.471 27.0703 183.367V203H21.9844V183.613C21.9844 179.311 19.8789 177.16 15.668 177.16C12.3503 177.16 10.0807 178.573 8.85938 181.398V203H3.80078V173.414H8.58594ZM74.2031 203C73.9115 202.417 73.6745 201.378 73.4922 199.883C71.1406 202.326 68.3333 203.547 65.0703 203.547C62.1536 203.547 59.7565 202.727 57.8789 201.086C56.0195 199.427 55.0898 197.331 55.0898 194.797C55.0898 191.716 56.2565 189.328 58.5898 187.633C60.9414 185.919 64.2409 185.062 68.4883 185.062H73.4102V182.738C73.4102 180.97 72.8815 179.566 71.8242 178.527C70.7669 177.47 69.2083 176.941 67.1484 176.941C65.3438 176.941 63.8307 177.397 62.6094 178.309C61.388 179.22 60.7773 180.323 60.7773 181.617H55.6914C55.6914 180.141 56.2109 178.719 57.25 177.352C58.3073 175.966 59.7292 174.872 61.5156 174.07C63.3203 173.268 65.2982 172.867 67.4492 172.867C70.8581 172.867 73.5286 173.724 75.4609 175.438C77.3932 177.133 78.3958 179.475 78.4688 182.465V196.082C78.4688 198.798 78.8151 200.958 79.5078 202.562V203H74.2031ZM65.8086 199.145C67.3945 199.145 68.8984 198.734 70.3203 197.914C71.7422 197.094 72.7721 196.027 73.4102 194.715V188.645H69.4453C63.2474 188.645 60.1484 190.458 60.1484 194.086C60.1484 195.672 60.6771 196.911 61.7344 197.805C62.7917 198.698 64.1497 199.145 65.8086 199.145ZM97.6562 189.301L94.4844 192.609V203H89.4258V161H94.4844V186.402L97.1914 183.148L106.406 173.414H112.559L101.047 185.773L113.898 203H107.965L97.6562 189.301ZM132.512 203.547C128.501 203.547 125.238 202.234 122.723 199.609C120.207 196.966 118.949 193.439 118.949 189.027V188.098C118.949 185.163 119.505 182.547 120.617 180.25C121.747 177.935 123.315 176.13 125.32 174.836C127.344 173.523 129.531 172.867 131.883 172.867C135.729 172.867 138.719 174.134 140.852 176.668C142.984 179.202 144.051 182.829 144.051 187.551V189.656H124.008C124.081 192.573 124.928 194.934 126.551 196.738C128.191 198.525 130.27 199.418 132.785 199.418C134.572 199.418 136.085 199.053 137.324 198.324C138.564 197.595 139.648 196.629 140.578 195.426L143.668 197.832C141.189 201.642 137.47 203.547 132.512 203.547ZM131.883 177.023C129.841 177.023 128.128 177.771 126.742 179.266C125.357 180.742 124.5 182.82 124.172 185.5H138.992V185.117C138.846 182.547 138.154 180.56 136.914 179.156C135.674 177.734 133.997 177.023 131.883 177.023ZM175.316 203H170.258V173.414H175.316V203ZM169.848 165.566C169.848 164.746 170.094 164.053 170.586 163.488C171.096 162.923 171.844 162.641 172.828 162.641C173.812 162.641 174.56 162.923 175.07 163.488C175.581 164.053 175.836 164.746 175.836 165.566C175.836 166.387 175.581 167.07 175.07 167.617C174.56 168.164 173.812 168.438 172.828 168.438C171.844 168.438 171.096 168.164 170.586 167.617C170.094 167.07 169.848 166.387 169.848 165.566ZM193.301 166.25V173.414H198.824V177.324H193.301V195.672C193.301 196.857 193.547 197.75 194.039 198.352C194.531 198.935 195.37 199.227 196.555 199.227C197.138 199.227 197.94 199.117 198.961 198.898V203C197.63 203.365 196.336 203.547 195.078 203.547C192.818 203.547 191.113 202.863 189.965 201.496C188.816 200.129 188.242 198.188 188.242 195.672V177.324H182.855V173.414H188.242V166.25H193.301ZM227.137 203V177.324H222.461V173.414H227.137V170.379C227.137 167.207 227.984 164.755 229.68 163.023C231.375 161.292 233.772 160.426 236.871 160.426C238.038 160.426 239.195 160.581 240.344 160.891L240.07 164.992C239.214 164.828 238.302 164.746 237.336 164.746C235.695 164.746 234.428 165.229 233.535 166.195C232.642 167.143 232.195 168.51 232.195 170.297V173.414H238.512V177.324H232.195V203H227.137ZM258.738 203.547C254.728 203.547 251.465 202.234 248.949 199.609C246.434 196.966 245.176 193.439 245.176 189.027V188.098C245.176 185.163 245.732 182.547 246.844 180.25C247.974 177.935 249.542 176.13 251.547 174.836C253.57 173.523 255.758 172.867 258.109 172.867C261.956 172.867 264.945 174.134 267.078 176.668C269.211 179.202 270.277 182.829 270.277 187.551V189.656H250.234C250.307 192.573 251.155 194.934 252.777 196.738C254.418 198.525 256.496 199.418 259.012 199.418C260.798 199.418 262.311 199.053 263.551 198.324C264.79 197.595 265.875 196.629 266.805 195.426L269.895 197.832C267.415 201.642 263.697 203.547 258.738 203.547ZM258.109 177.023C256.068 177.023 254.354 177.771 252.969 179.266C251.583 180.742 250.727 182.82 250.398 185.5H265.219V185.117C265.073 182.547 264.38 180.56 263.141 179.156C261.901 177.734 260.224 177.023 258.109 177.023ZM291.434 203.547C287.423 203.547 284.16 202.234 281.645 199.609C279.129 196.966 277.871 193.439 277.871 189.027V188.098C277.871 185.163 278.427 182.547 279.539 180.25C280.669 177.935 282.237 176.13 284.242 174.836C286.266 173.523 288.453 172.867 290.805 172.867C294.651 172.867 297.641 174.134 299.773 176.668C301.906 179.202 302.973 182.829 302.973 187.551V189.656H282.93C283.003 192.573 283.85 194.934 285.473 196.738C287.113 198.525 289.191 199.418 291.707 199.418C293.493 199.418 295.007 199.053 296.246 198.324C297.486 197.595 298.57 196.629 299.5 195.426L302.59 197.832C300.111 201.642 296.392 203.547 291.434 203.547ZM290.805 177.023C288.763 177.023 287.049 177.771 285.664 179.266C284.279 180.742 283.422 182.82 283.094 185.5H297.914V185.117C297.768 182.547 297.076 180.56 295.836 179.156C294.596 177.734 292.919 177.023 290.805 177.023ZM317.348 203H312.289V161H317.348V203ZM10.6914 220.25V227.414H16.2148V231.324H10.6914V249.672C10.6914 250.857 10.9375 251.75 11.4297 252.352C11.9219 252.935 12.7604 253.227 13.9453 253.227C14.5286 253.227 15.3307 253.117 16.3516 252.898V257C15.0208 257.365 13.7266 257.547 12.4688 257.547C10.2083 257.547 8.50391 256.863 7.35547 255.496C6.20703 254.129 5.63281 252.188 5.63281 249.672V231.324H0.246094V227.414H5.63281V220.25H10.6914ZM30.207 230.996C32.4492 228.243 35.3659 226.867 38.957 226.867C45.2096 226.867 48.3633 230.395 48.418 237.449V257H43.3594V237.422C43.3411 235.289 42.849 233.712 41.8828 232.691C40.9349 231.671 39.4492 231.16 37.4258 231.16C35.7852 231.16 34.3451 231.598 33.1055 232.473C31.8659 233.348 30.8997 234.496 30.207 235.918V257H25.1484V215H30.207V230.996ZM77.2578 257C76.9661 256.417 76.7292 255.378 76.5469 253.883C74.1953 256.326 71.388 257.547 68.125 257.547C65.2083 257.547 62.8112 256.727 60.9336 255.086C59.0742 253.427 58.1445 251.331 58.1445 248.797C58.1445 245.716 59.3112 243.328 61.6445 241.633C63.9961 239.919 67.2956 239.062 71.543 239.062H76.4648V236.738C76.4648 234.97 75.9362 233.566 74.8789 232.527C73.8216 231.47 72.263 230.941 70.2031 230.941C68.3984 230.941 66.8854 231.397 65.6641 232.309C64.4427 233.22 63.832 234.323 63.832 235.617H58.7461C58.7461 234.141 59.2656 232.719 60.3047 231.352C61.362 229.966 62.7839 228.872 64.5703 228.07C66.375 227.268 68.3529 226.867 70.5039 226.867C73.9128 226.867 76.5833 227.724 78.5156 229.438C80.4479 231.133 81.4505 233.475 81.5234 236.465V250.082C81.5234 252.798 81.8698 254.958 82.5625 256.562V257H77.2578ZM68.8633 253.145C70.4492 253.145 71.9531 252.734 73.375 251.914C74.7969 251.094 75.8268 250.027 76.4648 248.715V242.645H72.5C66.3021 242.645 63.2031 244.458 63.2031 248.086C63.2031 249.672 63.7318 250.911 64.7891 251.805C65.8464 252.698 67.2044 253.145 68.8633 253.145ZM99.3164 220.25V227.414H104.84V231.324H99.3164V249.672C99.3164 250.857 99.5625 251.75 100.055 252.352C100.547 252.935 101.385 253.227 102.57 253.227C103.154 253.227 103.956 253.117 104.977 252.898V257C103.646 257.365 102.352 257.547 101.094 257.547C98.8333 257.547 97.1289 256.863 95.9805 255.496C94.832 254.129 94.2578 252.188 94.2578 249.672V231.324H88.8711V227.414H94.2578V220.25H99.3164ZM156.859 250.027L162.547 227.414H167.605L158.992 257H154.891L147.699 234.578L140.699 257H136.598L128.012 227.414H133.043L138.867 249.562L145.758 227.414H149.832L156.859 250.027ZM194.039 257C193.747 256.417 193.51 255.378 193.328 253.883C190.977 256.326 188.169 257.547 184.906 257.547C181.99 257.547 179.592 256.727 177.715 255.086C175.855 253.427 174.926 251.331 174.926 248.797C174.926 245.716 176.092 243.328 178.426 241.633C180.777 239.919 184.077 239.062 188.324 239.062H193.246V236.738C193.246 234.97 192.717 233.566 191.66 232.527C190.603 231.47 189.044 230.941 186.984 230.941C185.18 230.941 183.667 231.397 182.445 232.309C181.224 233.22 180.613 234.323 180.613 235.617H175.527C175.527 234.141 176.047 232.719 177.086 231.352C178.143 229.966 179.565 228.872 181.352 228.07C183.156 227.268 185.134 226.867 187.285 226.867C190.694 226.867 193.365 227.724 195.297 229.438C197.229 231.133 198.232 233.475 198.305 236.465V250.082C198.305 252.798 198.651 254.958 199.344 256.562V257H194.039ZM185.645 253.145C187.23 253.145 188.734 252.734 190.156 251.914C191.578 251.094 192.608 250.027 193.246 248.715V242.645H189.281C183.083 242.645 179.984 244.458 179.984 248.086C179.984 249.672 180.513 250.911 181.57 251.805C182.628 252.698 183.986 253.145 185.645 253.145ZM218.477 249.59L225.367 227.414H230.781L218.887 261.566C217.046 266.488 214.12 268.949 210.109 268.949L209.152 268.867L207.266 268.512V264.41L208.633 264.52C210.346 264.52 211.677 264.173 212.625 263.48C213.591 262.788 214.384 261.521 215.004 259.68L216.125 256.672L205.57 227.414H211.094L218.477 249.59ZM235.477 254.348C235.477 253.473 235.732 252.743 236.242 252.16C236.771 251.577 237.555 251.285 238.594 251.285C239.633 251.285 240.417 251.577 240.945 252.16C241.492 252.743 241.766 253.473 241.766 254.348C241.766 255.186 241.492 255.888 240.945 256.453C240.417 257.018 239.633 257.301 238.594 257.301C237.555 257.301 236.771 257.018 236.242 256.453C235.732 255.888 235.477 255.186 235.477 254.348Z" fill="#230B59"/>
</svg>
