<svg width="360" height="81" viewBox="0 0 360 81" fill="none" xmlns="http://www.w3.org/2000/svg">
<path d="M3.00488 11.6968H8.73242V13H1.40283V0.914062H3.00488V11.6968ZM14.0366 13.166C12.8192 13.166 11.8286 12.7676 11.0649 11.9707C10.3013 11.1683 9.91943 10.0975 9.91943 8.7583V8.47607C9.91943 7.58512 10.0882 6.79102 10.4258 6.09375C10.7689 5.39095 11.2448 4.8431 11.8535 4.4502C12.4678 4.05176 13.1318 3.85254 13.8457 3.85254C15.0133 3.85254 15.9209 4.23714 16.5684 5.00635C17.2158 5.77555 17.5396 6.87679 17.5396 8.31006V8.94922H11.4551C11.4772 9.83464 11.7345 10.5513 12.2271 11.0991C12.7251 11.6414 13.356 11.9126 14.1196 11.9126C14.6619 11.9126 15.1213 11.8019 15.4976 11.5806C15.8739 11.3592 16.2031 11.0659 16.4854 10.7007L17.4233 11.4312C16.6707 12.5877 15.5418 13.166 14.0366 13.166ZM13.8457 5.11426C13.2259 5.11426 12.7057 5.34115 12.2852 5.79492C11.8646 6.24316 11.6045 6.87402 11.5049 7.6875H16.0039V7.57129C15.9596 6.79102 15.7493 6.18783 15.373 5.76172C14.9967 5.33008 14.4876 5.11426 13.8457 5.11426ZM21.4077 1.84375V4.01855H23.0845V5.20557H21.4077V10.7754C21.4077 11.1351 21.4824 11.4062 21.6318 11.5889C21.7812 11.766 22.0358 11.8545 22.3955 11.8545C22.5726 11.8545 22.8161 11.8213 23.126 11.7549V13C22.722 13.1107 22.3291 13.166 21.9473 13.166C21.2611 13.166 20.7437 12.9585 20.395 12.5435C20.0464 12.1284 19.8721 11.5391 19.8721 10.7754V5.20557H18.2368V4.01855H19.8721V1.84375H21.4077ZM34.6475 12.1118C34.0498 12.8146 33.1727 13.166 32.0161 13.166C31.0588 13.166 30.3283 12.8893 29.8247 12.3359C29.3267 11.777 29.0749 10.9525 29.0693 9.8623V4.01855H30.605V9.8208C30.605 11.1821 31.1584 11.8628 32.2651 11.8628C33.4383 11.8628 34.2186 11.4256 34.606 10.5513V4.01855H36.1416V13H34.6807L34.6475 12.1118ZM43.7119 10.6177C43.7119 10.2026 43.5542 9.88167 43.2388 9.65479C42.9289 9.42236 42.3838 9.22314 41.6035 9.05713C40.8288 8.89111 40.2118 8.69189 39.7524 8.45947C39.2987 8.22705 38.9611 7.95036 38.7397 7.62939C38.5239 7.30843 38.416 6.9266 38.416 6.48389C38.416 5.74788 38.7259 5.12533 39.3457 4.61621C39.971 4.1071 40.7679 3.85254 41.7363 3.85254C42.7546 3.85254 43.5791 4.1154 44.21 4.64111C44.8464 5.16683 45.1646 5.83919 45.1646 6.6582H43.6206C43.6206 6.23763 43.4408 5.87516 43.0811 5.5708C42.7269 5.26644 42.2786 5.11426 41.7363 5.11426C41.1774 5.11426 40.7402 5.236 40.4248 5.47949C40.1094 5.72298 39.9517 6.04118 39.9517 6.43408C39.9517 6.80485 40.0983 7.08431 40.3916 7.27246C40.6849 7.46061 41.2134 7.64046 41.9771 7.81201C42.7463 7.98356 43.3688 8.18831 43.8447 8.42627C44.3206 8.66423 44.672 8.95199 44.8989 9.28955C45.1313 9.62158 45.2476 10.0283 45.2476 10.5098C45.2476 11.3122 44.9266 11.9569 44.2847 12.4438C43.6427 12.9253 42.8099 13.166 41.7861 13.166C41.0667 13.166 40.4303 13.0387 39.877 12.7842C39.3236 12.5296 38.8892 12.1755 38.5737 11.7217C38.2638 11.2624 38.1089 10.7671 38.1089 10.2358H39.6445C39.6722 10.7505 39.877 11.16 40.2588 11.4644C40.6462 11.7632 41.1553 11.9126 41.7861 11.9126C42.3672 11.9126 42.832 11.7964 43.1807 11.564C43.5348 11.326 43.7119 11.0106 43.7119 10.6177ZM55.0674 11.9126C55.6152 11.9126 56.0939 11.7466 56.5034 11.4146C56.9129 11.0825 57.1398 10.6675 57.1841 10.1694H58.6367C58.609 10.6841 58.432 11.1738 58.1055 11.6387C57.779 12.1035 57.3418 12.4743 56.7939 12.751C56.2516 13.0277 55.6761 13.166 55.0674 13.166C53.8444 13.166 52.8704 12.7593 52.1455 11.9458C51.4261 11.1268 51.0664 10.009 51.0664 8.59229V8.33496C51.0664 7.46061 51.2269 6.68311 51.5479 6.00244C51.8688 5.32178 52.3281 4.79329 52.9258 4.41699C53.529 4.04069 54.2401 3.85254 55.0591 3.85254C56.0662 3.85254 56.9019 4.15413 57.5659 4.75732C58.2355 5.36051 58.5924 6.14355 58.6367 7.10645H57.1841C57.1398 6.52539 56.9185 6.04948 56.52 5.67871C56.1271 5.30241 55.6401 5.11426 55.0591 5.11426C54.2788 5.11426 53.6729 5.39648 53.2412 5.96094C52.8151 6.51986 52.6021 7.33057 52.6021 8.39307V8.68359C52.6021 9.71842 52.8151 10.5153 53.2412 11.0742C53.6673 11.6331 54.276 11.9126 55.0674 11.9126ZM65.9082 12.1118C65.3105 12.8146 64.4334 13.166 63.2769 13.166C62.3195 13.166 61.589 12.8893 61.0854 12.3359C60.5874 11.777 60.3356 10.9525 60.3301 9.8623V4.01855H61.8657V9.8208C61.8657 11.1821 62.4191 11.8628 63.5259 11.8628C64.6991 11.8628 65.4793 11.4256 65.8667 10.5513V4.01855H67.4023V13H65.9414L65.9082 12.1118ZM74.9727 10.6177C74.9727 10.2026 74.8149 9.88167 74.4995 9.65479C74.1896 9.42236 73.6445 9.22314 72.8643 9.05713C72.0895 8.89111 71.4725 8.69189 71.0132 8.45947C70.5594 8.22705 70.2218 7.95036 70.0005 7.62939C69.7847 7.30843 69.6768 6.9266 69.6768 6.48389C69.6768 5.74788 69.9867 5.12533 70.6064 4.61621C71.2318 4.1071 72.0286 3.85254 72.9971 3.85254C74.0153 3.85254 74.8398 4.1154 75.4707 4.64111C76.1071 5.16683 76.4253 5.83919 76.4253 6.6582H74.8813C74.8813 6.23763 74.7015 5.87516 74.3418 5.5708C73.9876 5.26644 73.5394 5.11426 72.9971 5.11426C72.4382 5.11426 72.001 5.236 71.6855 5.47949C71.3701 5.72298 71.2124 6.04118 71.2124 6.43408C71.2124 6.80485 71.359 7.08431 71.6523 7.27246C71.9456 7.46061 72.4741 7.64046 73.2378 7.81201C74.007 7.98356 74.6296 8.18831 75.1055 8.42627C75.5814 8.66423 75.9328 8.95199 76.1597 9.28955C76.3921 9.62158 76.5083 10.0283 76.5083 10.5098C76.5083 11.3122 76.1873 11.9569 75.5454 12.4438C74.9035 12.9253 74.0706 13.166 73.0469 13.166C72.3275 13.166 71.6911 13.0387 71.1377 12.7842C70.5843 12.5296 70.1499 12.1755 69.8345 11.7217C69.5246 11.2624 69.3696 10.7671 69.3696 10.2358H70.9053C70.9329 10.7505 71.1377 11.16 71.5195 11.4644C71.9069 11.7632 72.416 11.9126 73.0469 11.9126C73.6279 11.9126 74.0928 11.7964 74.4414 11.564C74.7956 11.326 74.9727 11.0106 74.9727 10.6177ZM80.5923 1.84375V4.01855H82.269V5.20557H80.5923V10.7754C80.5923 11.1351 80.667 11.4062 80.8164 11.5889C80.9658 11.766 81.2204 11.8545 81.5801 11.8545C81.7572 11.8545 82.0007 11.8213 82.3105 11.7549V13C81.9066 13.1107 81.5137 13.166 81.1318 13.166C80.4456 13.166 79.9282 12.9585 79.5796 12.5435C79.231 12.1284 79.0566 11.5391 79.0566 10.7754V5.20557H77.4214V4.01855H79.0566V1.84375H80.5923ZM83.4976 8.42627C83.4976 7.54639 83.6691 6.75505 84.0122 6.05225C84.3608 5.34945 84.8423 4.80713 85.4565 4.42529C86.0763 4.04346 86.7819 3.85254 87.5732 3.85254C88.7962 3.85254 89.784 4.27588 90.5366 5.12256C91.2948 5.96924 91.6738 7.09538 91.6738 8.50098V8.60889C91.6738 9.48324 91.505 10.269 91.1675 10.9663C90.8354 11.658 90.3568 12.1976 89.7314 12.585C89.1117 12.9723 88.3978 13.166 87.5898 13.166C86.3724 13.166 85.3846 12.7427 84.6265 11.896C83.8739 11.0493 83.4976 9.92871 83.4976 8.53418V8.42627ZM85.0415 8.60889C85.0415 9.60498 85.2712 10.4046 85.7305 11.0078C86.1953 11.611 86.8151 11.9126 87.5898 11.9126C88.3701 11.9126 88.9899 11.6082 89.4492 10.9995C89.9085 10.3853 90.1382 9.52751 90.1382 8.42627C90.1382 7.44124 89.903 6.64437 89.4326 6.03564C88.9678 5.42139 88.348 5.11426 87.5732 5.11426C86.8151 5.11426 86.2036 5.41585 85.7388 6.01904C85.2739 6.62223 85.0415 7.48551 85.0415 8.60889ZM95.0439 4.01855L95.0854 5.01465C95.744 4.23991 96.6322 3.85254 97.75 3.85254C99.0062 3.85254 99.8612 4.33398 100.315 5.29688C100.614 4.86523 101.001 4.5166 101.477 4.25098C101.958 3.98535 102.526 3.85254 103.179 3.85254C105.149 3.85254 106.15 4.89567 106.184 6.98193V13H104.648V7.07324C104.648 6.43132 104.501 5.95264 104.208 5.63721C103.915 5.31624 103.422 5.15576 102.73 5.15576C102.16 5.15576 101.687 5.32731 101.311 5.67041C100.935 6.00798 100.716 6.46452 100.655 7.04004V13H99.1113V7.11475C99.1113 5.80876 98.4722 5.15576 97.1938 5.15576C96.1867 5.15576 95.4977 5.58464 95.127 6.44238V13H93.5913V4.01855H95.0439ZM110.176 13H108.641V4.01855H110.176V13ZM108.516 1.63623C108.516 1.38721 108.591 1.17692 108.74 1.00537C108.895 0.833822 109.122 0.748047 109.421 0.748047C109.72 0.748047 109.947 0.833822 110.102 1.00537C110.257 1.17692 110.334 1.38721 110.334 1.63623C110.334 1.88525 110.257 2.09277 110.102 2.25879C109.947 2.4248 109.72 2.50781 109.421 2.50781C109.122 2.50781 108.895 2.4248 108.74 2.25879C108.591 2.09277 108.516 1.88525 108.516 1.63623ZM114.086 11.7466H119.34V13H112.21V11.8711L117.166 5.28857H112.285V4.01855H119.091V5.10596L114.086 11.7466ZM124.669 13.166C123.452 13.166 122.461 12.7676 121.698 11.9707C120.934 11.1683 120.552 10.0975 120.552 8.7583V8.47607C120.552 7.58512 120.721 6.79102 121.059 6.09375C121.402 5.39095 121.878 4.8431 122.486 4.4502C123.101 4.05176 123.765 3.85254 124.479 3.85254C125.646 3.85254 126.554 4.23714 127.201 5.00635C127.849 5.77555 128.172 6.87679 128.172 8.31006V8.94922H122.088C122.11 9.83464 122.367 10.5513 122.86 11.0991C123.358 11.6414 123.989 11.9126 124.752 11.9126C125.295 11.9126 125.754 11.8019 126.13 11.5806C126.507 11.3592 126.836 11.0659 127.118 10.7007L128.056 11.4312C127.304 12.5877 126.175 13.166 124.669 13.166ZM124.479 5.11426C123.859 5.11426 123.339 5.34115 122.918 5.79492C122.497 6.24316 122.237 6.87402 122.138 7.6875H126.637V7.57129C126.592 6.79102 126.382 6.18783 126.006 5.76172C125.63 5.33008 125.12 5.11426 124.479 5.11426ZM139.719 13C139.63 12.8229 139.558 12.5075 139.503 12.0537C138.789 12.7952 137.937 13.166 136.946 13.166C136.061 13.166 135.333 12.917 134.763 12.4189C134.199 11.9154 133.917 11.279 133.917 10.5098C133.917 9.57454 134.271 8.84961 134.979 8.33496C135.693 7.81478 136.694 7.55469 137.984 7.55469H139.478V6.84912C139.478 6.31234 139.318 5.88623 138.997 5.5708C138.676 5.24984 138.202 5.08936 137.577 5.08936C137.029 5.08936 136.57 5.2277 136.199 5.50439C135.828 5.78109 135.643 6.11589 135.643 6.50879H134.099C134.099 6.06055 134.257 5.62891 134.572 5.21387C134.893 4.79329 135.325 4.46126 135.867 4.21777C136.415 3.97428 137.015 3.85254 137.668 3.85254C138.703 3.85254 139.514 4.11263 140.101 4.63281C140.687 5.14746 140.992 5.85856 141.014 6.76611V10.8999C141.014 11.7244 141.119 12.3802 141.329 12.8672V13H139.719ZM137.17 11.8296C137.652 11.8296 138.108 11.7051 138.54 11.4561C138.972 11.207 139.284 10.8833 139.478 10.4849V8.64209H138.274C136.393 8.64209 135.452 9.19271 135.452 10.2939C135.452 10.7754 135.613 11.1517 135.934 11.4229C136.255 11.694 136.667 11.8296 137.17 11.8296ZM155.225 8.60889C155.225 9.97575 154.912 11.077 154.287 11.9126C153.661 12.7482 152.815 13.166 151.747 13.166C150.656 13.166 149.799 12.8201 149.173 12.1284V16.4531H147.638V4.01855H149.041L149.115 5.01465C149.741 4.23991 150.609 3.85254 151.722 3.85254C152.801 3.85254 153.653 4.25928 154.278 5.07275C154.909 5.88623 155.225 7.0179 155.225 8.46777V8.60889ZM153.689 8.43457C153.689 7.42188 153.473 6.62223 153.042 6.03564C152.61 5.44906 152.018 5.15576 151.265 5.15576C150.335 5.15576 149.638 5.56803 149.173 6.39258V10.6841C149.633 11.5031 150.335 11.9126 151.282 11.9126C152.018 11.9126 152.602 11.6221 153.033 11.041C153.47 10.4544 153.689 9.58561 153.689 8.43457ZM156.777 8.42627C156.777 7.54639 156.948 6.75505 157.292 6.05225C157.64 5.34945 158.122 4.80713 158.736 4.42529C159.356 4.04346 160.061 3.85254 160.853 3.85254C162.076 3.85254 163.063 4.27588 163.816 5.12256C164.574 5.96924 164.953 7.09538 164.953 8.50098V8.60889C164.953 9.48324 164.784 10.269 164.447 10.9663C164.115 11.658 163.636 12.1976 163.011 12.585C162.391 12.9723 161.677 13.166 160.869 13.166C159.652 13.166 158.664 12.7427 157.906 11.896C157.153 11.0493 156.777 9.92871 156.777 8.53418V8.42627ZM158.321 8.60889C158.321 9.60498 158.55 10.4046 159.01 11.0078C159.475 11.611 160.094 11.9126 160.869 11.9126C161.649 11.9126 162.269 11.6082 162.729 10.9995C163.188 10.3853 163.417 9.52751 163.417 8.42627C163.417 7.44124 163.182 6.64437 162.712 6.03564C162.247 5.42139 161.627 5.11426 160.853 5.11426C160.094 5.11426 159.483 5.41585 159.018 6.01904C158.553 6.62223 158.321 7.48551 158.321 8.60889ZM171.22 5.39648C170.988 5.35775 170.736 5.33838 170.465 5.33838C169.458 5.33838 168.774 5.76725 168.415 6.625V13H166.879V4.01855H168.373L168.398 5.05615C168.902 4.25374 169.615 3.85254 170.54 3.85254C170.838 3.85254 171.065 3.89128 171.22 3.96875V5.39648ZM175.138 1.84375V4.01855H176.815V5.20557H175.138V10.7754C175.138 11.1351 175.213 11.4062 175.362 11.5889C175.512 11.766 175.766 11.8545 176.126 11.8545C176.303 11.8545 176.547 11.8213 176.856 11.7549V13C176.452 13.1107 176.06 13.166 175.678 13.166C174.992 13.166 174.474 12.9585 174.125 12.5435C173.777 12.1284 173.603 11.5391 173.603 10.7754V5.20557H171.967V4.01855H173.603V1.84375H175.138ZM179.372 13V5.20557H177.952V4.01855H179.372V3.09717C179.372 2.13428 179.629 1.38997 180.144 0.864258C180.658 0.338542 181.386 0.0756836 182.327 0.0756836C182.681 0.0756836 183.032 0.122721 183.381 0.216797L183.298 1.46191C183.038 1.41211 182.761 1.38721 182.468 1.38721C181.97 1.38721 181.585 1.53385 181.314 1.82715C181.043 2.11491 180.907 2.52995 180.907 3.07227V4.01855H182.825V5.20557H180.907V13H179.372ZM184.12 8.42627C184.12 7.54639 184.291 6.75505 184.634 6.05225C184.983 5.34945 185.464 4.80713 186.079 4.42529C186.698 4.04346 187.404 3.85254 188.195 3.85254C189.418 3.85254 190.406 4.27588 191.159 5.12256C191.917 5.96924 192.296 7.09538 192.296 8.50098V8.60889C192.296 9.48324 192.127 10.269 191.79 10.9663C191.458 11.658 190.979 12.1976 190.354 12.585C189.734 12.9723 189.02 13.166 188.212 13.166C186.994 13.166 186.007 12.7427 185.249 11.896C184.496 11.0493 184.12 9.92871 184.12 8.53418V8.42627ZM185.664 8.60889C185.664 9.60498 185.893 10.4046 186.353 11.0078C186.817 11.611 187.437 11.9126 188.212 11.9126C188.992 11.9126 189.612 11.6082 190.071 10.9995C190.531 10.3853 190.76 9.52751 190.76 8.42627C190.76 7.44124 190.525 6.64437 190.055 6.03564C189.59 5.42139 188.97 5.11426 188.195 5.11426C187.437 5.11426 186.826 5.41585 186.361 6.01904C185.896 6.62223 185.664 7.48551 185.664 8.60889ZM195.89 13H194.354V0.25H195.89V13ZM200.024 13H198.488V4.01855H200.024V13ZM198.364 1.63623C198.364 1.38721 198.438 1.17692 198.588 1.00537C198.743 0.833822 198.97 0.748047 199.269 0.748047C199.567 0.748047 199.794 0.833822 199.949 1.00537C200.104 1.17692 200.182 1.38721 200.182 1.63623C200.182 1.88525 200.104 2.09277 199.949 2.25879C199.794 2.4248 199.567 2.50781 199.269 2.50781C198.97 2.50781 198.743 2.4248 198.588 2.25879C198.438 2.09277 198.364 1.88525 198.364 1.63623ZM202.083 8.42627C202.083 7.54639 202.254 6.75505 202.597 6.05225C202.946 5.34945 203.427 4.80713 204.042 4.42529C204.661 4.04346 205.367 3.85254 206.158 3.85254C207.381 3.85254 208.369 4.27588 209.122 5.12256C209.88 5.96924 210.259 7.09538 210.259 8.50098V8.60889C210.259 9.48324 210.09 10.269 209.752 10.9663C209.42 11.658 208.942 12.1976 208.316 12.585C207.697 12.9723 206.983 13.166 206.175 13.166C204.957 13.166 203.97 12.7427 203.211 11.896C202.459 11.0493 202.083 9.92871 202.083 8.53418V8.42627ZM203.626 8.60889C203.626 9.60498 203.856 10.4046 204.315 11.0078C204.78 11.611 205.4 11.9126 206.175 11.9126C206.955 11.9126 207.575 11.6082 208.034 10.9995C208.493 10.3853 208.723 9.52751 208.723 8.42627C208.723 7.44124 208.488 6.64437 208.018 6.03564C207.553 5.42139 206.933 5.11426 206.158 5.11426C205.4 5.11426 204.789 5.41585 204.324 6.01904C203.859 6.62223 203.626 7.48551 203.626 8.60889ZM217.987 4.01855V14.0376C217.987 15.7642 217.204 16.6274 215.638 16.6274C215.3 16.6274 214.987 16.5776 214.7 16.478V15.2495C214.877 15.2938 215.109 15.3159 215.397 15.3159C215.74 15.3159 216 15.2218 216.177 15.0337C216.36 14.8511 216.451 14.5301 216.451 14.0708V4.01855H217.987ZM216.293 1.63623C216.293 1.39274 216.368 1.18522 216.518 1.01367C216.673 0.836589 216.897 0.748047 217.19 0.748047C217.489 0.748047 217.716 0.833822 217.871 1.00537C218.026 1.17692 218.103 1.38721 218.103 1.63623C218.103 1.88525 218.026 2.09277 217.871 2.25879C217.716 2.4248 217.489 2.50781 217.19 2.50781C216.891 2.50781 216.667 2.4248 216.518 2.25879C216.368 2.09277 216.293 1.88525 216.293 1.63623ZM226.014 12.1118C225.416 12.8146 224.539 13.166 223.382 13.166C222.425 13.166 221.694 12.8893 221.191 12.3359C220.693 11.777 220.441 10.9525 220.436 9.8623V4.01855H221.971V9.8208C221.971 11.1821 222.525 11.8628 223.631 11.8628C224.805 11.8628 225.585 11.4256 225.972 10.5513V4.01855H227.508V13H226.047L226.014 12.1118ZM235.078 10.6177C235.078 10.2026 234.92 9.88167 234.605 9.65479C234.295 9.42236 233.75 9.22314 232.97 9.05713C232.195 8.89111 231.578 8.69189 231.119 8.45947C230.665 8.22705 230.327 7.95036 230.106 7.62939C229.89 7.30843 229.782 6.9266 229.782 6.48389C229.782 5.74788 230.092 5.12533 230.712 4.61621C231.337 4.1071 232.134 3.85254 233.103 3.85254C234.121 3.85254 234.945 4.1154 235.576 4.64111C236.213 5.16683 236.531 5.83919 236.531 6.6582H234.987C234.987 6.23763 234.807 5.87516 234.447 5.5708C234.093 5.26644 233.645 5.11426 233.103 5.11426C232.544 5.11426 232.106 5.236 231.791 5.47949C231.476 5.72298 231.318 6.04118 231.318 6.43408C231.318 6.80485 231.465 7.08431 231.758 7.27246C232.051 7.46061 232.58 7.64046 233.343 7.81201C234.112 7.98356 234.735 8.18831 235.211 8.42627C235.687 8.66423 236.038 8.95199 236.265 9.28955C236.498 9.62158 236.614 10.0283 236.614 10.5098C236.614 11.3122 236.293 11.9569 235.651 12.4438C235.009 12.9253 234.176 13.166 233.152 13.166C232.433 13.166 231.797 13.0387 231.243 12.7842C230.69 12.5296 230.255 12.1755 229.94 11.7217C229.63 11.2624 229.475 10.7671 229.475 10.2358H231.011C231.038 10.7505 231.243 11.16 231.625 11.4644C232.012 11.7632 232.521 11.9126 233.152 11.9126C233.733 11.9126 234.198 11.7964 234.547 11.564C234.901 11.326 235.078 11.0106 235.078 10.6177ZM240.698 1.84375V4.01855H242.375V5.20557H240.698V10.7754C240.698 11.1351 240.772 11.4062 240.922 11.5889C241.071 11.766 241.326 11.8545 241.686 11.8545C241.863 11.8545 242.106 11.8213 242.416 11.7549V13C242.012 13.1107 241.619 13.166 241.237 13.166C240.551 13.166 240.034 12.9585 239.685 12.5435C239.336 12.1284 239.162 11.5391 239.162 10.7754V5.20557H237.527V4.01855H239.162V1.84375H240.698ZM249.148 13V5.20557H247.729V4.01855H249.148V3.09717C249.148 2.13428 249.405 1.38997 249.92 0.864258C250.435 0.338542 251.162 0.0756836 252.103 0.0756836C252.457 0.0756836 252.809 0.122721 253.157 0.216797L253.074 1.46191C252.814 1.41211 252.537 1.38721 252.244 1.38721C251.746 1.38721 251.361 1.53385 251.09 1.82715C250.819 2.11491 250.684 2.52995 250.684 3.07227V4.01855H252.601V5.20557H250.684V13H249.148ZM253.896 8.42627C253.896 7.54639 254.068 6.75505 254.411 6.05225C254.759 5.34945 255.241 4.80713 255.855 4.42529C256.475 4.04346 257.18 3.85254 257.972 3.85254C259.195 3.85254 260.182 4.27588 260.935 5.12256C261.693 5.96924 262.072 7.09538 262.072 8.50098V8.60889C262.072 9.48324 261.903 10.269 261.566 10.9663C261.234 11.658 260.755 12.1976 260.13 12.585C259.51 12.9723 258.796 13.166 257.988 13.166C256.771 13.166 255.783 12.7427 255.025 11.896C254.272 11.0493 253.896 9.92871 253.896 8.53418V8.42627ZM255.44 8.60889C255.44 9.60498 255.67 10.4046 256.129 11.0078C256.594 11.611 257.214 11.9126 257.988 11.9126C258.769 11.9126 259.388 11.6082 259.848 10.9995C260.307 10.3853 260.537 9.52751 260.537 8.42627C260.537 7.44124 260.301 6.64437 259.831 6.03564C259.366 5.42139 258.746 5.11426 257.972 5.11426C257.214 5.11426 256.602 5.41585 256.137 6.01904C255.672 6.62223 255.44 7.48551 255.44 8.60889ZM268.339 5.39648C268.107 5.35775 267.855 5.33838 267.584 5.33838C266.577 5.33838 265.893 5.76725 265.534 6.625V13H263.998V4.01855H265.492L265.517 5.05615C266.021 4.25374 266.735 3.85254 267.659 3.85254C267.958 3.85254 268.184 3.89128 268.339 3.96875V5.39648ZM276.914 10.7505L279.006 4.01855H280.649L277.039 14.3862C276.48 15.8804 275.591 16.6274 274.374 16.6274L274.083 16.6025L273.511 16.4946V15.2495L273.926 15.2827C274.446 15.2827 274.85 15.1776 275.138 14.9673C275.431 14.757 275.672 14.3724 275.86 13.8135L276.2 12.9004L272.996 4.01855H274.673L276.914 10.7505ZM281.488 8.42627C281.488 7.54639 281.659 6.75505 282.002 6.05225C282.351 5.34945 282.833 4.80713 283.447 4.42529C284.067 4.04346 284.772 3.85254 285.563 3.85254C286.786 3.85254 287.774 4.27588 288.527 5.12256C289.285 5.96924 289.664 7.09538 289.664 8.50098V8.60889C289.664 9.48324 289.495 10.269 289.158 10.9663C288.826 11.658 288.347 12.1976 287.722 12.585C287.102 12.9723 286.388 13.166 285.58 13.166C284.363 13.166 283.375 12.7427 282.617 11.896C281.864 11.0493 281.488 9.92871 281.488 8.53418V8.42627ZM283.032 8.60889C283.032 9.60498 283.261 10.4046 283.721 11.0078C284.186 11.611 284.805 11.9126 285.58 11.9126C286.36 11.9126 286.98 11.6082 287.439 10.9995C287.899 10.3853 288.128 9.52751 288.128 8.42627C288.128 7.44124 287.893 6.64437 287.423 6.03564C286.958 5.42139 286.338 5.11426 285.563 5.11426C284.805 5.11426 284.194 5.41585 283.729 6.01904C283.264 6.62223 283.032 7.48551 283.032 8.60889ZM297.135 12.1118C296.537 12.8146 295.66 13.166 294.503 13.166C293.546 13.166 292.816 12.8893 292.312 12.3359C291.814 11.777 291.562 10.9525 291.557 9.8623V4.01855H293.092V9.8208C293.092 11.1821 293.646 11.8628 294.752 11.8628C295.926 11.8628 296.706 11.4256 297.093 10.5513V4.01855H298.629V13H297.168L297.135 12.1118ZM304.78 8.42627C304.78 7.54639 304.951 6.75505 305.294 6.05225C305.643 5.34945 306.125 4.80713 306.739 4.42529C307.359 4.04346 308.064 3.85254 308.855 3.85254C310.078 3.85254 311.066 4.27588 311.819 5.12256C312.577 5.96924 312.956 7.09538 312.956 8.50098V8.60889C312.956 9.48324 312.787 10.269 312.45 10.9663C312.118 11.658 311.639 12.1976 311.014 12.585C310.394 12.9723 309.68 13.166 308.872 13.166C307.655 13.166 306.667 12.7427 305.909 11.896C305.156 11.0493 304.78 9.92871 304.78 8.53418V8.42627ZM306.324 8.60889C306.324 9.60498 306.553 10.4046 307.013 11.0078C307.478 11.611 308.097 11.9126 308.872 11.9126C309.652 11.9126 310.272 11.6082 310.731 10.9995C311.191 10.3853 311.42 9.52751 311.42 8.42627C311.42 7.44124 311.185 6.64437 310.715 6.03564C310.25 5.42139 309.63 5.11426 308.855 5.11426C308.097 5.11426 307.486 5.41585 307.021 6.01904C306.556 6.62223 306.324 7.48551 306.324 8.60889ZM319.223 5.39648C318.991 5.35775 318.739 5.33838 318.468 5.33838C317.461 5.33838 316.777 5.76725 316.417 6.625V13H314.882V4.01855H316.376L316.401 5.05615C316.904 4.25374 317.618 3.85254 318.542 3.85254C318.841 3.85254 319.068 3.89128 319.223 3.96875V5.39648ZM332.463 8.60889C332.463 9.98128 332.147 11.0853 331.517 11.9209C330.886 12.751 330.039 13.166 328.977 13.166C327.842 13.166 326.965 12.7648 326.345 11.9624L326.271 13H324.859V0.25H326.395V5.00635C327.015 4.23714 327.87 3.85254 328.96 3.85254C330.05 3.85254 330.905 4.26481 331.525 5.08936C332.15 5.9139 332.463 7.04281 332.463 8.47607V8.60889ZM330.927 8.43457C330.927 7.38867 330.725 6.58073 330.321 6.01074C329.917 5.44076 329.336 5.15576 328.578 5.15576C327.565 5.15576 326.838 5.62614 326.395 6.56689V10.4517C326.865 11.3924 327.599 11.8628 328.595 11.8628C329.331 11.8628 329.903 11.5778 330.313 11.0078C330.722 10.4378 330.927 9.58008 330.927 8.43457ZM339.95 12.1118C339.353 12.8146 338.475 13.166 337.319 13.166C336.361 13.166 335.631 12.8893 335.127 12.3359C334.629 11.777 334.378 10.9525 334.372 9.8623V4.01855H335.908V9.8208C335.908 11.1821 336.461 11.8628 337.568 11.8628C338.741 11.8628 339.521 11.4256 339.909 10.5513V4.01855H341.444V13H339.983L339.95 12.1118ZM345.454 13H343.918V4.01855H345.454V13ZM343.793 1.63623C343.793 1.38721 343.868 1.17692 344.018 1.00537C344.173 0.833822 344.399 0.748047 344.698 0.748047C344.997 0.748047 345.224 0.833822 345.379 1.00537C345.534 1.17692 345.611 1.38721 345.611 1.63623C345.611 1.88525 345.534 2.09277 345.379 2.25879C345.224 2.4248 344.997 2.50781 344.698 2.50781C344.399 2.50781 344.173 2.4248 344.018 2.25879C343.868 2.09277 343.793 1.88525 343.793 1.63623ZM349.587 13H348.052V0.25H349.587V13ZM351.679 8.43457C351.679 7.05664 352.006 5.94987 352.659 5.11426C353.312 4.27311 354.167 3.85254 355.224 3.85254C356.275 3.85254 357.108 4.21224 357.722 4.93164V0.25H359.258V13H357.847L357.772 12.0371C357.158 12.7897 356.303 13.166 355.207 13.166C354.167 13.166 353.317 12.7399 352.659 11.8877C352.006 11.0355 351.679 9.92318 351.679 8.55078V8.43457ZM353.215 8.60889C353.215 9.62712 353.425 10.424 353.846 10.9995C354.266 11.575 354.847 11.8628 355.589 11.8628C356.563 11.8628 357.274 11.4256 357.722 10.5513V6.42578C357.263 5.5791 356.557 5.15576 355.605 5.15576C354.853 5.15576 354.266 5.44629 353.846 6.02734C353.425 6.6084 353.215 7.46891 353.215 8.60889ZM2.83057 34H1.29492V25.0186H2.83057V34ZM1.17041 22.6362C1.17041 22.3872 1.24512 22.1769 1.39453 22.0054C1.54948 21.8338 1.77637 21.748 2.0752 21.748C2.37402 21.748 2.60091 21.8338 2.75586 22.0054C2.91081 22.1769 2.98828 22.3872 2.98828 22.6362C2.98828 22.8853 2.91081 23.0928 2.75586 23.2588C2.60091 23.4248 2.37402 23.5078 2.0752 23.5078C1.77637 23.5078 1.54948 23.4248 1.39453 23.2588C1.24512 23.0928 1.17041 22.8853 1.17041 22.6362ZM7.37939 22.8438V25.0186H9.05615V26.2056H7.37939V31.7754C7.37939 32.1351 7.4541 32.4062 7.60352 32.5889C7.75293 32.766 8.00749 32.8545 8.36719 32.8545C8.54427 32.8545 8.78776 32.8213 9.09766 32.7549V34C8.69368 34.1107 8.30078 34.166 7.91895 34.166C7.23275 34.166 6.71533 33.9585 6.3667 33.5435C6.01807 33.1284 5.84375 32.5391 5.84375 31.7754V26.2056H4.2085V25.0186H5.84375V22.8438H7.37939ZM18.0127 31.7505L20.1045 25.0186H21.748L18.1372 35.3862C17.5783 36.8804 16.6901 37.6274 15.4727 37.6274L15.1821 37.6025L14.6094 37.4946V36.2495L15.0244 36.2827C15.5446 36.2827 15.9486 36.1776 16.2363 35.9673C16.5296 35.757 16.7703 35.3724 16.9585 34.8135L17.2988 33.9004L14.0947 25.0186H15.7715L18.0127 31.7505ZM22.5864 29.4263C22.5864 28.5464 22.758 27.755 23.1011 27.0522C23.4497 26.3494 23.9312 25.8071 24.5454 25.4253C25.1652 25.0435 25.8708 24.8525 26.6621 24.8525C27.8851 24.8525 28.8729 25.2759 29.6255 26.1226C30.3836 26.9692 30.7627 28.0954 30.7627 29.501V29.6089C30.7627 30.4832 30.5939 31.269 30.2563 31.9663C29.9243 32.658 29.4456 33.1976 28.8203 33.585C28.2005 33.9723 27.4867 34.166 26.6787 34.166C25.4613 34.166 24.4735 33.7427 23.7153 32.896C22.9627 32.0493 22.5864 30.9287 22.5864 29.5342V29.4263ZM24.1304 29.6089C24.1304 30.605 24.36 31.4046 24.8193 32.0078C25.2842 32.611 25.904 32.9126 26.6787 32.9126C27.459 32.9126 28.0788 32.6082 28.5381 31.9995C28.9974 31.3853 29.2271 30.5275 29.2271 29.4263C29.2271 28.4412 28.9919 27.6444 28.5215 27.0356C28.0566 26.4214 27.4368 26.1143 26.6621 26.1143C25.904 26.1143 25.2925 26.4159 24.8276 27.019C24.3628 27.6222 24.1304 28.4855 24.1304 29.6089ZM38.2334 33.1118C37.6357 33.8146 36.7586 34.166 35.6021 34.166C34.6447 34.166 33.9142 33.8893 33.4106 33.3359C32.9126 32.777 32.6608 31.9525 32.6553 30.8623V25.0186H34.1909V30.8208C34.1909 32.1821 34.7443 32.8628 35.8511 32.8628C37.0243 32.8628 37.8045 32.4256 38.1919 31.5513V25.0186H39.7275V34H38.2666L38.2334 33.1118ZM46.4097 26.3965C46.1772 26.3577 45.9255 26.3384 45.6543 26.3384C44.6471 26.3384 43.9637 26.7673 43.604 27.625V34H42.0684V25.0186H43.5625L43.5874 26.0562C44.091 25.2537 44.8049 24.8525 45.729 24.8525C46.0278 24.8525 46.2547 24.8913 46.4097 24.9688V26.3965ZM53.0586 31.6177C53.0586 31.2026 52.9009 30.8817 52.5854 30.6548C52.2756 30.4224 51.7305 30.2231 50.9502 30.0571C50.1755 29.8911 49.5584 29.6919 49.0991 29.4595C48.6453 29.2271 48.3078 28.9504 48.0864 28.6294C47.8706 28.3084 47.7627 27.9266 47.7627 27.4839C47.7627 26.7479 48.0726 26.1253 48.6924 25.6162C49.3177 25.1071 50.1146 24.8525 51.083 24.8525C52.1012 24.8525 52.9258 25.1154 53.5566 25.6411C54.193 26.1668 54.5112 26.8392 54.5112 27.6582H52.9673C52.9673 27.2376 52.7874 26.8752 52.4277 26.5708C52.0736 26.2664 51.6253 26.1143 51.083 26.1143C50.5241 26.1143 50.0869 26.236 49.7715 26.4795C49.4561 26.723 49.2983 27.0412 49.2983 27.4341C49.2983 27.8049 49.445 28.0843 49.7383 28.2725C50.0316 28.4606 50.5601 28.6405 51.3237 28.812C52.0929 28.9836 52.7155 29.1883 53.1914 29.4263C53.6673 29.6642 54.0187 29.952 54.2456 30.2896C54.478 30.6216 54.5942 31.0283 54.5942 31.5098C54.5942 32.3122 54.2733 32.9569 53.6313 33.4438C52.9894 33.9253 52.1566 34.166 51.1328 34.166C50.4134 34.166 49.777 34.0387 49.2236 33.7842C48.6702 33.5296 48.2358 33.1755 47.9204 32.7217C47.6105 32.2624 47.4556 31.7671 47.4556 31.2358H48.9912C49.0189 31.7505 49.2236 32.16 49.6055 32.4644C49.9928 32.7632 50.502 32.9126 51.1328 32.9126C51.7139 32.9126 52.1787 32.7964 52.5273 32.564C52.8815 32.326 53.0586 32.0106 53.0586 31.6177ZM60.3218 34.166C59.1043 34.166 58.1138 33.7676 57.3501 32.9707C56.5864 32.1683 56.2046 31.0975 56.2046 29.7583V29.4761C56.2046 28.5851 56.3734 27.791 56.7109 27.0938C57.054 26.391 57.5299 25.8431 58.1387 25.4502C58.7529 25.0518 59.417 24.8525 60.1309 24.8525C61.2985 24.8525 62.2061 25.2371 62.8535 26.0063C63.501 26.7756 63.8247 27.8768 63.8247 29.3101V29.9492H57.7402C57.7624 30.8346 58.0197 31.5513 58.5122 32.0991C59.0103 32.6414 59.6411 32.9126 60.4048 32.9126C60.9471 32.9126 61.4064 32.8019 61.7827 32.5806C62.159 32.3592 62.4883 32.0659 62.7705 31.7007L63.7085 32.4312C62.9559 33.5877 61.827 34.166 60.3218 34.166ZM60.1309 26.1143C59.5111 26.1143 58.9909 26.3411 58.5703 26.7949C58.1497 27.2432 57.8896 27.874 57.79 28.6875H62.2891V28.5713C62.2448 27.791 62.0345 27.1878 61.6582 26.7617C61.2819 26.3301 60.7728 26.1143 60.1309 26.1143ZM67.2778 34H65.7422V21.25H67.2778V34ZM70.4985 34V26.2056H69.0791V25.0186H70.4985V24.0972C70.4985 23.1343 70.7559 22.39 71.2705 21.8643C71.7852 21.3385 72.5129 21.0757 73.4536 21.0757C73.8078 21.0757 74.1592 21.1227 74.5078 21.2168L74.4248 22.4619C74.1647 22.4121 73.888 22.3872 73.5947 22.3872C73.0967 22.3872 72.7121 22.5339 72.4409 22.8271C72.1698 23.1149 72.0342 23.5299 72.0342 24.0723V25.0186H73.9517V26.2056H72.0342V34H70.4985ZM75.6035 36.4072L74.7319 35.8096C75.2521 35.0846 75.5233 34.3376 75.5454 33.5684V32.1821H77.0479V33.3857C77.0479 33.9447 76.9095 34.5036 76.6328 35.0625C76.3617 35.6214 76.0186 36.0697 75.6035 36.4072ZM88.752 34C88.6634 33.8229 88.5915 33.5075 88.5361 33.0537C87.8223 33.7952 86.9701 34.166 85.9795 34.166C85.0941 34.166 84.3664 33.917 83.7964 33.4189C83.2319 32.9154 82.9497 32.279 82.9497 31.5098C82.9497 30.5745 83.3039 29.8496 84.0122 29.335C84.7261 28.8148 85.7277 28.5547 87.0171 28.5547H88.5112V27.8491C88.5112 27.3123 88.3507 26.8862 88.0298 26.5708C87.7088 26.2498 87.2357 26.0894 86.6104 26.0894C86.0625 26.0894 85.6032 26.2277 85.2324 26.5044C84.8617 26.7811 84.6763 27.1159 84.6763 27.5088H83.1323C83.1323 27.0605 83.29 26.6289 83.6055 26.2139C83.9264 25.7933 84.3581 25.4613 84.9004 25.2178C85.4482 24.9743 86.0487 24.8525 86.7017 24.8525C87.7365 24.8525 88.5472 25.1126 89.1338 25.6328C89.7204 26.1475 90.0247 26.8586 90.0469 27.7661V31.8999C90.0469 32.7244 90.152 33.3802 90.3623 33.8672V34H88.752ZM86.2036 32.8296C86.6851 32.8296 87.1416 32.7051 87.5732 32.4561C88.0049 32.207 88.3175 31.8833 88.5112 31.4849V29.6421H87.3076C85.4261 29.6421 84.4854 30.1927 84.4854 31.2939C84.4854 31.7754 84.6458 32.1517 84.9668 32.4229C85.2878 32.694 85.7 32.8296 86.2036 32.8296ZM93.9067 25.0186L93.9565 26.1475C94.6427 25.2842 95.5392 24.8525 96.646 24.8525C98.5441 24.8525 99.5015 25.9233 99.5181 28.0649V34H97.9824V28.0566C97.9769 27.4092 97.8275 26.9305 97.5342 26.6206C97.2464 26.3107 96.7954 26.1558 96.1812 26.1558C95.6831 26.1558 95.2459 26.2886 94.8696 26.5542C94.4933 26.8198 94.2 27.1685 93.9897 27.6001V34H92.4541V25.0186H93.9067ZM101.46 29.4346C101.46 28.0566 101.787 26.9499 102.44 26.1143C103.093 25.2731 103.948 24.8525 105.005 24.8525C106.056 24.8525 106.889 25.2122 107.503 25.9316V21.25H109.039V34H107.628L107.553 33.0371C106.939 33.7897 106.084 34.166 104.988 34.166C103.948 34.166 103.098 33.7399 102.44 32.8877C101.787 32.0355 101.46 30.9232 101.46 29.5508V29.4346ZM102.996 29.6089C102.996 30.6271 103.206 31.424 103.627 31.9995C104.048 32.575 104.629 32.8628 105.37 32.8628C106.344 32.8628 107.055 32.4256 107.503 31.5513V27.4258C107.044 26.5791 106.339 26.1558 105.387 26.1558C104.634 26.1558 104.048 26.4463 103.627 27.0273C103.206 27.6084 102.996 28.4689 102.996 29.6089ZM115.24 29.4263C115.24 28.5464 115.411 27.755 115.754 27.0522C116.103 26.3494 116.584 25.8071 117.199 25.4253C117.819 25.0435 118.524 24.8525 119.315 24.8525C120.538 24.8525 121.526 25.2759 122.279 26.1226C123.037 26.9692 123.416 28.0954 123.416 29.501V29.6089C123.416 30.4832 123.247 31.269 122.91 31.9663C122.578 32.658 122.099 33.1976 121.474 33.585C120.854 33.9723 120.14 34.166 119.332 34.166C118.115 34.166 117.127 33.7427 116.369 32.896C115.616 32.0493 115.24 30.9287 115.24 29.5342V29.4263ZM116.784 29.6089C116.784 30.605 117.013 31.4046 117.473 32.0078C117.938 32.611 118.557 32.9126 119.332 32.9126C120.112 32.9126 120.732 32.6082 121.191 31.9995C121.651 31.3853 121.88 30.5275 121.88 29.4263C121.88 28.4412 121.645 27.6444 121.175 27.0356C120.71 26.4214 120.09 26.1143 119.315 26.1143C118.557 26.1143 117.946 26.4159 117.481 27.019C117.016 27.6222 116.784 28.4855 116.784 29.6089ZM130.887 33.1118C130.289 33.8146 129.412 34.166 128.255 34.166C127.298 34.166 126.568 33.8893 126.064 33.3359C125.566 32.777 125.314 31.9525 125.309 30.8623V25.0186H126.844V30.8208C126.844 32.1821 127.398 32.8628 128.504 32.8628C129.678 32.8628 130.458 32.4256 130.845 31.5513V25.0186H132.381V34H130.92L130.887 33.1118ZM139.063 26.3965C138.831 26.3577 138.579 26.3384 138.308 26.3384C137.3 26.3384 136.617 26.7673 136.257 27.625V34H134.722V25.0186H136.216L136.241 26.0562C136.744 25.2537 137.458 24.8525 138.382 24.8525C138.681 24.8525 138.908 24.8913 139.063 24.9688V26.3965ZM152.286 29.6089C152.286 30.9757 151.973 32.077 151.348 32.9126C150.723 33.7482 149.876 34.166 148.808 34.166C147.718 34.166 146.86 33.8201 146.235 33.1284V37.4531H144.699V25.0186H146.102L146.177 26.0146C146.802 25.2399 147.671 24.8525 148.783 24.8525C149.862 24.8525 150.715 25.2593 151.34 26.0728C151.971 26.8862 152.286 28.0179 152.286 29.4678V29.6089ZM150.75 29.4346C150.75 28.4219 150.535 27.6222 150.103 27.0356C149.671 26.4491 149.079 26.1558 148.327 26.1558C147.397 26.1558 146.7 26.568 146.235 27.3926V31.6841C146.694 32.5031 147.397 32.9126 148.343 32.9126C149.079 32.9126 149.663 32.6221 150.095 32.041C150.532 31.4544 150.75 30.5856 150.75 29.4346ZM153.838 29.4263C153.838 28.5464 154.01 27.755 154.353 27.0522C154.702 26.3494 155.183 25.8071 155.797 25.4253C156.417 25.0435 157.123 24.8525 157.914 24.8525C159.137 24.8525 160.125 25.2759 160.877 26.1226C161.636 26.9692 162.015 28.0954 162.015 29.501V29.6089C162.015 30.4832 161.846 31.269 161.508 31.9663C161.176 32.658 160.698 33.1976 160.072 33.585C159.452 33.9723 158.739 34.166 157.931 34.166C156.713 34.166 155.725 33.7427 154.967 32.896C154.215 32.0493 153.838 30.9287 153.838 29.5342V29.4263ZM155.382 29.6089C155.382 30.605 155.612 31.4046 156.071 32.0078C156.536 32.611 157.156 32.9126 157.931 32.9126C158.711 32.9126 159.331 32.6082 159.79 31.9995C160.249 31.3853 160.479 30.5275 160.479 29.4263C160.479 28.4412 160.244 27.6444 159.773 27.0356C159.309 26.4214 158.689 26.1143 157.914 26.1143C157.156 26.1143 156.544 26.4159 156.08 27.019C155.615 27.6222 155.382 28.4855 155.382 29.6089ZM171.893 31.8833L173.619 25.0186H175.155L172.54 34H171.295L169.112 27.1934L166.987 34H165.742L163.135 25.0186H164.663L166.431 31.7422L168.522 25.0186H169.759L171.893 31.8833ZM180.451 34.166C179.233 34.166 178.243 33.7676 177.479 32.9707C176.715 32.1683 176.333 31.0975 176.333 29.7583V29.4761C176.333 28.5851 176.502 27.791 176.84 27.0938C177.183 26.391 177.659 25.8431 178.268 25.4502C178.882 25.0518 179.546 24.8525 180.26 24.8525C181.427 24.8525 182.335 25.2371 182.982 26.0063C183.63 26.7756 183.954 27.8768 183.954 29.3101V29.9492H177.869C177.891 30.8346 178.149 31.5513 178.641 32.0991C179.139 32.6414 179.77 32.9126 180.534 32.9126C181.076 32.9126 181.535 32.8019 181.912 32.5806C182.288 32.3592 182.617 32.0659 182.899 31.7007L183.837 32.4312C183.085 33.5877 181.956 34.166 180.451 34.166ZM180.26 26.1143C179.64 26.1143 179.12 26.3411 178.699 26.7949C178.279 27.2432 178.019 27.874 177.919 28.6875H182.418V28.5713C182.374 27.791 182.163 27.1878 181.787 26.7617C181.411 26.3301 180.902 26.1143 180.26 26.1143ZM190.08 26.3965C189.847 26.3577 189.595 26.3384 189.324 26.3384C188.317 26.3384 187.634 26.7673 187.274 27.625V34H185.738V25.0186H187.232L187.257 26.0562C187.761 25.2537 188.475 24.8525 189.399 24.8525C189.698 24.8525 189.925 24.8913 190.08 24.9688V26.3965ZM192.387 34V26.2056H190.968V25.0186H192.387V24.0972C192.387 23.1343 192.645 22.39 193.159 21.8643C193.674 21.3385 194.402 21.0757 195.342 21.0757C195.696 21.0757 196.048 21.1227 196.396 21.2168L196.313 22.4619C196.053 22.4121 195.777 22.3872 195.483 22.3872C194.985 22.3872 194.601 22.5339 194.33 22.8271C194.058 23.1149 193.923 23.5299 193.923 24.0723V25.0186H195.84V26.2056H193.923V34H192.387ZM203.087 33.1118C202.489 33.8146 201.612 34.166 200.456 34.166C199.498 34.166 198.768 33.8893 198.264 33.3359C197.766 32.777 197.514 31.9525 197.509 30.8623V25.0186H199.044V30.8208C199.044 32.1821 199.598 32.8628 200.705 32.8628C201.878 32.8628 202.658 32.4256 203.045 31.5513V25.0186H204.581V34H203.12L203.087 33.1118ZM208.59 34H207.055V21.25H208.59V34ZM220.817 34C220.729 33.8229 220.657 33.5075 220.602 33.0537C219.888 33.7952 219.035 34.166 218.045 34.166C217.16 34.166 216.432 33.917 215.862 33.4189C215.297 32.9154 215.015 32.279 215.015 31.5098C215.015 30.5745 215.369 29.8496 216.078 29.335C216.792 28.8148 217.793 28.5547 219.083 28.5547H220.577V27.8491C220.577 27.3123 220.416 26.8862 220.095 26.5708C219.774 26.2498 219.301 26.0894 218.676 26.0894C218.128 26.0894 217.669 26.2277 217.298 26.5044C216.927 26.7811 216.742 27.1159 216.742 27.5088H215.198C215.198 27.0605 215.355 26.6289 215.671 26.2139C215.992 25.7933 216.424 25.4613 216.966 25.2178C217.514 24.9743 218.114 24.8525 218.767 24.8525C219.802 24.8525 220.613 25.1126 221.199 25.6328C221.786 26.1475 222.09 26.8586 222.112 27.7661V31.8999C222.112 32.7244 222.217 33.3802 222.428 33.8672V34H220.817ZM218.269 32.8296C218.75 32.8296 219.207 32.7051 219.639 32.4561C220.07 32.207 220.383 31.8833 220.577 31.4849V29.6421H219.373C217.492 29.6421 216.551 30.1927 216.551 31.2939C216.551 31.7754 216.711 32.1517 217.032 32.4229C217.353 32.694 217.765 32.8296 218.269 32.8296ZM230.064 33.1118C229.467 33.8146 228.59 34.166 227.433 34.166C226.476 34.166 225.745 33.8893 225.242 33.3359C224.744 32.777 224.492 31.9525 224.486 30.8623V25.0186H226.022V30.8208C226.022 32.1821 226.575 32.8628 227.682 32.8628C228.855 32.8628 229.636 32.4256 230.023 31.5513V25.0186H231.559V34H230.098L230.064 33.1118ZM235.983 22.8438V25.0186H237.66V26.2056H235.983V31.7754C235.983 32.1351 236.058 32.4062 236.207 32.5889C236.356 32.766 236.611 32.8545 236.971 32.8545C237.148 32.8545 237.391 32.8213 237.701 32.7549V34C237.297 34.1107 236.904 34.166 236.522 34.166C235.836 34.166 235.319 33.9585 234.97 33.5435C234.622 33.1284 234.447 32.5391 234.447 31.7754V26.2056H232.812V25.0186H234.447V22.8438H235.983ZM238.888 29.4263C238.888 28.5464 239.06 27.755 239.403 27.0522C239.751 26.3494 240.233 25.8071 240.847 25.4253C241.467 25.0435 242.173 24.8525 242.964 24.8525C244.187 24.8525 245.175 25.2759 245.927 26.1226C246.685 26.9692 247.064 28.0954 247.064 29.501V29.6089C247.064 30.4832 246.896 31.269 246.558 31.9663C246.226 32.658 245.747 33.1976 245.122 33.585C244.502 33.9723 243.788 34.166 242.98 34.166C241.763 34.166 240.775 33.7427 240.017 32.896C239.264 32.0493 238.888 30.9287 238.888 29.5342V29.4263ZM240.432 29.6089C240.432 30.605 240.662 31.4046 241.121 32.0078C241.586 32.611 242.206 32.9126 242.98 32.9126C243.761 32.9126 244.381 32.6082 244.84 31.9995C245.299 31.3853 245.529 30.5275 245.529 29.4263C245.529 28.4412 245.294 27.6444 244.823 27.0356C244.358 26.4214 243.739 26.1143 242.964 26.1143C242.206 26.1143 241.594 26.4159 241.129 27.019C240.665 27.6222 240.432 28.4855 240.432 29.6089ZM250.435 25.0186L250.476 26.0146C251.135 25.2399 252.023 24.8525 253.141 24.8525C254.397 24.8525 255.252 25.334 255.706 26.2969C256.004 25.8652 256.392 25.5166 256.868 25.251C257.349 24.9854 257.916 24.8525 258.569 24.8525C260.539 24.8525 261.541 25.8957 261.574 27.9819V34H260.039V28.0732C260.039 27.4313 259.892 26.9526 259.599 26.6372C259.305 26.3162 258.813 26.1558 258.121 26.1558C257.551 26.1558 257.078 26.3273 256.702 26.6704C256.325 27.008 256.107 27.4645 256.046 28.04V34H254.502V28.1147C254.502 26.8088 253.863 26.1558 252.584 26.1558C251.577 26.1558 250.888 26.5846 250.518 27.4424V34H248.982V25.0186H250.435ZM269.443 34C269.355 33.8229 269.283 33.5075 269.228 33.0537C268.514 33.7952 267.661 34.166 266.671 34.166C265.785 34.166 265.058 33.917 264.488 33.4189C263.923 32.9154 263.641 32.279 263.641 31.5098C263.641 30.5745 263.995 29.8496 264.704 29.335C265.417 28.8148 266.419 28.5547 267.708 28.5547H269.203V27.8491C269.203 27.3123 269.042 26.8862 268.721 26.5708C268.4 26.2498 267.927 26.0894 267.302 26.0894C266.754 26.0894 266.295 26.2277 265.924 26.5044C265.553 26.7811 265.368 27.1159 265.368 27.5088H263.824C263.824 27.0605 263.981 26.6289 264.297 26.2139C264.618 25.7933 265.049 25.4613 265.592 25.2178C266.14 24.9743 266.74 24.8525 267.393 24.8525C268.428 24.8525 269.239 25.1126 269.825 25.6328C270.412 26.1475 270.716 26.8586 270.738 27.7661V31.8999C270.738 32.7244 270.843 33.3802 271.054 33.8672V34H269.443ZM266.895 32.8296C267.376 32.8296 267.833 32.7051 268.265 32.4561C268.696 32.207 269.009 31.8833 269.203 31.4849V29.6421H267.999C266.118 29.6421 265.177 30.1927 265.177 31.2939C265.177 31.7754 265.337 32.1517 265.658 32.4229C265.979 32.694 266.391 32.8296 266.895 32.8296ZM275.229 22.8438V25.0186H276.906V26.2056H275.229V31.7754C275.229 32.1351 275.304 32.4062 275.453 32.5889C275.603 32.766 275.857 32.8545 276.217 32.8545C276.394 32.8545 276.637 32.8213 276.947 32.7549V34C276.543 34.1107 276.15 34.166 275.769 34.166C275.082 34.166 274.565 33.9585 274.216 33.5435C273.868 33.1284 273.693 32.5391 273.693 31.7754V26.2056H272.058V25.0186H273.693V22.8438H275.229ZM280.375 34H278.84V25.0186H280.375V34ZM278.715 22.6362C278.715 22.3872 278.79 22.1769 278.939 22.0054C279.094 21.8338 279.321 21.748 279.62 21.748C279.919 21.748 280.146 21.8338 280.301 22.0054C280.456 22.1769 280.533 22.3872 280.533 22.6362C280.533 22.8853 280.456 23.0928 280.301 23.2588C280.146 23.4248 279.919 23.5078 279.62 23.5078C279.321 23.5078 279.094 23.4248 278.939 23.2588C278.79 23.0928 278.715 22.8853 278.715 22.6362ZM282.434 29.4263C282.434 28.5464 282.606 27.755 282.949 27.0522C283.297 26.3494 283.779 25.8071 284.393 25.4253C285.013 25.0435 285.718 24.8525 286.51 24.8525C287.733 24.8525 288.721 25.2759 289.473 26.1226C290.231 26.9692 290.61 28.0954 290.61 29.501V29.6089C290.61 30.4832 290.442 31.269 290.104 31.9663C289.772 32.658 289.293 33.1976 288.668 33.585C288.048 33.9723 287.334 34.166 286.526 34.166C285.309 34.166 284.321 33.7427 283.563 32.896C282.81 32.0493 282.434 30.9287 282.434 29.5342V29.4263ZM283.978 29.6089C283.978 30.605 284.208 31.4046 284.667 32.0078C285.132 32.611 285.752 32.9126 286.526 32.9126C287.307 32.9126 287.926 32.6082 288.386 31.9995C288.845 31.3853 289.075 30.5275 289.075 29.4263C289.075 28.4412 288.84 27.6444 288.369 27.0356C287.904 26.4214 287.285 26.1143 286.51 26.1143C285.752 26.1143 285.14 26.4159 284.675 27.019C284.21 27.6222 283.978 28.4855 283.978 29.6089ZM293.989 25.0186L294.039 26.1475C294.725 25.2842 295.621 24.8525 296.728 24.8525C298.626 24.8525 299.583 25.9233 299.6 28.0649V34H298.064V28.0566C298.059 27.4092 297.91 26.9305 297.616 26.6206C297.328 26.3107 296.877 26.1558 296.263 26.1558C295.765 26.1558 295.328 26.2886 294.952 26.5542C294.575 26.8198 294.282 27.1685 294.072 27.6001V34H292.536V25.0186H293.989ZM314.085 31.8833L315.812 25.0186H317.347L314.732 34H313.487L311.304 27.1934L309.179 34H307.934L305.328 25.0186H306.855L308.623 31.7422L310.715 25.0186H311.952L314.085 31.8833ZM320.584 34H319.049V25.0186H320.584V34ZM318.924 22.6362C318.924 22.3872 318.999 22.1769 319.148 22.0054C319.303 21.8338 319.53 21.748 319.829 21.748C320.128 21.748 320.355 21.8338 320.51 22.0054C320.665 22.1769 320.742 22.3872 320.742 22.6362C320.742 22.8853 320.665 23.0928 320.51 23.2588C320.355 23.4248 320.128 23.5078 319.829 23.5078C319.53 23.5078 319.303 23.4248 319.148 23.2588C318.999 23.0928 318.924 22.8853 318.924 22.6362ZM324.718 34H323.183V21.25H324.718V34ZM328.852 34H327.316V21.25H328.852V34ZM2.60645 47.0186L2.64795 48.0146C3.30648 47.2399 4.19466 46.8525 5.3125 46.8525C6.56868 46.8525 7.42367 47.334 7.87744 48.2969C8.17627 47.8652 8.56364 47.5166 9.03955 47.251C9.521 46.9854 10.0882 46.8525 10.7412 46.8525C12.7113 46.8525 13.7129 47.8957 13.7461 49.9819V56H12.2104V50.0732C12.2104 49.4313 12.0638 48.9526 11.7705 48.6372C11.4772 48.3162 10.9847 48.1558 10.293 48.1558C9.72298 48.1558 9.24984 48.3273 8.87354 48.6704C8.49723 49.008 8.27865 49.4645 8.21777 50.04V56H6.67383V50.1147C6.67383 48.8088 6.03467 48.1558 4.75635 48.1558C3.74919 48.1558 3.06022 48.5846 2.68945 49.4424V56H1.15381V47.0186H2.60645ZM21.6152 56C21.5267 55.8229 21.4548 55.5075 21.3994 55.0537C20.6855 55.7952 19.8333 56.166 18.8428 56.166C17.9574 56.166 17.2297 55.917 16.6597 55.4189C16.0952 54.9154 15.813 54.279 15.813 53.5098C15.813 52.5745 16.1672 51.8496 16.8755 51.335C17.5894 50.8148 18.591 50.5547 19.8804 50.5547H21.3745V49.8491C21.3745 49.3123 21.214 48.8862 20.8931 48.5708C20.5721 48.2498 20.099 48.0894 19.4736 48.0894C18.9258 48.0894 18.4665 48.2277 18.0957 48.5044C17.7249 48.7811 17.5396 49.1159 17.5396 49.5088H15.9956C15.9956 49.0605 16.1533 48.6289 16.4688 48.2139C16.7897 47.7933 17.2214 47.4613 17.7637 47.2178C18.3115 46.9743 18.9119 46.8525 19.5649 46.8525C20.5998 46.8525 21.4105 47.1126 21.9971 47.6328C22.5837 48.1475 22.888 48.8586 22.9102 49.7661V53.8999C22.9102 54.7244 23.0153 55.3802 23.2256 55.8672V56H21.6152ZM19.0669 54.8296C19.5483 54.8296 20.0049 54.7051 20.4365 54.4561C20.8682 54.207 21.1808 53.8833 21.3745 53.4849V51.6421H20.1709C18.2894 51.6421 17.3486 52.1927 17.3486 53.2939C17.3486 53.7754 17.5091 54.1517 17.8301 54.4229C18.151 54.694 18.5633 54.8296 19.0669 54.8296ZM27.8242 51.8413L26.8613 52.8457V56H25.3257V43.25H26.8613V50.9614L27.6831 49.9736L30.4805 47.0186H32.3481L28.8535 50.7705L32.7549 56H30.9536L27.8242 51.8413ZM37.4946 56.166C36.2772 56.166 35.2866 55.7676 34.5229 54.9707C33.7593 54.1683 33.3774 53.0975 33.3774 51.7583V51.4761C33.3774 50.5851 33.5462 49.791 33.8838 49.0938C34.2269 48.391 34.7028 47.8431 35.3115 47.4502C35.9258 47.0518 36.5898 46.8525 37.3037 46.8525C38.4714 46.8525 39.3789 47.2371 40.0264 48.0063C40.6738 48.7756 40.9976 49.8768 40.9976 51.3101V51.9492H34.9131C34.9352 52.8346 35.1925 53.5513 35.6851 54.0991C36.1831 54.6414 36.814 54.9126 37.5776 54.9126C38.12 54.9126 38.5793 54.8019 38.9556 54.5806C39.3319 54.3592 39.6611 54.0659 39.9434 53.7007L40.8813 54.4312C40.1287 55.5877 38.9998 56.166 37.4946 56.166ZM37.3037 48.1143C36.6839 48.1143 36.1637 48.3411 35.7432 48.7949C35.3226 49.2432 35.0625 49.874 34.9629 50.6875H39.4619V50.5713C39.4176 49.791 39.2074 49.1878 38.8311 48.7617C38.4548 48.3301 37.9456 48.1143 37.3037 48.1143ZM49.0825 44.8438V47.0186H50.7593V48.2056H49.0825V53.7754C49.0825 54.1351 49.1572 54.4062 49.3066 54.5889C49.4561 54.766 49.7106 54.8545 50.0703 54.8545C50.2474 54.8545 50.4909 54.8213 50.8008 54.7549V56C50.3968 56.1107 50.0039 56.166 49.6221 56.166C48.9359 56.166 48.4185 55.9585 48.0698 55.5435C47.7212 55.1284 47.5469 54.5391 47.5469 53.7754V48.2056H45.9116V47.0186H47.5469V44.8438H49.0825ZM54.0962 48.106C54.7769 47.2703 55.6623 46.8525 56.7524 46.8525C58.6506 46.8525 59.6079 47.9233 59.6245 50.0649V56H58.0889V50.0566C58.0833 49.4092 57.9339 48.9305 57.6406 48.6206C57.3529 48.3107 56.9019 48.1558 56.2876 48.1558C55.7896 48.1558 55.3524 48.2886 54.9761 48.5542C54.5998 48.8198 54.3065 49.1685 54.0962 49.6001V56H52.5605V43.25H54.0962V48.106ZM65.6509 56.166C64.4334 56.166 63.4429 55.7676 62.6792 54.9707C61.9155 54.1683 61.5337 53.0975 61.5337 51.7583V51.4761C61.5337 50.5851 61.7025 49.791 62.04 49.0938C62.3831 48.391 62.859 47.8431 63.4678 47.4502C64.082 47.0518 64.7461 46.8525 65.46 46.8525C66.6276 46.8525 67.5352 47.2371 68.1826 48.0063C68.8301 48.7756 69.1538 49.8768 69.1538 51.3101V51.9492H63.0693C63.0915 52.8346 63.3488 53.5513 63.8413 54.0991C64.3394 54.6414 64.9702 54.9126 65.7339 54.9126C66.2762 54.9126 66.7355 54.8019 67.1118 54.5806C67.4881 54.3592 67.8174 54.0659 68.0996 53.7007L69.0376 54.4312C68.285 55.5877 67.1561 56.166 65.6509 56.166ZM65.46 48.1143C64.8402 48.1143 64.32 48.3411 63.8994 48.7949C63.4788 49.2432 63.2188 49.874 63.1191 50.6875H67.6182V50.5713C67.5739 49.791 67.3636 49.1878 66.9873 48.7617C66.611 48.3301 66.1019 48.1143 65.46 48.1143ZM76.5996 47.0186L76.6411 48.0146C77.2996 47.2399 78.1878 46.8525 79.3057 46.8525C80.5618 46.8525 81.4168 47.334 81.8706 48.2969C82.1694 47.8652 82.5568 47.5166 83.0327 47.251C83.5142 46.9854 84.0814 46.8525 84.7344 46.8525C86.7044 46.8525 87.7061 47.8957 87.7393 49.9819V56H86.2036V50.0732C86.2036 49.4313 86.057 48.9526 85.7637 48.6372C85.4704 48.3162 84.9779 48.1558 84.2861 48.1558C83.7161 48.1558 83.243 48.3273 82.8667 48.6704C82.4904 49.008 82.2718 49.4645 82.2109 50.04V56H80.667V50.1147C80.667 48.8088 80.0278 48.1558 78.7495 48.1558C77.7424 48.1558 77.0534 48.5846 76.6826 49.4424V56H75.147V47.0186H76.5996ZM89.6567 51.4263C89.6567 50.5464 89.8283 49.755 90.1714 49.0522C90.52 48.3494 91.0015 47.8071 91.6157 47.4253C92.2355 47.0435 92.9411 46.8525 93.7324 46.8525C94.9554 46.8525 95.9432 47.2759 96.6958 48.1226C97.4539 48.9692 97.833 50.0954 97.833 51.501V51.6089C97.833 52.4832 97.6642 53.269 97.3267 53.9663C96.9946 54.658 96.516 55.1976 95.8906 55.585C95.2708 55.9723 94.557 56.166 93.749 56.166C92.5316 56.166 91.5438 55.7427 90.7856 54.896C90.033 54.0493 89.6567 52.9287 89.6567 51.5342V51.4263ZM91.2007 51.6089C91.2007 52.605 91.4303 53.4046 91.8896 54.0078C92.3545 54.611 92.9743 54.9126 93.749 54.9126C94.5293 54.9126 95.1491 54.6082 95.6084 53.9995C96.0677 53.3853 96.2974 52.5275 96.2974 51.4263C96.2974 50.4412 96.0622 49.6444 95.5918 49.0356C95.127 48.4214 94.5072 48.1143 93.7324 48.1143C92.9743 48.1143 92.3628 48.4159 91.8979 49.019C91.4331 49.6222 91.2007 50.4855 91.2007 51.6089ZM104.988 53.6177C104.988 53.2026 104.831 52.8817 104.515 52.6548C104.205 52.4224 103.66 52.2231 102.88 52.0571C102.105 51.8911 101.488 51.6919 101.029 51.4595C100.575 51.2271 100.237 50.9504 100.016 50.6294C99.8003 50.3084 99.6924 49.9266 99.6924 49.4839C99.6924 48.7479 100.002 48.1253 100.622 47.6162C101.247 47.1071 102.044 46.8525 103.013 46.8525C104.031 46.8525 104.855 47.1154 105.486 47.6411C106.123 48.1668 106.441 48.8392 106.441 49.6582H104.897C104.897 49.2376 104.717 48.8752 104.357 48.5708C104.003 48.2664 103.555 48.1143 103.013 48.1143C102.454 48.1143 102.017 48.236 101.701 48.4795C101.386 48.723 101.228 49.0412 101.228 49.4341C101.228 49.8049 101.375 50.0843 101.668 50.2725C101.961 50.4606 102.49 50.6405 103.253 50.812C104.023 50.9836 104.645 51.1883 105.121 51.4263C105.597 51.6642 105.948 51.952 106.175 52.2896C106.408 52.6216 106.524 53.0283 106.524 53.5098C106.524 54.3122 106.203 54.9569 105.561 55.4438C104.919 55.9253 104.086 56.166 103.062 56.166C102.343 56.166 101.707 56.0387 101.153 55.7842C100.6 55.5296 100.166 55.1755 99.8501 54.7217C99.5402 54.2624 99.3853 53.7671 99.3853 53.2358H100.921C100.949 53.7505 101.153 54.16 101.535 54.4644C101.923 54.7632 102.432 54.9126 103.062 54.9126C103.644 54.9126 104.108 54.7964 104.457 54.564C104.811 54.326 104.988 54.0106 104.988 53.6177ZM110.608 44.8438V47.0186H112.285V48.2056H110.608V53.7754C110.608 54.1351 110.683 54.4062 110.832 54.5889C110.981 54.766 111.236 54.8545 111.596 54.8545C111.773 54.8545 112.016 54.8213 112.326 54.7549V56C111.922 56.1107 111.529 56.166 111.147 56.166C110.461 56.166 109.944 55.9585 109.595 55.5435C109.247 55.1284 109.072 54.5391 109.072 53.7754V48.2056H107.437V47.0186H109.072V44.8438H110.608ZM117.896 51.4263C117.896 50.5464 118.068 49.755 118.411 49.0522C118.759 48.3494 119.241 47.8071 119.855 47.4253C120.475 47.0435 121.18 46.8525 121.972 46.8525C123.195 46.8525 124.182 47.2759 124.935 48.1226C125.693 48.9692 126.072 50.0954 126.072 51.501V51.6089C126.072 52.4832 125.903 53.269 125.566 53.9663C125.234 54.658 124.755 55.1976 124.13 55.585C123.51 55.9723 122.796 56.166 121.988 56.166C120.771 56.166 119.783 55.7427 119.025 54.896C118.272 54.0493 117.896 52.9287 117.896 51.5342V51.4263ZM119.44 51.6089C119.44 52.605 119.67 53.4046 120.129 54.0078C120.594 54.611 121.214 54.9126 121.988 54.9126C122.769 54.9126 123.388 54.6082 123.848 53.9995C124.307 53.3853 124.537 52.5275 124.537 51.4263C124.537 50.4412 124.301 49.6444 123.831 49.0356C123.366 48.4214 122.746 48.1143 121.972 48.1143C121.214 48.1143 120.602 48.4159 120.137 49.019C119.672 49.6222 119.44 50.4855 119.44 51.6089ZM128.753 56V48.2056H127.334V47.0186H128.753V46.0972C128.753 45.1343 129.011 44.39 129.525 43.8643C130.04 43.3385 130.768 43.0757 131.708 43.0757C132.063 43.0757 132.414 43.1227 132.763 43.2168L132.68 44.4619C132.42 44.4121 132.143 44.3872 131.85 44.3872C131.352 44.3872 130.967 44.5339 130.696 44.8271C130.425 45.1149 130.289 45.5299 130.289 46.0723V47.0186H132.207V48.2056H130.289V56H128.753ZM141.063 53.7505L143.155 47.0186H144.799L141.188 57.3862C140.629 58.8804 139.741 59.6274 138.523 59.6274L138.233 59.6025L137.66 59.4946V58.2495L138.075 58.2827C138.595 58.2827 138.999 58.1776 139.287 57.9673C139.58 57.757 139.821 57.3724 140.009 56.8135L140.35 55.9004L137.146 47.0186H138.822L141.063 53.7505ZM145.637 51.4263C145.637 50.5464 145.809 49.755 146.152 49.0522C146.5 48.3494 146.982 47.8071 147.596 47.4253C148.216 47.0435 148.922 46.8525 149.713 46.8525C150.936 46.8525 151.924 47.2759 152.676 48.1226C153.434 48.9692 153.813 50.0954 153.813 51.501V51.6089C153.813 52.4832 153.645 53.269 153.307 53.9663C152.975 54.658 152.496 55.1976 151.871 55.585C151.251 55.9723 150.537 56.166 149.729 56.166C148.512 56.166 147.524 55.7427 146.766 54.896C146.014 54.0493 145.637 52.9287 145.637 51.5342V51.4263ZM147.181 51.6089C147.181 52.605 147.411 53.4046 147.87 54.0078C148.335 54.611 148.955 54.9126 149.729 54.9126C150.51 54.9126 151.13 54.6082 151.589 53.9995C152.048 53.3853 152.278 52.5275 152.278 51.4263C152.278 50.4412 152.043 49.6444 151.572 49.0356C151.107 48.4214 150.488 48.1143 149.713 48.1143C148.955 48.1143 148.343 48.4159 147.878 49.019C147.414 49.6222 147.181 50.4855 147.181 51.6089ZM161.284 55.1118C160.687 55.8146 159.809 56.166 158.653 56.166C157.695 56.166 156.965 55.8893 156.461 55.3359C155.963 54.777 155.712 53.9525 155.706 52.8623V47.0186H157.242V52.8208C157.242 54.1821 157.795 54.8628 158.902 54.8628C160.075 54.8628 160.855 54.4256 161.243 53.5513V47.0186H162.778V56H161.317L161.284 55.1118ZM169.46 48.3965C169.228 48.3577 168.976 48.3384 168.705 48.3384C167.698 48.3384 167.014 48.7673 166.655 49.625V56H165.119V47.0186H166.613L166.638 48.0562C167.142 47.2537 167.856 46.8525 168.78 46.8525C169.079 46.8525 169.306 46.8913 169.46 46.9688V48.3965ZM176.765 56H175.229V47.0186H176.765V56ZM175.105 44.6362C175.105 44.3872 175.18 44.1769 175.329 44.0054C175.484 43.8338 175.711 43.748 176.01 43.748C176.309 43.748 176.535 43.8338 176.69 44.0054C176.845 44.1769 176.923 44.3872 176.923 44.6362C176.923 44.8853 176.845 45.0928 176.69 45.2588C176.535 45.4248 176.309 45.5078 176.01 45.5078C175.711 45.5078 175.484 45.4248 175.329 45.2588C175.18 45.0928 175.105 44.8853 175.105 44.6362ZM180.683 47.0186L180.733 48.1475C181.419 47.2842 182.316 46.8525 183.422 46.8525C185.32 46.8525 186.278 47.9233 186.294 50.0649V56H184.759V50.0566C184.753 49.4092 184.604 48.9305 184.311 48.6206C184.023 48.3107 183.572 48.1558 182.958 48.1558C182.459 48.1558 182.022 48.2886 181.646 48.5542C181.27 48.8198 180.976 49.1685 180.766 49.6001V56H179.23V47.0186H180.683ZM191.574 53.9165L193.798 47.0186H195.367L192.146 56H190.976L187.722 47.0186H189.291L191.574 53.9165ZM200.456 56.166C199.238 56.166 198.248 55.7676 197.484 54.9707C196.72 54.1683 196.338 53.0975 196.338 51.7583V51.4761C196.338 50.5851 196.507 49.791 196.845 49.0938C197.188 48.391 197.664 47.8431 198.272 47.4502C198.887 47.0518 199.551 46.8525 200.265 46.8525C201.432 46.8525 202.34 47.2371 202.987 48.0063C203.635 48.7756 203.958 49.8768 203.958 51.3101V51.9492H197.874C197.896 52.8346 198.153 53.5513 198.646 54.0991C199.144 54.6414 199.775 54.9126 200.539 54.9126C201.081 54.9126 201.54 54.8019 201.917 54.5806C202.293 54.3592 202.622 54.0659 202.904 53.7007L203.842 54.4312C203.09 55.5877 201.961 56.166 200.456 56.166ZM200.265 48.1143C199.645 48.1143 199.125 48.3411 198.704 48.7949C198.284 49.2432 198.023 49.874 197.924 50.6875H202.423V50.5713C202.379 49.791 202.168 49.1878 201.792 48.7617C201.416 48.3301 200.907 48.1143 200.265 48.1143ZM210.973 53.6177C210.973 53.2026 210.815 52.8817 210.5 52.6548C210.19 52.4224 209.645 52.2231 208.864 52.0571C208.09 51.8911 207.472 51.6919 207.013 51.4595C206.559 51.2271 206.222 50.9504 206 50.6294C205.785 50.3084 205.677 49.9266 205.677 49.4839C205.677 48.7479 205.987 48.1253 206.606 47.6162C207.232 47.1071 208.029 46.8525 208.997 46.8525C210.015 46.8525 210.84 47.1154 211.471 47.6411C212.107 48.1668 212.425 48.8392 212.425 49.6582H210.881C210.881 49.2376 210.701 48.8752 210.342 48.5708C209.988 48.2664 209.539 48.1143 208.997 48.1143C208.438 48.1143 208.001 48.236 207.686 48.4795C207.37 48.723 207.212 49.0412 207.212 49.4341C207.212 49.8049 207.359 50.0843 207.652 50.2725C207.946 50.4606 208.474 50.6405 209.238 50.812C210.007 50.9836 210.63 51.1883 211.105 51.4263C211.581 51.6642 211.933 51.952 212.16 52.2896C212.392 52.6216 212.508 53.0283 212.508 53.5098C212.508 54.3122 212.187 54.9569 211.545 55.4438C210.903 55.9253 210.071 56.166 209.047 56.166C208.327 56.166 207.691 56.0387 207.138 55.7842C206.584 55.5296 206.15 55.1755 205.834 54.7217C205.525 54.2624 205.37 53.7671 205.37 53.2358H206.905C206.933 53.7505 207.138 54.16 207.52 54.4644C207.907 54.7632 208.416 54.9126 209.047 54.9126C209.628 54.9126 210.093 54.7964 210.441 54.564C210.796 54.326 210.973 54.0106 210.973 53.6177ZM216.592 44.8438V47.0186H218.269V48.2056H216.592V53.7754C216.592 54.1351 216.667 54.4062 216.816 54.5889C216.966 54.766 217.22 54.8545 217.58 54.8545C217.757 54.8545 218.001 54.8213 218.311 54.7549V56C217.907 56.1107 217.514 56.166 217.132 56.166C216.446 56.166 215.928 55.9585 215.58 55.5435C215.231 55.1284 215.057 54.5391 215.057 53.7754V48.2056H213.421V47.0186H215.057V44.8438H216.592ZM221.515 47.0186L221.556 48.0146C222.215 47.2399 223.103 46.8525 224.221 46.8525C225.477 46.8525 226.332 47.334 226.786 48.2969C227.084 47.8652 227.472 47.5166 227.948 47.251C228.429 46.9854 228.996 46.8525 229.649 46.8525C231.619 46.8525 232.621 47.8957 232.654 49.9819V56H231.119V50.0732C231.119 49.4313 230.972 48.9526 230.679 48.6372C230.385 48.3162 229.893 48.1558 229.201 48.1558C228.631 48.1558 228.158 48.3273 227.782 48.6704C227.405 49.008 227.187 49.4645 227.126 50.04V56H225.582V50.1147C225.582 48.8088 224.943 48.1558 223.665 48.1558C222.657 48.1558 221.968 48.5846 221.598 49.4424V56H220.062V47.0186H221.515ZM238.706 56.166C237.488 56.166 236.498 55.7676 235.734 54.9707C234.97 54.1683 234.588 53.0975 234.588 51.7583V51.4761C234.588 50.5851 234.757 49.791 235.095 49.0938C235.438 48.391 235.914 47.8431 236.522 47.4502C237.137 47.0518 237.801 46.8525 238.515 46.8525C239.682 46.8525 240.59 47.2371 241.237 48.0063C241.885 48.7756 242.208 49.8768 242.208 51.3101V51.9492H236.124C236.146 52.8346 236.403 53.5513 236.896 54.0991C237.394 54.6414 238.025 54.9126 238.789 54.9126C239.331 54.9126 239.79 54.8019 240.167 54.5806C240.543 54.3592 240.872 54.0659 241.154 53.7007L242.092 54.4312C241.34 55.5877 240.211 56.166 238.706 56.166ZM238.515 48.1143C237.895 48.1143 237.375 48.3411 236.954 48.7949C236.534 49.2432 236.273 49.874 236.174 50.6875H240.673V50.5713C240.629 49.791 240.418 49.1878 240.042 48.7617C239.666 48.3301 239.157 48.1143 238.515 48.1143ZM245.446 47.0186L245.496 48.1475C246.182 47.2842 247.078 46.8525 248.185 46.8525C250.083 46.8525 251.041 47.9233 251.057 50.0649V56H249.521V50.0566C249.516 49.4092 249.367 48.9305 249.073 48.6206C248.785 48.3107 248.334 48.1558 247.72 48.1558C247.222 48.1558 246.785 48.2886 246.409 48.5542C246.032 48.8198 245.739 49.1685 245.529 49.6001V56H243.993V47.0186H245.446ZM255.457 44.8438V47.0186H257.133V48.2056H255.457V53.7754C255.457 54.1351 255.531 54.4062 255.681 54.5889C255.83 54.766 256.085 54.8545 256.444 54.8545C256.621 54.8545 256.865 54.8213 257.175 54.7549V56C256.771 56.1107 256.378 56.166 255.996 56.166C255.31 56.166 254.792 55.9585 254.444 55.5435C254.095 55.1284 253.921 54.5391 253.921 53.7754V48.2056H252.286V47.0186H253.921V44.8438H255.457ZM264.164 53.6177C264.164 53.2026 264.006 52.8817 263.691 52.6548C263.381 52.4224 262.836 52.2231 262.056 52.0571C261.281 51.8911 260.664 51.6919 260.205 51.4595C259.751 51.2271 259.413 50.9504 259.192 50.6294C258.976 50.3084 258.868 49.9266 258.868 49.4839C258.868 48.7479 259.178 48.1253 259.798 47.6162C260.423 47.1071 261.22 46.8525 262.188 46.8525C263.207 46.8525 264.031 47.1154 264.662 47.6411C265.299 48.1668 265.617 48.8392 265.617 49.6582H264.073C264.073 49.2376 263.893 48.8752 263.533 48.5708C263.179 48.2664 262.731 48.1143 262.188 48.1143C261.63 48.1143 261.192 48.236 260.877 48.4795C260.562 48.723 260.404 49.0412 260.404 49.4341C260.404 49.8049 260.55 50.0843 260.844 50.2725C261.137 50.4606 261.666 50.6405 262.429 50.812C263.198 50.9836 263.821 51.1883 264.297 51.4263C264.773 51.6642 265.124 51.952 265.351 52.2896C265.583 52.6216 265.7 53.0283 265.7 53.5098C265.7 54.3122 265.379 54.9569 264.737 55.4438C264.095 55.9253 263.262 56.166 262.238 56.166C261.519 56.166 260.882 56.0387 260.329 55.7842C259.776 55.5296 259.341 55.1755 259.026 54.7217C258.716 54.2624 258.561 53.7671 258.561 53.2358H260.097C260.124 53.7505 260.329 54.16 260.711 54.4644C261.098 54.7632 261.607 54.9126 262.238 54.9126C262.819 54.9126 263.284 54.7964 263.633 54.564C263.987 54.326 264.164 54.0106 264.164 53.6177ZM267.65 58.4072L266.779 57.8096C267.299 57.0846 267.57 56.3376 267.592 55.5684V54.1821H269.095V55.3857C269.095 55.9447 268.956 56.5036 268.68 57.0625C268.409 57.6214 268.065 58.0697 267.65 58.4072ZM274.847 51.4263C274.847 50.5464 275.019 49.755 275.362 49.0522C275.71 48.3494 276.192 47.8071 276.806 47.4253C277.426 47.0435 278.132 46.8525 278.923 46.8525C280.146 46.8525 281.134 47.2759 281.886 48.1226C282.644 48.9692 283.023 50.0954 283.023 51.501V51.6089C283.023 52.4832 282.855 53.269 282.517 53.9663C282.185 54.658 281.706 55.1976 281.081 55.585C280.461 55.9723 279.747 56.166 278.939 56.166C277.722 56.166 276.734 55.7427 275.976 54.896C275.223 54.0493 274.847 52.9287 274.847 51.5342V51.4263ZM276.391 51.6089C276.391 52.605 276.621 53.4046 277.08 54.0078C277.545 54.611 278.165 54.9126 278.939 54.9126C279.72 54.9126 280.34 54.6082 280.799 53.9995C281.258 53.3853 281.488 52.5275 281.488 51.4263C281.488 50.4412 281.253 49.6444 280.782 49.0356C280.317 48.4214 279.698 48.1143 278.923 48.1143C278.165 48.1143 277.553 48.4159 277.088 49.019C276.624 49.6222 276.391 50.4855 276.391 51.6089ZM292.536 51.6089C292.536 52.9757 292.223 54.077 291.598 54.9126C290.973 55.7482 290.126 56.166 289.058 56.166C287.968 56.166 287.11 55.8201 286.485 55.1284V59.4531H284.949V47.0186H286.352L286.427 48.0146C287.052 47.2399 287.921 46.8525 289.033 46.8525C290.112 46.8525 290.965 47.2593 291.59 48.0728C292.221 48.8862 292.536 50.0179 292.536 51.4678V51.6089ZM291 51.4346C291 50.4219 290.785 49.6222 290.353 49.0356C289.921 48.4491 289.329 48.1558 288.577 48.1558C287.647 48.1558 286.95 48.568 286.485 49.3926V53.6841C286.944 54.5031 287.647 54.9126 288.593 54.9126C289.329 54.9126 289.913 54.6221 290.345 54.041C290.782 53.4544 291 52.5856 291 51.4346ZM296.579 44.8438V47.0186H298.255V48.2056H296.579V53.7754C296.579 54.1351 296.653 54.4062 296.803 54.5889C296.952 54.766 297.207 54.8545 297.566 54.8545C297.743 54.8545 297.987 54.8213 298.297 54.7549V56C297.893 56.1107 297.5 56.166 297.118 56.166C296.432 56.166 295.915 55.9585 295.566 55.5435C295.217 55.1284 295.043 54.5391 295.043 53.7754V48.2056H293.408V47.0186H295.043V44.8438H296.579ZM301.725 56H300.189V47.0186H301.725V56ZM300.065 44.6362C300.065 44.3872 300.14 44.1769 300.289 44.0054C300.444 43.8338 300.671 43.748 300.97 43.748C301.269 43.748 301.495 43.8338 301.65 44.0054C301.805 44.1769 301.883 44.3872 301.883 44.6362C301.883 44.8853 301.805 45.0928 301.65 45.2588C301.495 45.4248 301.269 45.5078 300.97 45.5078C300.671 45.5078 300.444 45.4248 300.289 45.2588C300.14 45.0928 300.065 44.8853 300.065 44.6362ZM305.635 47.0186L305.676 48.0146C306.335 47.2399 307.223 46.8525 308.341 46.8525C309.597 46.8525 310.452 47.334 310.906 48.2969C311.205 47.8652 311.592 47.5166 312.068 47.251C312.549 46.9854 313.117 46.8525 313.77 46.8525C315.74 46.8525 316.741 47.8957 316.774 49.9819V56H315.239V50.0732C315.239 49.4313 315.092 48.9526 314.799 48.6372C314.506 48.3162 314.013 48.1558 313.321 48.1558C312.751 48.1558 312.278 48.3273 311.902 48.6704C311.526 49.008 311.307 49.4645 311.246 50.04V56H309.702V50.1147C309.702 48.8088 309.063 48.1558 307.785 48.1558C306.778 48.1558 306.089 48.5846 305.718 49.4424V56H304.182V47.0186H305.635ZM320.767 56H319.231V47.0186H320.767V56ZM319.107 44.6362C319.107 44.3872 319.182 44.1769 319.331 44.0054C319.486 43.8338 319.713 43.748 320.012 43.748C320.311 43.748 320.537 43.8338 320.692 44.0054C320.847 44.1769 320.925 44.3872 320.925 44.6362C320.925 44.8853 320.847 45.0928 320.692 45.2588C320.537 45.4248 320.311 45.5078 320.012 45.5078C319.713 45.5078 319.486 45.4248 319.331 45.2588C319.182 45.0928 319.107 44.8853 319.107 44.6362ZM324.677 54.7466H329.931V56H322.801V54.8711L327.756 48.2886H322.875V47.0186H329.682V48.106L324.677 54.7466ZM333.334 56H331.799V47.0186H333.334V56ZM331.674 44.6362C331.674 44.3872 331.749 44.1769 331.898 44.0054C332.053 43.8338 332.28 43.748 332.579 43.748C332.878 43.748 333.105 43.8338 333.26 44.0054C333.415 44.1769 333.492 44.3872 333.492 44.6362C333.492 44.8853 333.415 45.0928 333.26 45.2588C333.105 45.4248 332.878 45.5078 332.579 45.5078C332.28 45.5078 332.053 45.4248 331.898 45.2588C331.749 45.0928 331.674 44.8853 331.674 44.6362ZM337.252 47.0186L337.302 48.1475C337.988 47.2842 338.885 46.8525 339.992 46.8525C341.89 46.8525 342.847 47.9233 342.864 50.0649V56H341.328V50.0566C341.323 49.4092 341.173 48.9305 340.88 48.6206C340.592 48.3107 340.141 48.1558 339.527 48.1558C339.029 48.1558 338.592 48.2886 338.215 48.5542C337.839 48.8198 337.546 49.1685 337.335 49.6001V56H335.8V47.0186H337.252ZM344.814 51.4346C344.814 50.0345 345.138 48.9222 345.786 48.0977C346.433 47.2676 347.291 46.8525 348.359 46.8525C349.455 46.8525 350.31 47.2399 350.924 48.0146L350.999 47.0186H352.401V55.7842C352.401 56.9463 352.056 57.8621 351.364 58.5317C350.678 59.2013 349.753 59.5361 348.591 59.5361C347.944 59.5361 347.31 59.3978 346.69 59.1211C346.071 58.8444 345.597 58.4653 345.271 57.9839L346.068 57.0625C346.726 57.876 347.532 58.2827 348.483 58.2827C349.23 58.2827 349.812 58.0724 350.227 57.6519C350.647 57.2313 350.857 56.6392 350.857 55.8755V55.1035C350.243 55.8118 349.405 56.166 348.342 56.166C347.291 56.166 346.439 55.7427 345.786 54.896C345.138 54.0493 344.814 52.8955 344.814 51.4346ZM346.358 51.6089C346.358 52.6216 346.566 53.4185 346.981 53.9995C347.396 54.575 347.977 54.8628 348.724 54.8628C349.693 54.8628 350.404 54.4229 350.857 53.543V49.4424C350.387 48.5846 349.681 48.1558 348.741 48.1558C347.994 48.1558 347.41 48.4463 346.989 49.0273C346.569 49.6084 346.358 50.4689 346.358 51.6089ZM4.10059 74.7505L6.19238 68.0186H7.83594L4.2251 78.3862C3.66618 79.8804 2.77799 80.6274 1.56055 80.6274L1.27002 80.6025L0.697266 80.4946V79.2495L1.1123 79.2827C1.63249 79.2827 2.03646 79.1776 2.32422 78.9673C2.61751 78.757 2.85824 78.3724 3.04639 77.8135L3.38672 76.9004L0.182617 68.0186H1.85938L4.10059 74.7505ZM8.67432 72.4263C8.67432 71.5464 8.84587 70.755 9.18896 70.0522C9.5376 69.3494 10.019 68.8071 10.6333 68.4253C11.2531 68.0435 11.9587 67.8525 12.75 67.8525C13.973 67.8525 14.9608 68.2759 15.7134 69.1226C16.4715 69.9692 16.8506 71.0954 16.8506 72.501V72.6089C16.8506 73.4832 16.6818 74.269 16.3442 74.9663C16.0122 75.658 15.5335 76.1976 14.9082 76.585C14.2884 76.9723 13.5745 77.166 12.7666 77.166C11.5492 77.166 10.5614 76.7427 9.80322 75.896C9.05062 75.0493 8.67432 73.9287 8.67432 72.5342V72.4263ZM10.2183 72.6089C10.2183 73.605 10.4479 74.4046 10.9072 75.0078C11.3721 75.611 11.9919 75.9126 12.7666 75.9126C13.5469 75.9126 14.1667 75.6082 14.626 74.9995C15.0853 74.3853 15.3149 73.5275 15.3149 72.4263C15.3149 71.4412 15.0798 70.6444 14.6094 70.0356C14.1445 69.4214 13.5247 69.1143 12.75 69.1143C11.9919 69.1143 11.3804 69.4159 10.9155 70.019C10.4507 70.6222 10.2183 71.4855 10.2183 72.6089ZM24.3213 76.1118C23.7236 76.8146 22.8465 77.166 21.6899 77.166C20.7326 77.166 20.0021 76.8893 19.4985 76.3359C19.0005 75.777 18.7487 74.9525 18.7432 73.8623V68.0186H20.2788V73.8208C20.2788 75.1821 20.8322 75.8628 21.939 75.8628C23.1121 75.8628 23.8924 75.4256 24.2798 74.5513V68.0186H25.8154V77H24.3545L24.3213 76.1118ZM32.4976 69.3965C32.2651 69.3577 32.0133 69.3384 31.7422 69.3384C30.735 69.3384 30.0516 69.7673 29.6919 70.625V77H28.1562V68.0186H29.6504L29.6753 69.0562C30.1789 68.2537 30.8927 67.8525 31.8169 67.8525C32.1157 67.8525 32.3426 67.8913 32.4976 67.9688V69.3965ZM45.7207 72.6089C45.7207 73.9757 45.408 75.077 44.7827 75.9126C44.1574 76.7482 43.3107 77.166 42.2427 77.166C41.1525 77.166 40.2948 76.8201 39.6694 76.1284V80.4531H38.1338V68.0186H39.5366L39.6113 69.0146C40.2367 68.2399 41.1055 67.8525 42.2178 67.8525C43.2969 67.8525 44.1491 68.2593 44.7744 69.0728C45.4053 69.8862 45.7207 71.0179 45.7207 72.4678V72.6089ZM44.1851 72.4346C44.1851 71.4219 43.9692 70.6222 43.5376 70.0356C43.106 69.4491 42.5138 69.1558 41.7612 69.1558C40.8315 69.1558 40.1343 69.568 39.6694 70.3926V74.6841C40.1287 75.5031 40.8315 75.9126 41.7778 75.9126C42.5138 75.9126 43.0977 75.6221 43.5293 75.041C43.9665 74.4544 44.1851 73.5856 44.1851 72.4346ZM51.4067 77.166C50.1893 77.166 49.1987 76.7676 48.4351 75.9707C47.6714 75.1683 47.2896 74.0975 47.2896 72.7583V72.4761C47.2896 71.5851 47.4583 70.791 47.7959 70.0938C48.139 69.391 48.6149 68.8431 49.2236 68.4502C49.8379 68.0518 50.502 67.8525 51.2158 67.8525C52.3835 67.8525 53.291 68.2371 53.9385 69.0063C54.5859 69.7756 54.9097 70.8768 54.9097 72.3101V72.9492H48.8252C48.8473 73.8346 49.1047 74.5513 49.5972 75.0991C50.0952 75.6414 50.7261 75.9126 51.4897 75.9126C52.0321 75.9126 52.4914 75.8019 52.8677 75.5806C53.244 75.3592 53.5732 75.0659 53.8555 74.7007L54.7935 75.4312C54.0409 76.5877 52.9119 77.166 51.4067 77.166ZM51.2158 69.1143C50.596 69.1143 50.0758 69.3411 49.6553 69.7949C49.2347 70.2432 48.9746 70.874 48.875 71.6875H53.374V71.5713C53.3298 70.791 53.1195 70.1878 52.7432 69.7617C52.3669 69.3301 51.8577 69.1143 51.2158 69.1143ZM61.0356 69.3965C60.8032 69.3577 60.5514 69.3384 60.2803 69.3384C59.2731 69.3384 58.5897 69.7673 58.23 70.625V77H56.6943V68.0186H58.1885L58.2134 69.0562C58.717 68.2537 59.4308 67.8525 60.355 67.8525C60.6538 67.8525 60.8807 67.8913 61.0356 67.9688V69.3965ZM63.3433 77V69.2056H61.9238V68.0186H63.3433V67.0972C63.3433 66.1343 63.6006 65.39 64.1152 64.8643C64.6299 64.3385 65.3576 64.0757 66.2983 64.0757C66.6525 64.0757 67.0039 64.1227 67.3525 64.2168L67.2695 65.4619C67.0094 65.4121 66.7327 65.3872 66.4395 65.3872C65.9414 65.3872 65.5568 65.5339 65.2856 65.8271C65.0145 66.1149 64.8789 66.5299 64.8789 67.0723V68.0186H66.7964V69.2056H64.8789V77H63.3433ZM68.0913 72.4263C68.0913 71.5464 68.2629 70.755 68.606 70.0522C68.9546 69.3494 69.436 68.8071 70.0503 68.4253C70.6701 68.0435 71.3757 67.8525 72.167 67.8525C73.39 67.8525 74.3778 68.2759 75.1304 69.1226C75.8885 69.9692 76.2676 71.0954 76.2676 72.501V72.6089C76.2676 73.4832 76.0988 74.269 75.7612 74.9663C75.4292 75.658 74.9505 76.1976 74.3252 76.585C73.7054 76.9723 72.9915 77.166 72.1836 77.166C70.9661 77.166 69.9784 76.7427 69.2202 75.896C68.4676 75.0493 68.0913 73.9287 68.0913 72.5342V72.4263ZM69.6353 72.6089C69.6353 73.605 69.8649 74.4046 70.3242 75.0078C70.7891 75.611 71.4089 75.9126 72.1836 75.9126C72.9639 75.9126 73.5837 75.6082 74.043 74.9995C74.5023 74.3853 74.7319 73.5275 74.7319 72.4263C74.7319 71.4412 74.4967 70.6444 74.0264 70.0356C73.5615 69.4214 72.9417 69.1143 72.167 69.1143C71.4089 69.1143 70.7974 69.4159 70.3325 70.019C69.8677 70.6222 69.6353 71.4855 69.6353 72.6089ZM82.5347 69.3965C82.3022 69.3577 82.0505 69.3384 81.7793 69.3384C80.7721 69.3384 80.0887 69.7673 79.729 70.625V77H78.1934V68.0186H79.6875L79.7124 69.0562C80.216 68.2537 80.9299 67.8525 81.854 67.8525C82.1528 67.8525 82.3797 67.8913 82.5347 67.9688V69.3965ZM85.3984 68.0186L85.4399 69.0146C86.0985 68.2399 86.9867 67.8525 88.1045 67.8525C89.3607 67.8525 90.2157 68.334 90.6694 69.2969C90.9683 68.8652 91.3556 68.5166 91.8315 68.251C92.313 67.9854 92.8802 67.8525 93.5332 67.8525C95.5033 67.8525 96.5049 68.8957 96.5381 70.9819V77H95.0024V71.0732C95.0024 70.4313 94.8558 69.9526 94.5625 69.6372C94.2692 69.3162 93.7767 69.1558 93.085 69.1558C92.515 69.1558 92.0418 69.3273 91.6655 69.6704C91.2892 70.008 91.0706 70.4645 91.0098 71.04V77H89.4658V71.1147C89.4658 69.8088 88.8267 69.1558 87.5483 69.1558C86.5412 69.1558 85.8522 69.5846 85.4814 70.4424V77H83.9458V68.0186H85.3984ZM104.407 77C104.319 76.8229 104.247 76.5075 104.191 76.0537C103.478 76.7952 102.625 77.166 101.635 77.166C100.749 77.166 100.022 76.917 99.4517 76.4189C98.8872 75.9154 98.605 75.279 98.605 74.5098C98.605 73.5745 98.9591 72.8496 99.6675 72.335C100.381 71.8148 101.383 71.5547 102.672 71.5547H104.167V70.8491C104.167 70.3123 104.006 69.8862 103.685 69.5708C103.364 69.2498 102.891 69.0894 102.266 69.0894C101.718 69.0894 101.258 69.2277 100.888 69.5044C100.517 69.7811 100.332 70.1159 100.332 70.5088H98.7876C98.7876 70.0605 98.9453 69.6289 99.2607 69.2139C99.5817 68.7933 100.013 68.4613 100.556 68.2178C101.104 67.9743 101.704 67.8525 102.357 67.8525C103.392 67.8525 104.202 68.1126 104.789 68.6328C105.376 69.1475 105.68 69.8586 105.702 70.7661V74.8999C105.702 75.7244 105.807 76.3802 106.018 76.8672V77H104.407ZM101.859 75.8296C102.34 75.8296 102.797 75.7051 103.229 75.4561C103.66 75.207 103.973 74.8833 104.167 74.4849V72.6421H102.963C101.081 72.6421 100.141 73.1927 100.141 74.2939C100.141 74.7754 100.301 75.1517 100.622 75.4229C100.943 75.694 101.355 75.8296 101.859 75.8296ZM109.562 68.0186L109.612 69.1475C110.298 68.2842 111.194 67.8525 112.301 67.8525C114.199 67.8525 115.157 68.9233 115.173 71.0649V77H113.638V71.0566C113.632 70.4092 113.483 69.9305 113.189 69.6206C112.902 69.3107 112.451 69.1558 111.836 69.1558C111.338 69.1558 110.901 69.2886 110.525 69.5542C110.149 69.8198 109.855 70.1685 109.645 70.6001V77H108.109V68.0186H109.562ZM121.092 75.9126C121.64 75.9126 122.118 75.7466 122.528 75.4146C122.937 75.0825 123.164 74.6675 123.208 74.1694H124.661C124.633 74.6841 124.456 75.1738 124.13 75.6387C123.803 76.1035 123.366 76.4743 122.818 76.751C122.276 77.0277 121.701 77.166 121.092 77.166C119.869 77.166 118.895 76.7593 118.17 75.9458C117.451 75.1268 117.091 74.009 117.091 72.5923V72.335C117.091 71.4606 117.251 70.6831 117.572 70.0024C117.893 69.3218 118.353 68.7933 118.95 68.417C119.553 68.0407 120.264 67.8525 121.083 67.8525C122.091 67.8525 122.926 68.1541 123.59 68.7573C124.26 69.3605 124.617 70.1436 124.661 71.1064H123.208C123.164 70.5254 122.943 70.0495 122.544 69.6787C122.152 69.3024 121.665 69.1143 121.083 69.1143C120.303 69.1143 119.697 69.3965 119.266 69.9609C118.84 70.5199 118.626 71.3306 118.626 72.3931V72.6836C118.626 73.7184 118.84 74.5153 119.266 75.0742C119.692 75.6331 120.3 75.9126 121.092 75.9126ZM130.115 77.166C128.897 77.166 127.907 76.7676 127.143 75.9707C126.379 75.1683 125.998 74.0975 125.998 72.7583V72.4761C125.998 71.5851 126.166 70.791 126.504 70.0938C126.847 69.391 127.323 68.8431 127.932 68.4502C128.546 68.0518 129.21 67.8525 129.924 67.8525C131.091 67.8525 131.999 68.2371 132.646 69.0063C133.294 69.7756 133.618 70.8768 133.618 72.3101V72.9492H127.533C127.555 73.8346 127.813 74.5513 128.305 75.0991C128.803 75.6414 129.434 75.9126 130.198 75.9126C130.74 75.9126 131.199 75.8019 131.576 75.5806C131.952 75.3592 132.281 75.0659 132.563 74.7007L133.501 75.4312C132.749 76.5877 131.62 77.166 130.115 77.166ZM129.924 69.1143C129.304 69.1143 128.784 69.3411 128.363 69.7949C127.943 70.2432 127.683 70.874 127.583 71.6875H132.082V71.5713C132.038 70.791 131.827 70.1878 131.451 69.7617C131.075 69.3301 130.566 69.1143 129.924 69.1143ZM145.164 77C145.076 76.8229 145.004 76.5075 144.948 76.0537C144.234 76.7952 143.382 77.166 142.392 77.166C141.506 77.166 140.778 76.917 140.208 76.4189C139.644 75.9154 139.362 75.279 139.362 74.5098C139.362 73.5745 139.716 72.8496 140.424 72.335C141.138 71.8148 142.14 71.5547 143.429 71.5547H144.923V70.8491C144.923 70.3123 144.763 69.8862 144.442 69.5708C144.121 69.2498 143.648 69.0894 143.022 69.0894C142.475 69.0894 142.015 69.2277 141.645 69.5044C141.274 69.7811 141.088 70.1159 141.088 70.5088H139.544C139.544 70.0605 139.702 69.6289 140.018 69.2139C140.339 68.7933 140.77 68.4613 141.312 68.2178C141.86 67.9743 142.461 67.8525 143.114 67.8525C144.149 67.8525 144.959 68.1126 145.546 68.6328C146.132 69.1475 146.437 69.8586 146.459 70.7661V74.8999C146.459 75.7244 146.564 76.3802 146.774 76.8672V77H145.164ZM142.616 75.8296C143.097 75.8296 143.554 75.7051 143.985 75.4561C144.417 75.207 144.73 74.8833 144.923 74.4849V72.6421H143.72C141.838 72.6421 140.897 73.1927 140.897 74.2939C140.897 74.7754 141.058 75.1517 141.379 75.4229C141.7 75.694 142.112 75.8296 142.616 75.8296ZM150.319 68.0186L150.369 69.1475C151.055 68.2842 151.951 67.8525 153.058 67.8525C154.956 67.8525 155.914 68.9233 155.93 71.0649V77H154.395V71.0566C154.389 70.4092 154.24 69.9305 153.946 69.6206C153.659 69.3107 153.208 69.1558 152.593 69.1558C152.095 69.1558 151.658 69.2886 151.282 69.5542C150.905 69.8198 150.612 70.1685 150.402 70.6001V77H148.866V68.0186H150.319ZM157.873 72.4346C157.873 71.0566 158.199 69.9499 158.852 69.1143C159.505 68.2731 160.36 67.8525 161.417 67.8525C162.468 67.8525 163.301 68.2122 163.916 68.9316V64.25H165.451V77H164.04L163.965 76.0371C163.351 76.7897 162.496 77.166 161.4 77.166C160.36 77.166 159.511 76.7399 158.852 75.8877C158.199 75.0355 157.873 73.9232 157.873 72.5508V72.4346ZM159.408 72.6089C159.408 73.6271 159.618 74.424 160.039 74.9995C160.46 75.575 161.041 75.8628 161.782 75.8628C162.756 75.8628 163.467 75.4256 163.916 74.5513V70.4258C163.456 69.5791 162.751 69.1558 161.799 69.1558C161.046 69.1558 160.46 69.4463 160.039 70.0273C159.618 70.6084 159.408 71.4689 159.408 72.6089ZM173.594 69.106C174.275 68.2703 175.16 67.8525 176.25 67.8525C178.149 67.8525 179.106 68.9233 179.123 71.0649V77H177.587V71.0566C177.581 70.4092 177.432 69.9305 177.139 69.6206C176.851 69.3107 176.4 69.1558 175.786 69.1558C175.288 69.1558 174.85 69.2886 174.474 69.5542C174.098 69.8198 173.805 70.1685 173.594 70.6001V77H172.059V64.25H173.594V69.106ZM185.149 77.166C183.931 77.166 182.941 76.7676 182.177 75.9707C181.414 75.1683 181.032 74.0975 181.032 72.7583V72.4761C181.032 71.5851 181.201 70.791 181.538 70.0938C181.881 69.391 182.357 68.8431 182.966 68.4502C183.58 68.0518 184.244 67.8525 184.958 67.8525C186.126 67.8525 187.033 68.2371 187.681 69.0063C188.328 69.7756 188.652 70.8768 188.652 72.3101V72.9492H182.567C182.59 73.8346 182.847 74.5513 183.339 75.0991C183.837 75.6414 184.468 75.9126 185.232 75.9126C185.774 75.9126 186.234 75.8019 186.61 75.5806C186.986 75.3592 187.315 75.0659 187.598 74.7007L188.536 75.4312C187.783 76.5877 186.654 77.166 185.149 77.166ZM184.958 69.1143C184.338 69.1143 183.818 69.3411 183.397 69.7949C182.977 70.2432 182.717 70.874 182.617 71.6875H187.116V71.5713C187.072 70.791 186.862 70.1878 186.485 69.7617C186.109 69.3301 185.6 69.1143 184.958 69.1143ZM192.105 77H190.569V64.25H192.105V77ZM202.157 72.6089C202.157 73.9757 201.845 75.077 201.219 75.9126C200.594 76.7482 199.747 77.166 198.679 77.166C197.589 77.166 196.731 76.8201 196.106 76.1284V80.4531H194.57V68.0186H195.973L196.048 69.0146C196.673 68.2399 197.542 67.8525 198.654 67.8525C199.733 67.8525 200.586 68.2593 201.211 69.0728C201.842 69.8862 202.157 71.0179 202.157 72.4678V72.6089ZM200.622 72.4346C200.622 71.4219 200.406 70.6222 199.974 70.0356C199.542 69.4491 198.95 69.1558 198.198 69.1558C197.268 69.1558 196.571 69.568 196.106 70.3926V74.6841C196.565 75.5031 197.268 75.9126 198.214 75.9126C198.95 75.9126 199.534 75.6221 199.966 75.041C200.403 74.4544 200.622 73.5856 200.622 72.4346ZM205.785 77H204.249V68.0186H205.785V77ZM204.125 65.6362C204.125 65.3872 204.199 65.1769 204.349 65.0054C204.504 64.8338 204.73 64.748 205.029 64.748C205.328 64.748 205.555 64.8338 205.71 65.0054C205.865 65.1769 205.942 65.3872 205.942 65.6362C205.942 65.8853 205.865 66.0928 205.71 66.2588C205.555 66.4248 205.328 66.5078 205.029 66.5078C204.73 66.5078 204.504 66.4248 204.349 66.2588C204.199 66.0928 204.125 65.8853 204.125 65.6362ZM209.703 68.0186L209.752 69.1475C210.439 68.2842 211.335 67.8525 212.442 67.8525C214.34 67.8525 215.297 68.9233 215.314 71.0649V77H213.778V71.0566C213.773 70.4092 213.623 69.9305 213.33 69.6206C213.042 69.3107 212.591 69.1558 211.977 69.1558C211.479 69.1558 211.042 69.2886 210.666 69.5542C210.289 69.8198 209.996 70.1685 209.786 70.6001V77H208.25V68.0186H209.703ZM217.265 72.4346C217.265 71.0345 217.588 69.9222 218.236 69.0977C218.883 68.2676 219.741 67.8525 220.809 67.8525C221.905 67.8525 222.76 68.2399 223.374 69.0146L223.449 68.0186H224.852V76.7842C224.852 77.9463 224.506 78.8621 223.814 79.5317C223.128 80.2013 222.204 80.5361 221.042 80.5361C220.394 80.5361 219.76 80.3978 219.141 80.1211C218.521 79.8444 218.048 79.4653 217.721 78.9839L218.518 78.0625C219.177 78.876 219.982 79.2827 220.934 79.2827C221.681 79.2827 222.262 79.0724 222.677 78.6519C223.097 78.2313 223.308 77.6392 223.308 76.8755V76.1035C222.693 76.8118 221.855 77.166 220.792 77.166C219.741 77.166 218.889 76.7427 218.236 75.896C217.588 75.0493 217.265 73.8955 217.265 72.4346ZM218.809 72.6089C218.809 73.6216 219.016 74.4185 219.431 74.9995C219.846 75.575 220.427 75.8628 221.174 75.8628C222.143 75.8628 222.854 75.4229 223.308 74.543V70.4424C222.837 69.5846 222.132 69.1558 221.191 69.1558C220.444 69.1558 219.86 69.4463 219.439 70.0273C219.019 70.6084 218.809 71.4689 218.809 72.6089ZM233.061 77H231.525V64.25H233.061V77ZM235.12 72.4263C235.12 71.5464 235.291 70.755 235.634 70.0522C235.983 69.3494 236.464 68.8071 237.079 68.4253C237.698 68.0435 238.404 67.8525 239.195 67.8525C240.418 67.8525 241.406 68.2759 242.159 69.1226C242.917 69.9692 243.296 71.0954 243.296 72.501V72.6089C243.296 73.4832 243.127 74.269 242.79 74.9663C242.458 75.658 241.979 76.1976 241.354 76.585C240.734 76.9723 240.02 77.166 239.212 77.166C237.994 77.166 237.007 76.7427 236.249 75.896C235.496 75.0493 235.12 73.9287 235.12 72.5342V72.4263ZM236.664 72.6089C236.664 73.605 236.893 74.4046 237.353 75.0078C237.817 75.611 238.437 75.9126 239.212 75.9126C239.992 75.9126 240.612 75.6082 241.071 74.9995C241.531 74.3853 241.76 73.5275 241.76 72.4263C241.76 71.4412 241.525 70.6444 241.055 70.0356C240.59 69.4214 239.97 69.1143 239.195 69.1143C238.437 69.1143 237.826 69.4159 237.361 70.019C236.896 70.6222 236.664 71.4855 236.664 72.6089ZM253.174 74.8833L254.9 68.0186H256.436L253.821 77H252.576L250.393 70.1934L248.268 77H247.023L244.417 68.0186H245.944L247.712 74.7422L249.804 68.0186H251.041L253.174 74.8833ZM261.732 77.166C260.514 77.166 259.524 76.7676 258.76 75.9707C257.997 75.1683 257.615 74.0975 257.615 72.7583V72.4761C257.615 71.5851 257.784 70.791 258.121 70.0938C258.464 69.391 258.94 68.8431 259.549 68.4502C260.163 68.0518 260.827 67.8525 261.541 67.8525C262.709 67.8525 263.616 68.2371 264.264 69.0063C264.911 69.7756 265.235 70.8768 265.235 72.3101V72.9492H259.15C259.173 73.8346 259.43 74.5513 259.922 75.0991C260.42 75.6414 261.051 75.9126 261.815 75.9126C262.357 75.9126 262.817 75.8019 263.193 75.5806C263.569 75.3592 263.898 75.0659 264.181 74.7007L265.119 75.4312C264.366 76.5877 263.237 77.166 261.732 77.166ZM261.541 69.1143C260.921 69.1143 260.401 69.3411 259.98 69.7949C259.56 70.2432 259.3 70.874 259.2 71.6875H263.699V71.5713C263.655 70.791 263.445 70.1878 263.068 69.7617C262.692 69.3301 262.183 69.1143 261.541 69.1143ZM271.361 69.3965C271.128 69.3577 270.877 69.3384 270.605 69.3384C269.598 69.3384 268.915 69.7673 268.555 70.625V77H267.02V68.0186H268.514L268.539 69.0562C269.042 68.2537 269.756 67.8525 270.68 67.8525C270.979 67.8525 271.206 67.8913 271.361 67.9688V69.3965ZM279.936 74.7505L282.027 68.0186H283.671L280.06 78.3862C279.501 79.8804 278.613 80.6274 277.396 80.6274L277.105 80.6025L276.532 80.4946V79.2495L276.947 79.2827C277.467 79.2827 277.871 79.1776 278.159 78.9673C278.452 78.757 278.693 78.3724 278.881 77.8135L279.222 76.9004L276.018 68.0186H277.694L279.936 74.7505ZM284.509 72.4263C284.509 71.5464 284.681 70.755 285.024 70.0522C285.373 69.3494 285.854 68.8071 286.468 68.4253C287.088 68.0435 287.794 67.8525 288.585 67.8525C289.808 67.8525 290.796 68.2759 291.548 69.1226C292.306 69.9692 292.686 71.0954 292.686 72.501V72.6089C292.686 73.4832 292.517 74.269 292.179 74.9663C291.847 75.658 291.368 76.1976 290.743 76.585C290.123 76.9723 289.41 77.166 288.602 77.166C287.384 77.166 286.396 76.7427 285.638 75.896C284.886 75.0493 284.509 73.9287 284.509 72.5342V72.4263ZM286.053 72.6089C286.053 73.605 286.283 74.4046 286.742 75.0078C287.207 75.611 287.827 75.9126 288.602 75.9126C289.382 75.9126 290.002 75.6082 290.461 74.9995C290.92 74.3853 291.15 73.5275 291.15 72.4263C291.15 71.4412 290.915 70.6444 290.444 70.0356C289.979 69.4214 289.36 69.1143 288.585 69.1143C287.827 69.1143 287.215 69.4159 286.75 70.019C286.286 70.6222 286.053 71.4855 286.053 72.6089ZM300.156 76.1118C299.559 76.8146 298.681 77.166 297.525 77.166C296.568 77.166 295.837 76.8893 295.333 76.3359C294.835 75.777 294.584 74.9525 294.578 73.8623V68.0186H296.114V73.8208C296.114 75.1821 296.667 75.8628 297.774 75.8628C298.947 75.8628 299.727 75.4256 300.115 74.5513V68.0186H301.65V77H300.189L300.156 76.1118ZM308.333 69.3965C308.1 69.3577 307.848 69.3384 307.577 69.3384C306.57 69.3384 305.887 69.7673 305.527 70.625V77H303.991V68.0186H305.485L305.51 69.0562C306.014 68.2537 306.728 67.8525 307.652 67.8525C307.951 67.8525 308.178 67.8913 308.333 67.9688V69.3965ZM316.052 65.8438V68.0186H317.729V69.2056H316.052V74.7754C316.052 75.1351 316.127 75.4062 316.276 75.5889C316.426 75.766 316.68 75.8545 317.04 75.8545C317.217 75.8545 317.461 75.8213 317.771 75.7549V77C317.367 77.1107 316.974 77.166 316.592 77.166C315.906 77.166 315.388 76.9585 315.04 76.5435C314.691 76.1284 314.517 75.5391 314.517 74.7754V69.2056H312.881V68.0186H314.517V65.8438H316.052ZM325.075 77C324.987 76.8229 324.915 76.5075 324.859 76.0537C324.146 76.7952 323.293 77.166 322.303 77.166C321.417 77.166 320.69 76.917 320.12 76.4189C319.555 75.9154 319.273 75.279 319.273 74.5098C319.273 73.5745 319.627 72.8496 320.335 72.335C321.049 71.8148 322.051 71.5547 323.34 71.5547H324.834V70.8491C324.834 70.3123 324.674 69.8862 324.353 69.5708C324.032 69.2498 323.559 69.0894 322.934 69.0894C322.386 69.0894 321.926 69.2277 321.556 69.5044C321.185 69.7811 321 70.1159 321 70.5088H319.456C319.456 70.0605 319.613 69.6289 319.929 69.2139C320.25 68.7933 320.681 68.4613 321.224 68.2178C321.771 67.9743 322.372 67.8525 323.025 67.8525C324.06 67.8525 324.87 68.1126 325.457 68.6328C326.044 69.1475 326.348 69.8586 326.37 70.7661V74.8999C326.37 75.7244 326.475 76.3802 326.686 76.8672V77H325.075ZM322.527 75.8296C323.008 75.8296 323.465 75.7051 323.896 75.4561C324.328 75.207 324.641 74.8833 324.834 74.4849V72.6421H323.631C321.749 72.6421 320.809 73.1927 320.809 74.2939C320.809 74.7754 320.969 75.1517 321.29 75.4229C321.611 75.694 322.023 75.8296 322.527 75.8296ZM331.791 71.2974L333.783 68.0186H335.576L332.637 72.4595L335.667 77H333.891L331.815 73.6382L329.74 77H327.956L330.985 72.4595L328.047 68.0186H329.823L331.791 71.2974ZM340.772 77.166C339.555 77.166 338.564 76.7676 337.8 75.9707C337.037 75.1683 336.655 74.0975 336.655 72.7583V72.4761C336.655 71.5851 336.824 70.791 337.161 70.0938C337.504 69.391 337.98 68.8431 338.589 68.4502C339.203 68.0518 339.867 67.8525 340.581 67.8525C341.749 67.8525 342.656 68.2371 343.304 69.0063C343.951 69.7756 344.275 70.8768 344.275 72.3101V72.9492H338.19C338.213 73.8346 338.47 74.5513 338.962 75.0991C339.46 75.6414 340.091 75.9126 340.855 75.9126C341.397 75.9126 341.857 75.8019 342.233 75.5806C342.609 75.3592 342.938 75.0659 343.221 74.7007L344.159 75.4312C343.406 76.5877 342.277 77.166 340.772 77.166ZM340.581 69.1143C339.961 69.1143 339.441 69.3411 339.021 69.7949C338.6 70.2432 338.34 70.874 338.24 71.6875H342.739V71.5713C342.695 70.791 342.485 70.1878 342.108 69.7617C341.732 69.3301 341.223 69.1143 340.581 69.1143ZM351.289 74.6177C351.289 74.2026 351.131 73.8817 350.816 73.6548C350.506 73.4224 349.961 73.2231 349.181 73.0571C348.406 72.8911 347.789 72.6919 347.33 72.4595C346.876 72.2271 346.538 71.9504 346.317 71.6294C346.101 71.3084 345.993 70.9266 345.993 70.4839C345.993 69.7479 346.303 69.1253 346.923 68.6162C347.548 68.1071 348.345 67.8525 349.313 67.8525C350.332 67.8525 351.156 68.1154 351.787 68.6411C352.424 69.1668 352.742 69.8392 352.742 70.6582H351.198C351.198 70.2376 351.018 69.8752 350.658 69.5708C350.304 69.2664 349.856 69.1143 349.313 69.1143C348.755 69.1143 348.317 69.236 348.002 69.4795C347.687 69.723 347.529 70.0412 347.529 70.4341C347.529 70.8049 347.675 71.0843 347.969 71.2725C348.262 71.4606 348.791 71.6405 349.554 71.812C350.323 71.9836 350.946 72.1883 351.422 72.4263C351.898 72.6642 352.249 72.952 352.476 73.2896C352.708 73.6216 352.825 74.0283 352.825 74.5098C352.825 75.3122 352.504 75.9569 351.862 76.4438C351.22 76.9253 350.387 77.166 349.363 77.166C348.644 77.166 348.007 77.0387 347.454 76.7842C346.901 76.5296 346.466 76.1755 346.151 75.7217C345.841 75.2624 345.686 74.7671 345.686 74.2358H347.222C347.249 74.7505 347.454 75.16 347.836 75.4644C348.223 75.7632 348.732 75.9126 349.363 75.9126C349.944 75.9126 350.409 75.7964 350.758 75.564C351.112 75.326 351.289 75.0106 351.289 74.6177ZM354.858 76.1948C354.858 75.9292 354.936 75.7078 355.091 75.5308C355.251 75.3537 355.489 75.2651 355.805 75.2651C356.12 75.2651 356.358 75.3537 356.519 75.5308C356.685 75.7078 356.768 75.9292 356.768 76.1948C356.768 76.4494 356.685 76.6624 356.519 76.834C356.358 77.0055 356.12 77.0913 355.805 77.0913C355.489 77.0913 355.251 77.0055 355.091 76.834C354.936 76.6624 354.858 76.4494 354.858 76.1948Z" fill="#230B59"/>
</svg>
