<svg width="79" height="10" viewBox="0 0 79 10" fill="none" xmlns="http://www.w3.org/2000/svg">
<path d="M6.88477 1.39453H4.14258V9H3.02344V1.39453H0.287109V0.46875H6.88477V1.39453ZM10.5996 3.63281C10.4355 3.60547 10.2578 3.5918 10.0664 3.5918C9.35547 3.5918 8.87305 3.89453 8.61914 4.5V9H7.53516V2.66016H8.58984L8.60742 3.39258C8.96289 2.82617 9.4668 2.54297 10.1191 2.54297C10.3301 2.54297 10.4902 2.57031 10.5996 2.625V3.63281ZM15.5156 8.37305C15.0938 8.86914 14.4746 9.11719 13.6582 9.11719C12.9824 9.11719 12.4668 8.92188 12.1113 8.53125C11.7598 8.13672 11.582 7.55469 11.5781 6.78516V2.66016H12.6621V6.75586C12.6621 7.7168 13.0527 8.19727 13.834 8.19727C14.6621 8.19727 15.2129 7.88867 15.4863 7.27148V2.66016H16.5703V9H15.5391L15.5156 8.37305ZM21.9141 7.31836C21.9141 7.02539 21.8027 6.79883 21.5801 6.63867C21.3613 6.47461 20.9766 6.33398 20.4258 6.2168C19.8789 6.09961 19.4434 5.95898 19.1191 5.79492C18.7988 5.63086 18.5605 5.43555 18.4043 5.20898C18.252 4.98242 18.1758 4.71289 18.1758 4.40039C18.1758 3.88086 18.3945 3.44141 18.832 3.08203C19.2734 2.72266 19.8359 2.54297 20.5195 2.54297C21.2383 2.54297 21.8203 2.72852 22.2656 3.09961C22.7148 3.4707 22.9395 3.94531 22.9395 4.52344H21.8496C21.8496 4.22656 21.7227 3.9707 21.4688 3.75586C21.2188 3.54102 20.9023 3.43359 20.5195 3.43359C20.125 3.43359 19.8164 3.51953 19.5938 3.69141C19.3711 3.86328 19.2598 4.08789 19.2598 4.36523C19.2598 4.62695 19.3633 4.82422 19.5703 4.95703C19.7773 5.08984 20.1504 5.2168 20.6895 5.33789C21.2324 5.45898 21.6719 5.60352 22.0078 5.77148C22.3438 5.93945 22.5918 6.14258 22.752 6.38086C22.916 6.61523 22.998 6.90234 22.998 7.24219C22.998 7.80859 22.7715 8.26367 22.3184 8.60742C21.8652 8.94727 21.2773 9.11719 20.5547 9.11719C20.0469 9.11719 19.5977 9.02734 19.207 8.84766C18.8164 8.66797 18.5098 8.41797 18.2871 8.09766C18.0684 7.77344 17.959 7.42383 17.959 7.04883H19.043C19.0625 7.41211 19.207 7.70117 19.4766 7.91602C19.75 8.12695 20.1094 8.23242 20.5547 8.23242C20.9648 8.23242 21.293 8.15039 21.5391 7.98633C21.7891 7.81836 21.9141 7.5957 21.9141 7.31836ZM25.8809 1.125V2.66016H27.0645V3.49805H25.8809V7.42969C25.8809 7.68359 25.9336 7.875 26.0391 8.00391C26.1445 8.12891 26.3242 8.19141 26.5781 8.19141C26.7031 8.19141 26.875 8.16797 27.0938 8.12109V9C26.8086 9.07812 26.5312 9.11719 26.2617 9.11719C25.7773 9.11719 25.4121 8.9707 25.166 8.67773C24.9199 8.38477 24.7969 7.96875 24.7969 7.42969V3.49805H23.6426V2.66016H24.7969V1.125H25.8809ZM30.9668 9.11719C30.1074 9.11719 29.4082 8.83594 28.8691 8.27344C28.3301 7.70703 28.0605 6.95117 28.0605 6.00586V5.80664C28.0605 5.17773 28.1797 4.61719 28.418 4.125C28.6602 3.62891 28.9961 3.24219 29.4258 2.96484C29.8594 2.68359 30.3281 2.54297 30.832 2.54297C31.6562 2.54297 32.2969 2.81445 32.7539 3.35742C33.2109 3.90039 33.4395 4.67773 33.4395 5.68945V6.14062H29.1445C29.1602 6.76562 29.3418 7.27148 29.6895 7.6582C30.041 8.04102 30.4863 8.23242 31.0254 8.23242C31.4082 8.23242 31.7324 8.1543 31.998 7.99805C32.2637 7.8418 32.4961 7.63477 32.6953 7.37695L33.3574 7.89258C32.8262 8.70898 32.0293 9.11719 30.9668 9.11719ZM30.832 3.43359C30.3945 3.43359 30.0273 3.59375 29.7305 3.91406C29.4336 4.23047 29.25 4.67578 29.1797 5.25H32.3555V5.16797C32.3242 4.61719 32.1758 4.19141 31.9102 3.89062C31.6445 3.58594 31.2852 3.43359 30.832 3.43359ZM34.4355 5.77734C34.4355 4.80469 34.666 4.02344 35.127 3.43359C35.5879 2.83984 36.1914 2.54297 36.9375 2.54297C37.6797 2.54297 38.2676 2.79688 38.7012 3.30469V0H39.7852V9H38.7891L38.7363 8.32031C38.3027 8.85156 37.6992 9.11719 36.9258 9.11719C36.1914 9.11719 35.5918 8.81641 35.127 8.21484C34.666 7.61328 34.4355 6.82812 34.4355 5.85938V5.77734ZM35.5195 5.90039C35.5195 6.61914 35.668 7.18164 35.9648 7.58789C36.2617 7.99414 36.6719 8.19727 37.1953 8.19727C37.8828 8.19727 38.3848 7.88867 38.7012 7.27148V4.35938C38.377 3.76172 37.8789 3.46289 37.207 3.46289C36.6758 3.46289 36.2617 3.66797 35.9648 4.07812C35.668 4.48828 35.5195 5.0957 35.5195 5.90039ZM46.9922 8.23242C47.3789 8.23242 47.7168 8.11523 48.0059 7.88086C48.2949 7.64648 48.4551 7.35352 48.4863 7.00195H49.5117C49.4922 7.36523 49.3672 7.71094 49.1367 8.03906C48.9062 8.36719 48.5977 8.62891 48.2109 8.82422C47.8281 9.01953 47.4219 9.11719 46.9922 9.11719C46.1289 9.11719 45.4414 8.83008 44.9297 8.25586C44.4219 7.67773 44.168 6.88867 44.168 5.88867V5.70703C44.168 5.08984 44.2812 4.54102 44.5078 4.06055C44.7344 3.58008 45.0586 3.20703 45.4805 2.94141C45.9062 2.67578 46.4082 2.54297 46.9863 2.54297C47.6973 2.54297 48.2871 2.75586 48.7559 3.18164C49.2285 3.60742 49.4805 4.16016 49.5117 4.83984H48.4863C48.4551 4.42969 48.2988 4.09375 48.0176 3.83203C47.7402 3.56641 47.3965 3.43359 46.9863 3.43359C46.4355 3.43359 46.0078 3.63281 45.7031 4.03125C45.4023 4.42578 45.252 4.99805 45.252 5.74805V5.95312C45.252 6.68359 45.4023 7.24609 45.7031 7.64062C46.0039 8.03516 46.4336 8.23242 46.9922 8.23242ZM51.9082 9H50.8242V0H51.9082V9ZM54.8262 9H53.7422V2.66016H54.8262V9ZM53.6543 0.978516C53.6543 0.802734 53.707 0.654297 53.8125 0.533203C53.9219 0.412109 54.082 0.351562 54.293 0.351562C54.5039 0.351562 54.6641 0.412109 54.7734 0.533203C54.8828 0.654297 54.9375 0.802734 54.9375 0.978516C54.9375 1.1543 54.8828 1.30078 54.7734 1.41797C54.6641 1.53516 54.5039 1.59375 54.293 1.59375C54.082 1.59375 53.9219 1.53516 53.8125 1.41797C53.707 1.30078 53.6543 1.1543 53.6543 0.978516ZM59.1973 9.11719C58.3379 9.11719 57.6387 8.83594 57.0996 8.27344C56.5605 7.70703 56.291 6.95117 56.291 6.00586V5.80664C56.291 5.17773 56.4102 4.61719 56.6484 4.125C56.8906 3.62891 57.2266 3.24219 57.6562 2.96484C58.0898 2.68359 58.5586 2.54297 59.0625 2.54297C59.8867 2.54297 60.5273 2.81445 60.9844 3.35742C61.4414 3.90039 61.6699 4.67773 61.6699 5.68945V6.14062H57.375C57.3906 6.76562 57.5723 7.27148 57.9199 7.6582C58.2715 8.04102 58.7168 8.23242 59.2559 8.23242C59.6387 8.23242 59.9629 8.1543 60.2285 7.99805C60.4941 7.8418 60.7266 7.63477 60.9258 7.37695L61.5879 7.89258C61.0566 8.70898 60.2598 9.11719 59.1973 9.11719ZM59.0625 3.43359C58.625 3.43359 58.2578 3.59375 57.9609 3.91406C57.6641 4.23047 57.4805 4.67578 57.4102 5.25H60.5859V5.16797C60.5547 4.61719 60.4062 4.19141 60.1406 3.89062C59.875 3.58594 59.5156 3.43359 59.0625 3.43359ZM63.9551 2.66016L63.9902 3.45703C64.4746 2.84766 65.1074 2.54297 65.8887 2.54297C67.2285 2.54297 67.9043 3.29883 67.916 4.81055V9H66.832V4.80469C66.8281 4.34766 66.7227 4.00977 66.5156 3.79102C66.3125 3.57227 65.9941 3.46289 65.5605 3.46289C65.209 3.46289 64.9004 3.55664 64.6348 3.74414C64.3691 3.93164 64.1621 4.17773 64.0137 4.48242V9H62.9297V2.66016H63.9551ZM71.0215 1.125V2.66016H72.2051V3.49805H71.0215V7.42969C71.0215 7.68359 71.0742 7.875 71.1797 8.00391C71.2852 8.12891 71.4648 8.19141 71.7188 8.19141C71.8438 8.19141 72.0156 8.16797 72.2344 8.12109V9C71.9492 9.07812 71.6719 9.11719 71.4023 9.11719C70.918 9.11719 70.5527 8.9707 70.3066 8.67773C70.0605 8.38477 69.9375 7.96875 69.9375 7.42969V3.49805H68.7832V2.66016H69.9375V1.125H71.0215ZM77.168 7.31836C77.168 7.02539 77.0566 6.79883 76.834 6.63867C76.6152 6.47461 76.2305 6.33398 75.6797 6.2168C75.1328 6.09961 74.6973 5.95898 74.373 5.79492C74.0527 5.63086 73.8145 5.43555 73.6582 5.20898C73.5059 4.98242 73.4297 4.71289 73.4297 4.40039C73.4297 3.88086 73.6484 3.44141 74.0859 3.08203C74.5273 2.72266 75.0898 2.54297 75.7734 2.54297C76.4922 2.54297 77.0742 2.72852 77.5195 3.09961C77.9688 3.4707 78.1934 3.94531 78.1934 4.52344H77.1035C77.1035 4.22656 76.9766 3.9707 76.7227 3.75586C76.4727 3.54102 76.1562 3.43359 75.7734 3.43359C75.3789 3.43359 75.0703 3.51953 74.8477 3.69141C74.625 3.86328 74.5137 4.08789 74.5137 4.36523C74.5137 4.62695 74.6172 4.82422 74.8242 4.95703C75.0312 5.08984 75.4043 5.2168 75.9434 5.33789C76.4863 5.45898 76.9258 5.60352 77.2617 5.77148C77.5977 5.93945 77.8457 6.14258 78.0059 6.38086C78.1699 6.61523 78.252 6.90234 78.252 7.24219C78.252 7.80859 78.0254 8.26367 77.5723 8.60742C77.1191 8.94727 76.5312 9.11719 75.8086 9.11719C75.3008 9.11719 74.8516 9.02734 74.4609 8.84766C74.0703 8.66797 73.7637 8.41797 73.541 8.09766C73.3223 7.77344 73.2129 7.42383 73.2129 7.04883H74.2969C74.3164 7.41211 74.4609 7.70117 74.7305 7.91602C75.0039 8.12695 75.3633 8.23242 75.8086 8.23242C76.2188 8.23242 76.5469 8.15039 76.793 7.98633C77.043 7.81836 77.168 7.5957 77.168 7.31836Z" fill="#230B59"/>
</svg>
